<svg xmlns="http://www.w3.org/2000/svg" xmlns:xlink="http://www.w3.org/1999/xlink" width="500" zoomAndPan="magnify" viewBox="0 0 375 225" height="300" preserveAspectRatio="xMidYMid meet" version="1.0"><defs><clipPath id="c1eb142bb0"><path d="M 0 0 L 134.25 0 L 134.25 225 L 0 225 Z M 0 0 " clip-rule="nonzero"/></clipPath></defs><path fill="#e81370" d="M 45.328125 1.683594 L 38.851562 2.613281 L 36.578125 5.394531 L 31.949219 13.734375 L 31.527344 18.792969 L 35.230469 18.371094 L 46.761719 24.355469 L 56.859375 32.695312 L 63.757812 44.746094 L 61.90625 61.855469 L 64.179688 71.542969 L 61.402344 82.164062 L 47.9375 89.15625 L 33.632812 102.554688 L 20.167969 109.042969 L 13.183594 121.9375 L 1.65625 133.0625 L 26.648438 179.832031 L 27.992188 183.539062 L 27.992188 192.386719 L 21.09375 201.65625 L 28.917969 198.875 L 33.546875 208.566406 L 49.285156 214.128906 L 52.484375 217.332031 L 52.988281 222.894531 L 55.765625 223.398438 L 56.183594 206.292969 L 59.886719 197.949219 L 72.34375 197.023438 L 73.773438 188.679688 L 83.03125 191.460938 L 87.152344 185.898438 L 88.5 180.335938 L 87.152344 177.554688 L 85.722656 159.523438 L 90.773438 154.464844 L 106.003906 145.617188 L 112.484375 147.976562 L 129.566406 147.976562 L 131.839844 140.140625 L 129.566406 135.925781 L 124.011719 129.945312 L 119.886719 121.601562 L 113.242188 113.175781 L 114.167969 97.414062 L 116.523438 88.230469 L 120.226562 84.523438 L 116.523438 80.308594 L 116.015625 67.414062 L 125.273438 60.421875 L 122.078125 55.363281 L 123.421875 48.875 L 128.472656 45.167969 L 131.164062 39.605469 C 129.15625 38.398438 127.023438 37.472656 124.769531 36.824219 C 122.816406 36.320312 120.964844 35.558594 119.214844 34.550781 L 115.511719 32.695312 L 104.40625 25.28125 L 101.207031 14.15625 L 100.703125 14.15625 C 95.148438 13.527344 91.921875 13.21875 91.023438 13.230469 C 89.289062 13.53125 87.609375 14.007812 85.976562 14.664062 L 81.851562 16.011719 C 78.578125 14.84375 75.492188 13.296875 72.59375 11.375 L 65.191406 5.394531 L 48.105469 4.464844 Z M 45.328125 1.683594 " fill-opacity="1" fill-rule="nonzero"/><g clip-path="url(#c1eb142bb0)"><path fill="#000000" d="M 56.015625 225 L 55.714844 225 L 52.9375 224.496094 C 52.566406 224.429688 52.25 224.253906 51.996094 223.976562 C 51.738281 223.699219 51.59375 223.371094 51.558594 222.996094 L 51.121094 218.039062 L 48.613281 215.542969 L 33.246094 210.101562 C 32.808594 209.945312 32.488281 209.660156 32.285156 209.242188 L 28.3125 200.914062 L 21.917969 203.191406 C 21.570312 203.316406 21.214844 203.324219 20.863281 203.214844 C 20.507812 203.105469 20.21875 202.902344 20 202.601562 C 19.78125 202.304688 19.667969 201.96875 19.667969 201.597656 C 19.667969 201.226562 19.78125 200.894531 20 200.59375 L 26.5625 191.78125 L 26.5625 183.875 L 25.367188 180.503906 L 0.476562 133.855469 C 0.300781 133.519531 0.242188 133.167969 0.300781 132.796875 C 0.359375 132.425781 0.523438 132.109375 0.796875 131.847656 L 12.125 120.910156 L 18.988281 108.234375 C 19.160156 107.921875 19.410156 107.683594 19.730469 107.527344 L 32.890625 101.15625 L 47.011719 87.925781 C 47.125 87.824219 47.25 87.734375 47.382812 87.65625 L 60.089844 81.015625 L 62.582031 71.527344 L 60.410156 62.242188 C 60.367188 62.050781 60.367188 61.859375 60.410156 61.667969 L 62.195312 45.117188 L 55.714844 33.808594 L 45.917969 25.769531 L 34.996094 20.105469 L 31.796875 20.460938 C 31.273438 20.523438 30.816406 20.371094 30.433594 20.003906 C 30.054688 19.636719 29.886719 19.1875 29.929688 18.65625 L 30.351562 13.601562 C 30.382812 13.359375 30.457031 13.128906 30.570312 12.910156 L 35.199219 4.566406 C 35.238281 4.476562 35.292969 4.398438 35.367188 4.332031 L 37.636719 1.550781 C 37.914062 1.210938 38.265625 1.007812 38.699219 0.945312 L 45.175781 0.015625 C 45.734375 -0.0664062 46.210938 0.09375 46.609375 0.488281 L 48.929688 2.816406 L 65.355469 3.707031 C 65.722656 3.726562 66.046875 3.847656 66.332031 4.078125 L 73.738281 10.0625 C 76.328125 11.78125 79.082031 13.167969 82.003906 14.226562 L 85.535156 13.0625 C 87.351562 12.292969 89.234375 11.785156 91.191406 11.546875 C 91.796875 11.546875 93.480469 11.644531 100.96875 12.472656 L 101.375 12.472656 C 101.761719 12.457031 102.109375 12.5625 102.425781 12.789062 C 102.738281 13.015625 102.949219 13.3125 103.058594 13.683594 L 106.085938 24.21875 L 116.589844 31.230469 L 120.207031 33.050781 C 121.753906 33.933594 123.382812 34.632812 125.089844 35.140625 L 125.375 35.140625 C 127.78125 35.828125 130.058594 36.808594 132.207031 38.089844 C 132.398438 38.195312 132.5625 38.328125 132.703125 38.496094 C 132.839844 38.664062 132.941406 38.851562 133.007812 39.058594 C 133.074219 39.265625 133.101562 39.480469 133.082031 39.695312 C 133.066406 39.914062 133.011719 40.121094 132.914062 40.316406 L 130.222656 45.875 C 130.09375 46.128906 129.914062 46.335938 129.683594 46.5 L 125.089844 49.871094 L 124.011719 55.0625 L 126.855469 59.527344 C 126.96875 59.707031 127.046875 59.902344 127.085938 60.113281 C 127.128906 60.320312 127.128906 60.53125 127.089844 60.738281 C 127.050781 60.949219 126.972656 61.144531 126.863281 61.324219 C 126.75 61.507812 126.605469 61.660156 126.433594 61.785156 L 117.886719 68.242188 L 118.339844 79.667969 L 121.707031 83.425781 C 121.851562 83.582031 121.964844 83.761719 122.046875 83.960938 C 122.125 84.160156 122.164062 84.367188 122.164062 84.582031 C 122.164062 84.796875 122.125 85.003906 122.046875 85.203125 C 121.964844 85.402344 121.851562 85.578125 121.707031 85.734375 L 118.339844 89.105469 L 116.136719 97.703125 L 115.261719 112.617188 L 121.824219 120.453125 C 121.90625 120.5625 121.980469 120.671875 122.042969 120.792969 L 126.046875 128.914062 L 131.433594 134.714844 C 131.53125 134.816406 131.617188 134.925781 131.6875 135.050781 L 133.957031 139.265625 C 134.167969 139.671875 134.214844 140.101562 134.09375 140.542969 L 131.820312 148.382812 C 131.714844 148.753906 131.503906 149.054688 131.1875 149.277344 C 130.875 149.503906 130.523438 149.609375 130.136719 149.59375 L 113.054688 149.59375 C 112.859375 149.59375 112.667969 149.5625 112.484375 149.496094 L 106.507812 147.386719 L 92.136719 155.730469 L 87.707031 160.09375 L 89.054688 176.949219 L 90.265625 179.445312 C 90.445312 179.8125 90.484375 180.195312 90.382812 180.589844 L 89.039062 186.152344 C 88.984375 186.375 88.886719 186.574219 88.75 186.757812 L 84.628906 192.386719 C 84.417969 192.671875 84.144531 192.871094 83.808594 192.980469 C 83.472656 193.09375 83.132812 193.097656 82.792969 192.996094 L 75.355469 190.753906 L 74.246094 197.226562 C 74.179688 197.605469 74.003906 197.925781 73.71875 198.1875 C 73.433594 198.449219 73.097656 198.59375 72.710938 198.625 L 61.269531 199.464844 L 58.121094 206.578125 L 57.699219 223.347656 C 57.691406 223.871094 57.484375 224.300781 57.078125 224.628906 C 56.765625 224.878906 56.414062 225 56.015625 225 Z M 35.011719 207.136719 L 50.160156 212.460938 C 50.398438 212.546875 50.613281 212.675781 50.800781 212.847656 L 53.996094 216.050781 C 54.273438 216.347656 54.433594 216.695312 54.484375 217.09375 L 54.484375 217.753906 L 54.773438 206.175781 C 54.769531 205.941406 54.820312 205.722656 54.921875 205.515625 L 58.625 197.089844 C 58.753906 196.804688 58.941406 196.574219 59.195312 196.398438 C 59.449219 196.21875 59.730469 196.117188 60.039062 196.09375 L 71.179688 195.269531 L 72.375 188.226562 C 72.417969 187.984375 72.503906 187.765625 72.640625 187.5625 C 72.773438 187.363281 72.945312 187.199219 73.152344 187.070312 C 73.359375 186.941406 73.582031 186.863281 73.820312 186.832031 C 74.0625 186.800781 74.300781 186.820312 74.53125 186.894531 L 82.660156 189.335938 L 85.875 185.003906 L 86.984375 180.355469 L 85.90625 178.128906 C 85.820312 177.9375 85.765625 177.734375 85.738281 177.523438 L 84.308594 159.488281 C 84.269531 158.964844 84.4375 158.523438 84.8125 158.15625 L 89.949219 153.101562 C 90.050781 153.003906 90.160156 152.917969 90.285156 152.847656 L 105.515625 144 C 105.964844 143.734375 106.4375 143.691406 106.929688 143.863281 L 113.140625 146.125 L 128.65625 146.125 L 130.339844 140.15625 L 128.488281 136.785156 L 123.085938 130.953125 C 122.972656 130.835938 122.875 130.699219 122.800781 130.550781 L 118.777344 122.394531 L 111.910156 114.203125 C 111.625 113.859375 111.496094 113.46875 111.523438 113.023438 L 112.449219 97.265625 L 112.449219 96.945312 L 114.921875 87.894531 C 115.007812 87.601562 115.15625 87.34375 115.359375 87.117188 L 117.953125 84.539062 L 115.292969 81.503906 C 115.03125 81.207031 114.890625 80.859375 114.875 80.460938 L 114.367188 67.566406 C 114.34375 66.976562 114.570312 66.503906 115.042969 66.152344 L 123.054688 60.101562 L 120.695312 56.34375 C 120.453125 55.964844 120.375 55.554688 120.460938 55.113281 L 121.808594 48.625 C 121.894531 48.195312 122.113281 47.851562 122.464844 47.59375 L 127.261719 44.140625 L 129.0625 40.414062 C 127.660156 39.640625 126.191406 39.027344 124.652344 38.578125 C 123.960938 38.578125 122.664062 38.15625 118.59375 36.152344 L 114.875 34.28125 C 114.808594 34.257812 114.753906 34.226562 114.703125 34.179688 L 103.597656 26.765625 C 103.253906 26.539062 103.023438 26.230469 102.90625 25.835938 L 100.027344 15.84375 C 93.699219 15.152344 91.613281 15 91.140625 15 C 89.566406 15.300781 88.035156 15.75 86.546875 16.347656 L 82.40625 17.695312 C 82.027344 17.835938 81.644531 17.835938 81.261719 17.695312 C 77.835938 16.476562 74.609375 14.851562 71.585938 12.824219 L 64.582031 7.164062 L 48.054688 6.269531 C 47.625 6.25 47.253906 6.085938 46.945312 5.78125 L 44.773438 3.589844 L 39.726562 4.316406 L 38.042969 6.457031 L 33.667969 14.359375 L 33.449219 17.003906 L 35.128906 16.820312 C 35.46875 16.773438 35.789062 16.828125 36.089844 16.988281 L 47.617188 22.972656 C 47.726562 23.023438 47.820312 23.089844 47.90625 23.175781 L 58.003906 31.601562 C 58.167969 31.726562 58.304688 31.875 58.40625 32.054688 L 65.308594 44.105469 C 65.488281 44.425781 65.554688 44.769531 65.507812 45.136719 L 63.691406 61.988281 L 65.898438 71.394531 C 65.964844 71.664062 65.964844 71.933594 65.898438 72.203125 L 63.121094 82.820312 C 62.996094 83.308594 62.707031 83.667969 62.261719 83.898438 L 49.082031 90.773438 L 34.945312 104.023438 C 34.828125 104.144531 34.695312 104.238281 34.542969 104.308594 L 21.648438 110.5625 L 14.917969 122.984375 C 14.835938 123.136719 14.726562 123.273438 14.597656 123.386719 L 3.996094 133.636719 L 28.382812 179.273438 L 28.484375 179.496094 L 29.828125 183.203125 C 29.894531 183.386719 29.929688 183.578125 29.929688 183.773438 L 29.929688 192.386719 C 29.929688 192.761719 29.816406 193.097656 29.59375 193.398438 L 26.007812 198.21875 L 28.601562 197.292969 C 28.796875 197.222656 29 197.1875 29.207031 197.195312 C 29.417969 197.199219 29.617188 197.242188 29.808594 197.320312 C 30.003906 197.398438 30.175781 197.511719 30.324219 197.652344 C 30.476562 197.796875 30.597656 197.964844 30.6875 198.152344 Z M 35.011719 207.136719 " fill-opacity="1" fill-rule="nonzero"/></g></svg>