<svg xmlns="http://www.w3.org/2000/svg" xmlns:xlink="http://www.w3.org/1999/xlink" width="500" zoomAndPan="magnify" viewBox="0 0 375 225" height="300" preserveAspectRatio="xMidYMid meet" version="1.0"><defs><clipPath id="f5102e874b"><path d="M 0 0 L 375 0 L 375 216.75 L 0 216.75 Z M 0 0 " clip-rule="nonzero"/></clipPath></defs><path fill="#68b2e3" d="M 211.054688 182.832031 L 203.28125 184.125 L 207.285156 195.0625 L 212.46875 202.121094 L 217.652344 207.296875 L 225.304688 208.589844 L 226.601562 197.535156 L 218.238281 190.476562 L 210.464844 186.59375 L 211.171875 182.714844 M 48.171875 2.511719 L 44.871094 6.628906 L 44.167969 7.335938 L 37.101562 20.15625 L 44.871094 35.09375 L 6.714844 100.257812 L 2.003906 121.429688 L 6.714844 136.371094 L 6.714844 136.957031 L 26.734375 131.195312 L 51.941406 127.898438 L 62.894531 132.605469 C 64.941406 133.242188 66.828125 133.78125 68.546875 134.253906 C 73.066406 135.71875 77.660156 136.894531 82.324219 137.78125 C 86.816406 139.316406 91.136719 141.238281 95.28125 143.542969 L 111.417969 155.308594 L 111.417969 151.425781 L 121.191406 150.71875 L 123.078125 162.480469 C 123.078125 163.34375 129.121094 163.777344 141.214844 163.777344 L 159.234375 163.777344 L 162.53125 167.070312 L 169.007812 163.777344 L 181.964844 162.480469 L 192.917969 156.71875 L 187.734375 153.425781 L 189.03125 145.074219 L 194.800781 145.074219 L 199.394531 151.542969 L 208.464844 145.425781 L 211.054688 134.371094 L 212.941406 130.488281 L 210.347656 121.429688 L 215.53125 117.550781 L 221.417969 109.902344 L 224.601562 102.140625 L 207.285156 102.140625 L 191.035156 96.257812 L 134.734375 67.914062 L 61.007812 19.453125 L 50.644531 8.511719 L 48.054688 2.632812 M 369.464844 155.070312 L 372.644531 141.546875 L 307.984375 126.019531 L 264.644531 109.90625 L 242.738281 107.90625 L 231.078125 113.082031 L 222.007812 122.726562 L 224.601562 130.488281 L 216.828125 145.425781 L 209.761719 152.484375 L 207.757812 165.421875 L 231.667969 190.59375 L 245.328125 197.652344 L 249.214844 208.003906 L 265.351562 214.472656 L 271.828125 203.53125 L 278.894531 179.65625 L 302.804688 166.011719 L 309.28125 168.011719 L 323.53125 176.363281 L 333.1875 173.773438 Z M 369.464844 155.070312 " fill-opacity="1" fill-rule="nonzero"/><g clip-path="url(#f5102e874b)"><path fill="#000000" d="M 265.351562 216.824219 C 265.046875 216.828125 264.757812 216.773438 264.480469 216.660156 L 248.34375 210.191406 C 247.691406 209.933594 247.246094 209.480469 247 208.824219 L 243.445312 199.414062 L 230.582031 192.78125 C 230.34375 192.660156 230.132812 192.503906 229.945312 192.3125 L 206.039062 167.140625 C 205.511719 166.582031 205.308594 165.921875 205.425781 165.164062 L 207.429688 152.226562 C 207.503906 151.714844 207.722656 151.273438 208.085938 150.90625 L 214.894531 144.109375 L 221.960938 130.371094 L 219.605469 123.570312 C 219.46875 123.160156 219.449219 122.746094 219.539062 122.324219 C 219.632812 121.902344 219.828125 121.535156 220.125 121.21875 L 229.191406 111.574219 C 229.402344 111.335938 229.65625 111.15625 229.945312 111.03125 L 241.605469 105.859375 C 241.980469 105.691406 242.375 105.621094 242.785156 105.644531 L 264.691406 107.644531 C 264.902344 107.667969 265.105469 107.714844 265.304688 107.785156 L 308.574219 123.761719 L 373.09375 139.261719 C 373.394531 139.335938 373.671875 139.464844 373.921875 139.644531 C 374.175781 139.828125 374.382812 140.050781 374.546875 140.316406 C 374.710938 140.578125 374.816406 140.867188 374.867188 141.171875 C 374.917969 141.480469 374.90625 141.785156 374.835938 142.085938 L 371.65625 155.613281 C 371.492188 156.3125 371.09375 156.832031 370.453125 157.164062 L 334.179688 175.984375 L 333.707031 176.171875 L 324.050781 178.761719 C 323.410156 178.929688 322.804688 178.84375 322.238281 178.503906 L 308.222656 170.292969 L 302.992188 168.667969 L 280.800781 181.347656 L 274.089844 204.238281 C 274.035156 204.429688 273.957031 204.609375 273.855469 204.78125 L 267.375 215.71875 C 267.15625 216.066406 266.867188 216.339844 266.507812 216.535156 C 266.148438 216.734375 265.761719 216.828125 265.351562 216.824219 Z M 251.050781 206.214844 L 264.359375 211.53125 L 269.660156 202.589844 L 276.726562 179.066406 C 276.902344 178.457031 277.261719 177.996094 277.8125 177.679688 L 301.71875 164.035156 C 302.320312 163.695312 302.949219 163.632812 303.605469 163.847656 L 310.082031 165.824219 L 310.578125 166.058594 L 323.980469 173.914062 L 332.4375 171.5625 L 367.460938 153.472656 L 369.816406 143.285156 L 307.445312 128.300781 L 307.160156 128.300781 L 264.125 112.28125 L 243.136719 110.375 L 232.46875 115.078125 L 224.695312 123.359375 L 226.835938 129.78125 C 227.035156 130.414062 226.988281 131.023438 226.695312 131.617188 L 218.921875 146.554688 C 218.804688 146.765625 218.660156 146.964844 218.5 147.144531 L 211.996094 153.613281 L 210.277344 164.644531 L 233.125 188.6875 L 246.433594 195.558594 C 246.96875 195.84375 247.34375 196.265625 247.566406 196.828125 Z M 225.140625 211.058594 L 224.742188 211.058594 L 217.085938 209.765625 C 216.597656 209.667969 216.175781 209.445312 215.8125 209.109375 L 210.632812 203.933594 C 210.539062 203.839844 210.460938 203.738281 210.394531 203.625 L 205.214844 196.453125 C 205.074219 196.273438 204.972656 196.078125 204.90625 195.863281 L 201.019531 184.949219 C 200.960938 184.785156 200.921875 184.617188 200.898438 184.445312 C 200.875 184.273438 200.871094 184.101562 200.886719 183.929688 C 200.902344 183.757812 200.9375 183.589844 200.992188 183.421875 C 201.042969 183.257812 201.113281 183.101562 201.203125 182.953125 C 201.289062 182.800781 201.390625 182.664062 201.511719 182.539062 C 201.628906 182.410156 201.761719 182.296875 201.902344 182.199219 C 202.046875 182.101562 202.199219 182.023438 202.359375 181.957031 C 202.519531 181.894531 202.6875 181.847656 202.859375 181.820312 L 210.632812 180.523438 C 211.007812 180.464844 211.378906 180.496094 211.738281 180.617188 C 212.101562 180.738281 212.414062 180.933594 212.679688 181.207031 C 212.949219 181.480469 213.140625 181.800781 213.25 182.164062 C 213.363281 182.53125 213.386719 182.902344 213.316406 183.277344 L 212.941406 185.417969 L 219.132812 188.523438 C 219.3125 188.59375 219.46875 188.695312 219.605469 188.828125 L 227.96875 195.886719 C 228.265625 196.144531 228.484375 196.453125 228.628906 196.820312 C 228.769531 197.1875 228.816406 197.566406 228.769531 197.957031 L 227.472656 209.011719 C 227.394531 209.675781 227.089844 210.210938 226.554688 210.613281 C 226.148438 210.90625 225.691406 211.058594 225.1875 211.0625 Z M 218.617188 205.226562 L 223.09375 205.980469 L 223.941406 198.640625 L 216.875 192.570312 L 209.335938 188.804688 C 208.871094 188.570312 208.523438 188.21875 208.292969 187.753906 C 208.0625 187.289062 207.996094 186.800781 208.085938 186.289062 L 208.085938 185.699219 L 206.390625 185.984375 L 209.21875 193.957031 L 214.09375 200.710938 Z M 162.53125 169.070312 C 161.878906 169.074219 161.320312 168.84375 160.859375 168.386719 L 158.269531 165.777344 L 141.332031 165.777344 C 122.253906 165.777344 120.886719 164.953125 120.839844 162.316406 L 119.332031 152.90625 L 113.890625 153.308594 L 113.890625 155 C 113.886719 155.445312 113.769531 155.855469 113.539062 156.230469 C 113.304688 156.605469 112.992188 156.894531 112.59375 157.09375 C 112.214844 157.277344 111.8125 157.351562 111.390625 157.316406 C 110.96875 157.285156 110.585938 157.144531 110.238281 156.90625 L 94.269531 145.378906 C 90.421875 143.253906 86.429688 141.433594 82.300781 139.921875 C 81.902344 139.921875 80.675781 139.921875 68.167969 136.320312 C 66.449219 135.851562 64.542969 135.3125 62.492188 134.675781 L 51.890625 130.253906 L 27.488281 133.429688 L 7.65625 139.144531 C 6.902344 139.363281 6.210938 139.238281 5.582031 138.769531 C 4.953125 138.296875 4.640625 137.671875 4.640625 136.886719 L 4.640625 136.652344 L 0.140625 122.042969 C 0.046875 121.652344 0.046875 121.257812 0.140625 120.867188 L 4.734375 99.578125 C 4.792969 99.335938 4.886719 99.105469 5.015625 98.894531 L 42.1875 34.859375 L 35.003906 21.074219 C 34.820312 20.730469 34.726562 20.359375 34.726562 19.96875 C 34.726562 19.578125 34.820312 19.207031 35.003906 18.863281 L 42.070312 6.042969 C 42.191406 5.851562 42.324219 5.671875 42.46875 5.5 L 43.105469 4.890625 L 46.214844 1.101562 C 46.476562 0.785156 46.796875 0.550781 47.175781 0.398438 C 47.558594 0.25 47.953125 0.199219 48.359375 0.253906 C 48.765625 0.3125 49.132812 0.460938 49.460938 0.710938 C 49.785156 0.957031 50.03125 1.269531 50.195312 1.644531 L 52.550781 7.148438 L 62.445312 17.59375 L 135.820312 65.820312 L 191.765625 94.046875 L 207.5 99.742188 L 224.503906 99.742188 C 224.699219 99.742188 224.890625 99.761719 225.078125 99.808594 C 225.265625 99.855469 225.445312 99.921875 225.617188 100.015625 C 225.789062 100.105469 225.949219 100.214844 226.09375 100.34375 C 226.234375 100.472656 226.363281 100.617188 226.46875 100.777344 C 226.578125 100.941406 226.667969 101.109375 226.730469 101.292969 C 226.796875 101.476562 226.839844 101.664062 226.859375 101.855469 C 226.878906 102.046875 226.875 102.238281 226.847656 102.433594 C 226.820312 102.625 226.769531 102.808594 226.695312 102.988281 L 223.515625 110.75 C 223.429688 110.945312 223.320312 111.125 223.1875 111.292969 L 217.296875 118.9375 C 217.167969 119.105469 217.015625 119.253906 216.851562 119.382812 L 212.964844 122.300781 L 215.105469 129.804688 C 215.273438 130.378906 215.226562 130.9375 214.964844 131.476562 L 213.199219 135.121094 L 210.65625 145.921875 C 210.511719 146.535156 210.171875 147.011719 209.640625 147.355469 L 200.574219 153.117188 C 200.320312 153.285156 200.042969 153.394531 199.742188 153.453125 C 199.445312 153.511719 199.148438 153.511719 198.847656 153.457031 C 198.550781 153.398438 198.273438 153.289062 198.015625 153.125 C 197.761719 152.960938 197.546875 152.753906 197.371094 152.507812 L 193.484375 147.027344 L 190.960938 147.027344 L 190.210938 151.871094 L 194.09375 154.226562 C 194.265625 154.335938 194.421875 154.46875 194.558594 154.617188 C 194.695312 154.769531 194.8125 154.9375 194.90625 155.117188 C 195 155.300781 195.070312 155.488281 195.113281 155.6875 C 195.160156 155.890625 195.175781 156.089844 195.167969 156.292969 C 195.160156 156.5 195.125 156.699219 195.066406 156.894531 C 195.003906 157.089844 194.921875 157.273438 194.8125 157.445312 C 194.703125 157.621094 194.574219 157.777344 194.425781 157.917969 C 194.277344 158.054688 194.109375 158.175781 193.929688 158.269531 L 183.070312 164.246094 C 182.796875 164.390625 182.507812 164.476562 182.199219 164.503906 L 169.691406 165.773438 L 163.589844 168.855469 C 163.253906 169.011719 162.902344 169.082031 162.53125 169.070312 Z M 125.195312 160.480469 C 130.523438 161.035156 135.863281 161.230469 141.214844 161.070312 L 159.234375 161.070312 C 159.886719 161.066406 160.441406 161.292969 160.90625 161.753906 L 162.980469 163.847656 L 167.949219 161.328125 C 168.210938 161.195312 168.484375 161.109375 168.773438 161.070312 L 181.28125 159.824219 L 188.347656 156.175781 L 186.582031 155.046875 C 186.1875 154.796875 185.890625 154.457031 185.699219 154.03125 C 185.507812 153.601562 185.449219 153.15625 185.519531 152.695312 L 186.816406 144.34375 C 186.859375 144.0625 186.949219 143.800781 187.089844 143.550781 C 187.226562 143.304688 187.402344 143.089844 187.621094 142.90625 C 187.835938 142.722656 188.078125 142.582031 188.34375 142.484375 C 188.613281 142.386719 188.886719 142.339844 189.171875 142.34375 L 194.945312 142.34375 C 195.328125 142.34375 195.6875 142.429688 196.03125 142.601562 C 196.371094 142.777344 196.652344 143.019531 196.875 143.332031 L 200.171875 148.039062 L 206.53125 143.992188 L 208.886719 133.851562 C 208.921875 133.679688 208.976562 133.515625 209.054688 133.359375 L 210.535156 130.300781 L 208.179688 122.089844 C 208.050781 121.625 208.0625 121.160156 208.214844 120.699219 C 208.371094 120.242188 208.640625 119.863281 209.03125 119.574219 L 213.953125 115.878906 L 219.464844 108.820312 L 221.183594 104.585938 L 207.285156 104.585938 C 207.011719 104.585938 206.746094 104.539062 206.484375 104.445312 L 190.234375 98.566406 L 189.972656 98.566406 L 133.792969 70.335938 C 133.710938 70.296875 133.632812 70.25 133.558594 70.195312 L 59.832031 21.757812 L 59.40625 21.402344 L 49.042969 10.464844 C 48.855469 10.261719 48.707031 10.035156 48.59375 9.78125 L 47.558594 7.429688 L 46.804688 8.324219 L 46.664062 8.511719 L 46.191406 8.984375 L 39.878906 20.390625 L 47.085938 34.226562 C 47.296875 34.589844 47.402344 34.980469 47.402344 35.402344 C 47.402344 35.820312 47.296875 36.214844 47.085938 36.578125 L 9.117188 101.433594 L 4.734375 121.761719 L 8.644531 134.441406 L 26.265625 129.359375 L 26.617188 129.359375 L 51.820312 126.066406 C 52.246094 126.011719 52.652344 126.066406 53.046875 126.230469 L 64 130.933594 L 69.347656 132.488281 C 73.675781 133.886719 78.074219 135.03125 82.539062 135.921875 C 83.316406 135.921875 84.351562 135.921875 96.507812 141.921875 L 96.859375 142.132812 L 109.34375 151.144531 C 109.480469 150.667969 109.742188 150.277344 110.125 149.96875 C 110.507812 149.65625 110.949219 149.484375 111.441406 149.449219 L 121.214844 148.742188 C 121.511719 148.722656 121.796875 148.753906 122.078125 148.839844 C 122.363281 148.929688 122.617188 149.0625 122.847656 149.246094 C 123.082031 149.429688 123.269531 149.648438 123.417969 149.902344 C 123.570312 150.15625 123.667969 150.429688 123.710938 150.71875 Z M 125.195312 160.480469 " fill-opacity="1" fill-rule="nonzero"/></g></svg>