<svg xmlns="http://www.w3.org/2000/svg" xmlns:xlink="http://www.w3.org/1999/xlink" width="500" zoomAndPan="magnify" viewBox="0 0 375 225" height="300" preserveAspectRatio="xMidYMid meet" version="1.0"><defs><clipPath id="5384af3eb9"><path d="M 0 0 L 249.75 0 L 249.75 225 L 0 225 Z M 0 0 " clip-rule="nonzero"/></clipPath></defs><path fill="#82378a" d="M 60.851562 94.972656 L 59.792969 104.828125 L 72.480469 114.617188 L 74.660156 122.554688 L 74.660156 126.191406 L 78.292969 129.101562 L 79.351562 132.671875 L 95.671875 131.945312 L 99.304688 134.523438 L 101.15625 132.339844 L 105.847656 134.128906 L 105.847656 137.039062 L 100.757812 142.855469 L 93.160156 143.253906 L 88.800781 141.402344 L 83.710938 145.039062 L 75.78125 145.765625 L 60.585938 145.039062 L 57.347656 143.585938 L 56.953125 139.21875 L 52.589844 137.765625 L 48.230469 140.011719 L 45.71875 149.800781 L 42.417969 146.5625 L 42.8125 139.683594 L 41.359375 137.832031 L 38.121094 135.316406 L 40.234375 132.011719 L 38.121094 130.621094 L 38.121094 126.984375 L 44.597656 126.984375 L 44.992188 123.347656 L 41.359375 118.585938 L 38.453125 113.492188 L 34.089844 101.191406 L 24.644531 97.15625 L 22.460938 98.609375 L 17.441406 100.464844 L 16.316406 107.738281 L 18.960938 112.765625 L 20.414062 120.765625 L 31.976562 129.894531 L 31.648438 137.101562 L 28.738281 137.101562 L 25.4375 142.921875 L 15.195312 149.140625 L 10.832031 149.800781 L 10.105469 146.230469 L 6.804688 145.503906 L 1.78125 150.527344 L 8.257812 157.804688 L 10.105469 156.347656 L 15.523438 158.199219 L 23.125 162.898438 L 29.335938 167.988281 L 28.9375 175.265625 L 33.296875 175.59375 L 37.660156 175.332031 L 38.78125 165.542969 L 55.433594 165.542969 L 62.699219 176.058594 L 65.609375 182.9375 L 66.664062 190.542969 L 70.695312 188.292969 L 81.929688 190.144531 L 96.066406 201.058594 L 109.875 205.753906 L 109.875 216.667969 L 108.027344 221.03125 L 116.351562 223.546875 L 123.289062 222.488281 C 124.753906 221.019531 126.074219 219.433594 127.253906 217.726562 C 128.816406 215.894531 130.511719 214.195312 132.339844 212.632812 C 133.039062 212.136719 134.84375 210.574219 137.757812 207.9375 L 143.242188 207.539062 C 146.640625 207.050781 148.6875 206.945312 149.386719 207.210938 C 150.589844 208.042969 151.671875 209.011719 152.625 210.117188 C 153.71875 211.332031 154.929688 212.414062 156.257812 213.359375 C 157.492188 213.625 160.882812 214.242188 166.433594 215.210938 L 185.660156 214.085938 L 191.804688 211.574219 L 201.652344 211.90625 C 203.433594 212.402344 205.238281 212.777344 207.070312 213.027344 L 214.667969 211.90625 L 219.753906 209.722656 L 223.058594 205.753906 L 225.898438 198.148438 L 228.082031 195.964844 L 233.894531 198.148438 C 235.59375 198.628906 237.179688 199.355469 238.652344 200.332031 C 239.257812 200.675781 239.90625 200.875 240.597656 200.933594 C 241.289062 200.992188 241.964844 200.902344 242.617188 200.660156 L 243.34375 199.933594 C 243.4375 199.949219 243.523438 199.921875 243.589844 199.851562 C 243.660156 199.78125 243.6875 199.699219 243.671875 199.601562 L 248.035156 189.417969 L 247.308594 183.265625 L 243.34375 176.324219 L 230.988281 167.988281 L 225.171875 166.535156 L 210.304688 165.476562 L 205.21875 154.167969 L 182.425781 150.925781 L 181.300781 162.566406 L 178.394531 166.535156 L 173.703125 163.625 L 166.433594 153.109375 L 164.253906 147.683594 L 158.109375 143.652344 L 149.71875 141.863281 L 143.242188 137.5 L 133.398438 127.710938 L 117.804688 123.742188 C 116.128906 120.132812 114.671875 117.832031 113.445312 116.863281 C 112.957031 116.375 112.851562 115.171875 113.113281 113.226562 L 114.171875 110.714844 L 112.386719 105.226562 L 109.480469 99.40625 L 104.0625 93.253906 L 102.9375 86.707031 L 106.574219 82.738281 L 111.660156 75.066406 L 137.757812 70.304688 L 145.753906 65.609375 L 150.445312 57.9375 L 150.113281 51.785156 L 148.332031 47.089844 L 147.207031 24.207031 L 145.753906 20.570312 L 141.0625 15.144531 L 140.335938 7.472656 L 139.609375 8.929688 L 119.65625 3.109375 L 116.019531 1.324219 L 112.058594 3.109375 L 105.121094 5.292969 L 93.886719 12.964844 L 89.195312 12.964844 L 82.257812 16.203125 L 78.292969 20.238281 L 71.027344 23.480469 L 72.875 25.660156 L 72.480469 29.300781 L 75.386719 30.753906 L 81.199219 35.847656 L 82.65625 40.144531 L 81.53125 46.691406 L 74.328125 50 L 73.207031 53.242188 L 72.875 56.152344 L 73.207031 59.789062 L 76.113281 63.425781 L 89.195312 63.425781 L 100.03125 71.757812 L 98.972656 76.125 L 91.375 78.308594 L 81.265625 82.738281 L 82.324219 84.921875 L 82.324219 90.011719 L 79.8125 94.3125 L 69.308594 91.070312 L 66.402344 91.800781 Z M 60.851562 94.972656 " fill-opacity="1" fill-rule="nonzero"/><g clip-path="url(#5384af3eb9)"><path fill="#000000" d="M 116.351562 224.867188 C 116.222656 224.886719 116.097656 224.886719 115.96875 224.867188 L 107.644531 222.355469 C 107.261719 222.238281 106.988281 222 106.824219 221.640625 C 106.664062 221.28125 106.664062 220.925781 106.824219 220.570312 L 108.566406 216.453125 L 108.566406 206.757812 L 95.65625 202.367188 C 95.519531 202.320312 95.390625 202.25 95.273438 202.15625 L 81.398438 191.453125 L 70.933594 189.722656 L 67.3125 191.691406 C 66.902344 191.910156 66.492188 191.910156 66.082031 191.691406 C 65.671875 191.488281 65.4375 191.15625 65.371094 190.699219 L 64.339844 183.265625 L 61.550781 176.652344 L 54.757812 166.824219 L 39.957031 166.824219 L 38.96875 175.4375 C 38.933594 175.75 38.804688 176.019531 38.578125 176.242188 C 38.351562 176.464844 38.082031 176.585938 37.765625 176.613281 L 33.402344 176.945312 L 33.191406 176.945312 L 28.832031 176.613281 C 28.660156 176.601562 28.496094 176.554688 28.34375 176.476562 C 28.1875 176.398438 28.054688 176.296875 27.941406 176.167969 C 27.828125 176.039062 27.742188 175.890625 27.6875 175.726562 C 27.628906 175.566406 27.605469 175.398438 27.617188 175.226562 L 27.972656 168.609375 L 22.355469 164.007812 L 14.957031 159.429688 L 10.359375 157.855469 L 9.035156 158.875 C 8.90625 158.980469 8.757812 159.058594 8.59375 159.105469 C 8.433594 159.15625 8.269531 159.171875 8.101562 159.15625 C 7.929688 159.144531 7.773438 159.097656 7.621094 159.019531 C 7.46875 158.945312 7.339844 158.84375 7.226562 158.71875 L 0.75 151.441406 C 0.632812 151.320312 0.542969 151.179688 0.480469 151.019531 C 0.417969 150.863281 0.386719 150.699219 0.386719 150.527344 C 0.386719 150.359375 0.417969 150.195312 0.480469 150.039062 C 0.542969 149.878906 0.632812 149.738281 0.75 149.617188 L 5.773438 144.589844 C 6.113281 144.25 6.519531 144.128906 6.988281 144.234375 L 10.292969 144.960938 C 10.550781 145.015625 10.769531 145.136719 10.953125 145.324219 C 11.140625 145.511719 11.257812 145.734375 11.308594 145.992188 L 11.785156 148.332031 L 14.640625 147.898438 L 24.234375 141.996094 L 27.367188 136.480469 C 27.617188 136.03125 28 135.808594 28.515625 135.808594 L 30.167969 135.808594 L 30.40625 130.515625 L 19.371094 121.8125 C 19.109375 121.601562 18.953125 121.335938 18.894531 121.003906 L 17.558594 113.160156 L 15.074219 108.320312 C 14.945312 108.066406 14.898438 107.796875 14.945312 107.511719 L 16.066406 100.238281 C 16.144531 99.722656 16.425781 99.375 16.914062 99.191406 L 21.800781 97.421875 L 23.863281 96.097656 C 24.257812 95.835938 24.671875 95.796875 25.105469 95.980469 L 34.554688 99.945312 C 34.910156 100.101562 35.152344 100.359375 35.28125 100.726562 L 39.601562 112.910156 L 42.402344 117.832031 L 45.984375 122.511719 C 46.199219 122.796875 46.289062 123.113281 46.25 123.464844 L 45.851562 127.101562 C 45.816406 127.441406 45.671875 127.71875 45.417969 127.945312 C 45.164062 128.171875 44.871094 128.28125 44.53125 128.28125 L 39.378906 128.28125 L 39.378906 129.882812 L 40.898438 130.871094 C 41.042969 130.96875 41.164062 131.089844 41.261719 131.234375 C 41.363281 131.378906 41.429688 131.535156 41.464844 131.707031 C 41.5 131.878906 41.503906 132.050781 41.46875 132.222656 C 41.4375 132.394531 41.375 132.550781 41.28125 132.699219 L 39.8125 134.988281 L 42.097656 136.757812 C 42.1875 136.824219 42.265625 136.898438 42.335938 136.984375 L 43.789062 138.835938 C 43.996094 139.101562 44.089844 139.398438 44.070312 139.734375 L 43.699219 146.003906 L 44.941406 147.222656 L 46.882812 139.65625 C 46.984375 139.269531 47.214844 138.988281 47.570312 138.808594 L 51.929688 136.613281 C 52.261719 136.460938 52.601562 136.441406 52.949219 136.546875 L 57.308594 138.003906 C 57.558594 138.085938 57.765625 138.230469 57.929688 138.4375 C 58.089844 138.644531 58.183594 138.878906 58.207031 139.140625 L 58.523438 142.738281 L 60.835938 143.769531 L 75.691406 144.484375 L 83.234375 143.796875 L 88.03125 140.371094 C 88.445312 140.066406 88.886719 140.015625 89.355469 140.226562 L 93.4375 141.957031 L 100.175781 141.601562 L 104.5625 136.574219 L 104.5625 135.078125 L 101.589844 133.957031 L 100.347656 135.421875 C 100.242188 135.550781 100.117188 135.652344 99.972656 135.730469 C 99.824219 135.808594 99.671875 135.859375 99.507812 135.878906 C 99.34375 135.902344 99.179688 135.890625 99.019531 135.851562 C 98.859375 135.8125 98.714844 135.742188 98.578125 135.648438 L 95.3125 133.320312 L 79.457031 134.035156 C 79.152344 134.046875 78.878906 133.964844 78.632812 133.785156 C 78.386719 133.609375 78.21875 133.375 78.136719 133.082031 L 77.195312 129.90625 L 73.894531 127.261719 C 73.5625 127 73.394531 126.65625 73.390625 126.230469 L 73.390625 122.765625 L 71.371094 115.371094 L 59.039062 105.847656 C 58.652344 105.542969 58.484375 105.148438 58.539062 104.65625 L 59.59375 94.800781 C 59.644531 94.367188 59.855469 94.035156 60.230469 93.808594 L 65.714844 90.570312 C 65.824219 90.5 65.941406 90.449219 66.070312 90.421875 L 68.976562 89.695312 C 69.210938 89.632812 69.445312 89.632812 69.679688 89.695312 L 79.191406 92.632812 L 80.988281 89.550781 L 80.988281 85.121094 L 80.066406 83.214844 C 79.984375 83.050781 79.941406 82.878906 79.933594 82.695312 C 79.921875 82.515625 79.953125 82.339844 80.015625 82.167969 C 80.078125 82 80.171875 81.847656 80.300781 81.71875 C 80.425781 81.585938 80.570312 81.484375 80.738281 81.414062 L 90.914062 77.050781 L 91.058594 77.050781 L 97.917969 75.078125 L 98.605469 72.300781 L 88.800781 64.761719 L 76.113281 64.761719 C 75.6875 64.761719 75.347656 64.59375 75.082031 64.257812 L 72.175781 60.621094 C 72.007812 60.417969 71.910156 60.183594 71.886719 59.921875 L 71.554688 56.28125 C 71.546875 56.195312 71.546875 56.105469 71.554688 56.019531 L 71.886719 53.109375 C 71.886719 53.007812 71.910156 52.910156 71.949219 52.816406 L 73.074219 49.578125 C 73.195312 49.222656 73.425781 48.96875 73.761719 48.808594 L 80.367188 45.792969 L 81.320312 40.265625 L 80.089844 36.628906 L 74.671875 31.878906 L 71.910156 30.488281 C 71.667969 30.363281 71.480469 30.179688 71.347656 29.941406 C 71.21875 29.699219 71.167969 29.441406 71.199219 29.167969 L 71.527344 26.097656 L 70.046875 24.351562 C 69.914062 24.195312 69.820312 24.011719 69.769531 23.8125 C 69.722656 23.609375 69.71875 23.40625 69.765625 23.203125 C 69.808594 23 69.898438 22.820312 70.03125 22.660156 C 70.160156 22.496094 70.320312 22.375 70.511719 22.289062 L 77.554688 19.140625 L 81.265625 15.277344 C 81.375 15.15625 81.503906 15.066406 81.648438 15 L 88.589844 11.757812 C 88.765625 11.679688 88.949219 11.640625 89.144531 11.640625 L 93.425781 11.640625 L 104.328125 4.191406 C 104.433594 4.125 104.550781 4.074219 104.671875 4.035156 L 111.527344 1.863281 L 115.425781 0.117188 C 115.800781 -0.0585938 116.175781 -0.0585938 116.550781 0.117188 L 120.078125 1.851562 L 138.921875 7.339844 L 139.160156 6.863281 C 139.292969 6.605469 139.488281 6.410156 139.75 6.28125 C 140.011719 6.152344 140.285156 6.113281 140.574219 6.164062 C 140.867188 6.214844 141.113281 6.351562 141.3125 6.570312 C 141.515625 6.789062 141.628906 7.046875 141.65625 7.339844 L 142.34375 14.589844 L 146.757812 19.695312 C 146.855469 19.808594 146.929688 19.929688 146.984375 20.066406 L 148.4375 23.703125 C 148.488281 23.839844 148.519531 23.980469 148.527344 24.128906 L 149.640625 46.800781 L 151.34375 51.296875 C 151.394531 51.429688 151.425781 51.566406 151.4375 51.707031 L 151.765625 57.855469 C 151.777344 58.128906 151.710938 58.378906 151.566406 58.609375 L 146.878906 66.28125 C 146.769531 66.472656 146.617188 66.625 146.429688 66.734375 L 138.433594 71.429688 C 138.296875 71.507812 138.152344 71.558594 137.996094 71.585938 L 112.453125 76.257812 L 107.667969 83.398438 L 107.550781 83.558594 L 104.351562 87.035156 L 105.304688 92.578125 L 110.472656 98.453125 C 110.550781 98.535156 110.613281 98.625 110.65625 98.730469 L 113.5625 104.550781 C 113.601562 104.605469 113.628906 104.667969 113.644531 104.734375 L 115.425781 110.226562 C 115.542969 110.535156 115.542969 110.84375 115.425781 111.152344 L 114.4375 113.492188 C 114.257812 114.28125 114.257812 115.070312 114.4375 115.859375 C 116.3125 117.804688 117.757812 120.03125 118.769531 122.539062 L 133.730469 126.390625 C 133.957031 126.453125 134.152344 126.570312 134.324219 126.734375 L 144.089844 136.429688 L 150.246094 140.582031 L 158.386719 142.316406 C 158.542969 142.355469 158.695312 142.417969 158.835938 142.5 L 164.980469 146.535156 C 165.207031 146.691406 165.375 146.902344 165.484375 147.15625 L 167.609375 152.445312 L 174.628906 162.617188 L 178.050781 164.734375 L 180.019531 162.089844 L 181.101562 150.808594 C 181.140625 150.429688 181.308594 150.125 181.605469 149.894531 C 181.902344 149.664062 182.238281 149.574219 182.609375 149.628906 L 205.402344 152.84375 C 205.882812 152.914062 206.222656 153.167969 206.421875 153.609375 L 211.191406 164.191406 L 225.265625 165.199219 L 225.488281 165.199219 L 231.304688 166.652344 C 231.453125 166.695312 231.597656 166.753906 231.726562 166.839844 L 244.082031 175.171875 C 244.25 175.289062 244.386719 175.433594 244.492188 175.609375 L 248.457031 182.554688 C 248.542969 182.710938 248.59375 182.878906 248.617188 183.054688 L 249.34375 189.207031 C 249.371094 189.4375 249.339844 189.664062 249.25 189.882812 L 244.96875 199.894531 C 244.867188 200.460938 244.550781 200.855469 244.015625 201.070312 L 243.554688 201.546875 C 243.425781 201.667969 243.28125 201.765625 243.117188 201.839844 C 242.289062 202.148438 241.433594 202.269531 240.554688 202.207031 C 239.671875 202.140625 238.84375 201.894531 238.070312 201.46875 C 238.015625 201.445312 237.96875 201.414062 237.925781 201.375 C 236.566406 200.480469 235.105469 199.808594 233.539062 199.363281 L 228.410156 197.445312 L 227.089844 198.769531 L 224.355469 206.109375 C 224.300781 206.25 224.222656 206.378906 224.128906 206.496094 L 220.824219 210.464844 C 220.6875 210.628906 220.519531 210.75 220.324219 210.832031 L 215.234375 213.015625 C 215.132812 213.058594 215.027344 213.089844 214.917969 213.109375 L 207.320312 214.234375 L 206.804688 214.234375 C 204.964844 213.976562 203.152344 213.601562 201.359375 213.109375 L 191.992188 212.804688 L 186.109375 215.210938 C 185.972656 215.261719 185.832031 215.292969 185.6875 215.304688 L 166.460938 216.429688 C 166.359375 216.441406 166.257812 216.441406 166.15625 216.429688 C 160.621094 215.464844 157.183594 214.839844 155.929688 214.578125 L 155.664062 214.484375 C 155.164062 214.257812 154.34375 213.675781 151.632812 210.980469 C 150.769531 210.03125 149.847656 209.148438 148.859375 208.332031 C 148.714844 208.332031 147.761719 208.109375 143.375 208.730469 L 138.261719 209.101562 C 135.472656 211.628906 133.769531 213.070312 133.042969 213.597656 L 132.921875 213.675781 C 131.25 215.15625 129.6875 216.746094 128.230469 218.4375 C 127.023438 220.179688 125.671875 221.804688 124.175781 223.308594 C 123.96875 223.511719 123.722656 223.636719 123.433594 223.675781 L 116.496094 224.734375 Z M 109.824219 220.183594 L 116.429688 222.195312 L 122.640625 221.242188 C 123.9375 219.921875 125.109375 218.496094 126.15625 216.972656 C 126.183594 216.914062 126.226562 216.863281 126.277344 216.824219 C 130.238281 212.59375 131.152344 211.800781 131.5625 211.535156 C 131.972656 211.269531 133.359375 210.105469 136.847656 206.972656 C 137.070312 206.765625 137.335938 206.648438 137.640625 206.625 L 143.125 206.230469 C 147.3125 205.636719 148.820312 205.699219 149.585938 205.898438 C 150.089844 205.898438 150.65625 206.324219 153.550781 209.191406 C 154.53125 210.253906 155.585938 211.226562 156.722656 212.117188 C 158.042969 212.394531 161.359375 213.003906 166.5 213.890625 L 185.359375 212.789062 L 191.289062 210.355469 C 191.464844 210.289062 191.644531 210.257812 191.832031 210.265625 L 201.675781 210.59375 C 201.824219 210.59375 201.964844 210.621094 202.101562 210.675781 C 203.730469 211.140625 205.386719 211.484375 207.070312 211.707031 L 214.296875 210.636719 L 218.9375 208.652344 L 221.882812 205.09375 L 224.644531 197.699219 C 224.710938 197.519531 224.8125 197.359375 224.949219 197.222656 L 227.128906 195.039062 C 227.3125 194.855469 227.53125 194.734375 227.785156 194.679688 C 228.039062 194.625 228.285156 194.644531 228.53125 194.734375 L 234.34375 196.917969 C 236.109375 197.417969 237.757812 198.175781 239.285156 199.191406 C 240.121094 199.660156 241.003906 199.773438 241.929688 199.535156 L 242.445312 199.007812 L 242.589844 198.890625 L 246.726562 189.234375 L 246.066406 183.703125 L 242.390625 177.261719 L 230.5 169.234375 L 225.015625 167.910156 L 210.265625 166.863281 C 210.023438 166.847656 209.804688 166.769531 209.605469 166.628906 C 209.40625 166.488281 209.257812 166.308594 209.15625 166.085938 L 204.359375 155.503906 L 183.652344 152.566406 L 182.675781 162.832031 C 182.648438 163.070312 182.5625 163.285156 182.425781 163.480469 L 179.515625 167.445312 C 179.417969 167.582031 179.300781 167.695312 179.15625 167.785156 C 179.015625 167.875 178.863281 167.9375 178.699219 167.96875 C 178.535156 168 178.371094 168 178.207031 167.96875 C 178.042969 167.941406 177.886719 167.878906 177.746094 167.792969 L 173.054688 164.882812 C 172.90625 164.78125 172.777344 164.65625 172.671875 164.511719 L 165.402344 153.929688 C 165.347656 153.84375 165.300781 153.757812 165.257812 153.664062 L 163.195312 148.558594 L 157.59375 144.90625 L 149.441406 143.175781 C 149.277344 143.132812 149.121094 143.066406 148.976562 142.976562 L 142.503906 138.609375 L 142.316406 138.453125 L 132.722656 128.914062 L 117.476562 124.945312 C 117.070312 124.84375 116.777344 124.601562 116.601562 124.21875 C 114.648438 119.972656 113.351562 118.398438 112.636719 117.832031 L 112.519531 117.726562 C 111.699219 116.890625 111.488281 115.4375 111.820312 112.964844 C 111.832031 112.847656 111.863281 112.738281 111.910156 112.632812 L 112.769531 110.582031 L 111.171875 105.648438 L 108.382812 100.066406 L 103.097656 94.046875 C 102.9375 93.859375 102.832031 93.640625 102.78125 93.398438 L 101.65625 86.851562 C 101.582031 86.421875 101.691406 86.046875 101.988281 85.726562 L 105.554688 81.839844 L 110.589844 74.3125 C 110.796875 74.007812 111.085938 73.820312 111.449219 73.757812 L 137.324219 69.035156 L 144.828125 64.617188 L 149.125 57.578125 L 148.832031 52.050781 L 147.128906 47.554688 C 147.078125 47.421875 147.046875 47.285156 147.035156 47.144531 L 145.898438 24.535156 L 144.578125 21.308594 L 140.03125 16.019531 C 139.847656 15.804688 139.742188 15.558594 139.714844 15.277344 L 139.238281 10.226562 L 119.285156 4.40625 L 119.074219 4.324219 L 115.996094 2.804688 L 112.597656 4.339844 L 112.453125 4.339844 L 105.699219 6.46875 L 94.628906 14.035156 C 94.402344 14.183594 94.15625 14.261719 93.886719 14.257812 L 89.488281 14.257812 L 83.039062 17.273438 L 79.230469 21.136719 C 79.121094 21.257812 78.988281 21.351562 78.835938 21.414062 L 73.179688 23.941406 L 73.878906 24.773438 C 74.125 25.066406 74.226562 25.402344 74.183594 25.78125 L 73.894531 28.503906 L 75.980469 29.550781 C 76.082031 29.597656 76.175781 29.660156 76.257812 29.734375 L 82.074219 34.828125 C 82.25 34.984375 82.378906 35.171875 82.457031 35.398438 L 83.910156 39.695312 C 83.957031 39.910156 83.957031 40.128906 83.910156 40.34375 L 82.785156 46.890625 C 82.707031 47.351562 82.457031 47.675781 82.035156 47.871094 L 75.386719 50.992188 L 74.5 53.558594 L 74.210938 56.203125 L 74.488281 59.3125 L 76.746094 62.144531 L 89.195312 62.144531 C 89.496094 62.144531 89.765625 62.238281 90.003906 62.421875 L 100.835938 70.753906 C 101.039062 70.910156 101.179688 71.109375 101.265625 71.347656 C 101.351562 71.585938 101.367188 71.828125 101.3125 72.078125 L 100.257812 76.441406 C 100.136719 76.933594 99.832031 77.25 99.34375 77.394531 L 91.839844 79.550781 L 83.011719 83.347656 L 83.460938 84.273438 C 83.550781 84.457031 83.59375 84.648438 83.59375 84.855469 L 83.59375 89.945312 C 83.589844 90.183594 83.527344 90.40625 83.40625 90.609375 L 80.898438 94.90625 C 80.746094 95.171875 80.527344 95.363281 80.242188 95.476562 C 79.960938 95.589844 79.671875 95.601562 79.378906 95.515625 L 69.214844 92.382812 L 66.851562 92.964844 L 62.105469 95.78125 L 61.195312 104.234375 L 73.300781 113.570312 C 73.53125 113.753906 73.683594 113.988281 73.761719 114.273438 L 75.941406 122.273438 C 75.960938 122.390625 75.960938 122.503906 75.941406 122.617188 L 75.941406 125.621094 L 79.074219 128.136719 C 79.292969 128.308594 79.441406 128.527344 79.523438 128.796875 L 80.289062 131.375 L 95.578125 130.6875 C 95.878906 130.675781 96.152344 130.753906 96.398438 130.925781 L 99.039062 132.804688 L 100.109375 131.480469 C 100.292969 131.269531 100.519531 131.128906 100.792969 131.0625 C 101.0625 130.992188 101.332031 131.007812 101.589844 131.109375 L 106.375 133.003906 C 106.632812 133.101562 106.835938 133.265625 106.992188 133.492188 C 107.144531 133.71875 107.222656 133.972656 107.21875 134.246094 L 107.21875 137.15625 C 107.21875 137.488281 107.109375 137.78125 106.890625 138.027344 L 101.800781 143.847656 C 101.558594 144.128906 101.25 144.28125 100.878906 144.300781 L 93.277344 144.695312 C 93.078125 144.703125 92.882812 144.667969 92.699219 144.589844 L 89.023438 143.027344 L 84.53125 146.230469 C 84.339844 146.371094 84.121094 146.457031 83.882812 146.480469 L 75.890625 147.210938 L 75.703125 147.210938 L 60.507812 146.480469 C 60.34375 146.46875 60.183594 146.429688 60.03125 146.363281 L 56.792969 144.90625 C 56.324219 144.699219 56.0625 144.335938 56.015625 143.824219 L 55.695312 140.316406 L 52.683594 139.3125 L 49.300781 140.9375 L 46.910156 150.199219 C 46.78125 150.6875 46.472656 151.003906 45.984375 151.136719 C 45.75 151.210938 45.515625 151.214844 45.277344 151.15625 C 45.039062 151.097656 44.835938 150.980469 44.664062 150.808594 L 41.359375 147.566406 C 41.074219 147.285156 40.941406 146.945312 40.964844 146.546875 L 41.332031 140.171875 L 40.289062 138.847656 L 37.183594 136.441406 C 37.054688 136.339844 36.945312 136.21875 36.859375 136.078125 C 36.773438 135.9375 36.71875 135.785156 36.691406 135.621094 C 36.664062 135.457031 36.664062 135.296875 36.695312 135.132812 C 36.730469 134.972656 36.789062 134.820312 36.878906 134.683594 L 38.28125 132.472656 L 37.261719 131.8125 C 36.863281 131.550781 36.664062 131.179688 36.667969 130.699219 L 36.667969 127.0625 C 36.667969 126.886719 36.703125 126.71875 36.769531 126.558594 C 36.835938 126.394531 36.929688 126.253906 37.054688 126.128906 C 37.179688 126.003906 37.320312 125.910156 37.484375 125.839844 C 37.644531 125.773438 37.816406 125.742188 37.988281 125.742188 L 43.277344 125.742188 L 43.488281 123.808594 L 40.183594 119.472656 L 40.078125 119.324219 L 37.171875 114.234375 C 37.132812 114.160156 37.101562 114.085938 37.078125 114.007812 L 32.902344 102.261719 L 24.722656 98.609375 L 23.125 99.667969 C 23.042969 99.730469 22.953125 99.777344 22.859375 99.816406 L 18.5625 101.390625 L 17.625 107.472656 L 20.003906 112.117188 C 20.0625 112.234375 20.105469 112.355469 20.125 112.488281 L 21.445312 120 L 32.613281 128.808594 C 32.972656 129.09375 33.136719 129.464844 33.113281 129.921875 L 32.785156 137.128906 C 32.78125 137.304688 32.75 137.472656 32.683594 137.636719 C 32.617188 137.796875 32.519531 137.941406 32.394531 138.066406 C 32.273438 138.1875 32.128906 138.285156 31.96875 138.351562 C 31.804688 138.417969 31.636719 138.453125 31.460938 138.453125 L 29.320312 138.453125 L 26.453125 143.585938 C 26.34375 143.785156 26.191406 143.945312 25.992188 144.0625 L 15.882812 150.277344 C 15.730469 150.371094 15.566406 150.433594 15.394531 150.464844 L 11.03125 151.125 C 10.863281 151.148438 10.699219 151.144531 10.53125 151.105469 C 10.367188 151.066406 10.214844 150.996094 10.078125 150.902344 C 9.9375 150.804688 9.820312 150.683594 9.730469 150.542969 C 9.636719 150.398438 9.574219 150.246094 9.539062 150.078125 L 8.984375 147.355469 L 7.226562 146.972656 L 3.59375 150.59375 L 8.414062 156.003906 L 9.289062 155.316406 C 9.664062 155.023438 10.078125 154.953125 10.53125 155.105469 L 15.949219 156.957031 L 16.226562 157.089844 L 23.824219 161.785156 L 23.957031 161.890625 L 30.167969 166.984375 C 30.511719 167.261719 30.675781 167.625 30.65625 168.070312 L 30.324219 174.0625 L 33.296875 174.285156 L 36.46875 174.046875 L 37.472656 165.34375 C 37.511719 165.007812 37.65625 164.726562 37.910156 164.5 C 38.160156 164.277344 38.457031 164.164062 38.796875 164.167969 L 55.445312 164.167969 C 55.90625 164.167969 56.265625 164.355469 56.53125 164.734375 L 63.796875 175.25 C 63.847656 175.328125 63.890625 175.40625 63.929688 175.488281 L 66.835938 182.367188 C 66.878906 182.472656 66.910156 182.585938 66.929688 182.699219 L 67.722656 188.414062 L 70.074219 187.089844 C 70.339844 186.953125 70.625 186.90625 70.921875 186.945312 L 82.152344 188.796875 C 82.375 188.835938 82.570312 188.921875 82.746094 189.0625 L 96.714844 199.839844 L 110.339844 204.496094 C 110.609375 204.589844 110.824219 204.75 110.992188 204.980469 C 111.15625 205.210938 111.238281 205.46875 111.238281 205.753906 L 111.238281 216.667969 C 111.238281 216.847656 111.203125 217.019531 111.132812 217.183594 Z M 109.824219 220.183594 " fill-opacity="1" fill-rule="nonzero"/></g></svg>