<svg xmlns="http://www.w3.org/2000/svg" xmlns:xlink="http://www.w3.org/1999/xlink" width="500" zoomAndPan="magnify" viewBox="0 0 375 225" height="300" preserveAspectRatio="xMidYMid meet" version="1.0"><path fill="#82378a" d="M 188.675781 39.871094 L 186.609375 29.386719 L 184.464844 24.335938 L 173.976562 24.335938 L 171.070312 26.480469 L 163.109375 18.445312 L 155.992188 13.851562 L 149.253906 16.761719 L 145.886719 14.695312 L 136.242188 14.695312 C 134.6875 15.695312 133.003906 16.386719 131.191406 16.761719 C 130.316406 17.273438 129.472656 17.832031 128.664062 18.445312 C 128 18.914062 127.308594 19.351562 126.597656 19.746094 L 119.863281 22.652344 L 98.429688 21.8125 L 92.535156 18.902344 L 74.777344 18.902344 L 71.027344 15.535156 L 60.082031 7.960938 L 41.710938 1.683594 L 33.671875 3.367188 L 30.765625 7.117188 L 26.476562 18.136719 L 27.320312 21.503906 L 27.703125 21.046875 L 31.53125 21.503906 L 31.53125 27.320312 L 25.175781 33.980469 L 29.003906 38.570312 L 35.28125 40.636719 L 39.949219 47.371094 L 52.121094 47.832031 L 52.960938 55.789062 L 44.082031 64.59375 L 43.699219 73.851562 L 38.648438 75.078125 L 35.28125 79.746094 L 31.070312 79.285156 L 28.160156 74.695312 L 22.269531 71.402344 L 17.214844 70.179688 L 10.9375 71.863281 L 2.058594 78.980469 L 3.363281 82.730469 L 2.902344 90.304688 L 5.046875 94.515625 L 10.097656 94.515625 L 11.320312 87.78125 L 17.214844 83.570312 L 20.582031 86.9375 L 23.492188 86.9375 L 29.847656 88.238281 L 34.4375 93.289062 L 39.949219 93.289062 L 44.925781 91.605469 L 54.644531 94.515625 L 71.410156 94.515625 L 86.949219 92.449219 L 102.5625 92.449219 L 117.640625 94.515625 L 146.652344 92.832031 L 146.652344 99.566406 L 137.847656 100.789062 L 126.0625 108.828125 L 116.417969 111.351562 L 114.273438 109.210938 L 107.613281 109.210938 L 104.246094 111.734375 L 106.773438 115.101562 L 107.15625 119.3125 L 100.878906 122.21875 L 106.773438 127.269531 L 106.773438 132.78125 L 100.035156 133.621094 L 81.511719 129.414062 L 70.183594 129.414062 L 61.765625 131.480469 L 50.820312 130.253906 L 46.609375 132.78125 L 38.265625 134.464844 L 23.109375 134.847656 L 21.886719 139.898438 L 17.675781 142.804688 L 20.203125 145.789062 L 31.070312 147.472656 L 36.582031 144.488281 L 44.082031 143.265625 L 51.277344 147.015625 L 53.804688 142.421875 L 56.710938 135.304688 L 65.132812 134.464844 C 68.535156 134.824219 71.902344 135.386719 75.238281 136.148438 L 108.378906 136.988281 L 108.839844 144.105469 L 106.773438 147.855469 L 97.050781 148.699219 L 97.050781 150.84375 L 105.472656 151.222656 L 108.839844 153.367188 L 109.222656 158.417969 L 106.773438 162.550781 L 99.195312 163.394531 L 97.894531 165.917969 L 96.667969 163.394531 L 91.617188 163.394531 L 95.828125 168.902344 L 100.878906 166.378906 L 107.613281 165.917969 L 112.589844 163.394531 L 115.117188 157.578125 L 115.574219 152.066406 L 122.695312 152.066406 L 129.8125 145.332031 L 134.863281 142.804688 L 130.652344 141.582031 L 128.203125 135.304688 L 131.957031 124.746094 L 138.691406 124.746094 L 139.535156 130.636719 L 147.492188 133.621094 L 152.929688 134.847656 L 154.613281 123.902344 L 160.507812 125.203125 L 161.347656 133.621094 L 167.242188 136.988281 L 169.769531 134.464844 L 178.1875 134.464844 L 180.253906 137.832031 L 180.253906 147.472656 L 185.765625 152.527344 L 192.042969 152.910156 L 201.6875 156.277344 L 203.832031 160.867188 L 208.039062 165.078125 L 209.265625 174.335938 L 213.09375 168.0625 L 210.105469 166.378906 L 210.105469 158.722656 L 216.382812 152.832031 L 226.488281 152.449219 L 236.972656 160.789062 L 244.550781 162.472656 L 244.550781 169.210938 L 239.117188 172.195312 L 235.75 178.929688 L 247.917969 183.519531 L 246.234375 190.253906 L 244.246094 212.601562 L 261.851562 223.546875 L 265.679688 221.019531 L 268.203125 215.96875 L 269.429688 207.933594 L 271.113281 202.960938 L 278.308594 202.5 L 283.28125 198.75 C 289.757812 195.382812 293.417969 193.269531 294.230469 192.398438 L 308.925781 179.386719 L 317.34375 168.0625 L 326.914062 143.648438 L 333.265625 135.304688 L 332.808594 127.730469 L 328.214844 120.996094 L 318.109375 118.851562 L 313.519531 121.378906 L 304.640625 127.730469 L 298.363281 133.621094 C 292.492188 134.746094 289.277344 135.304688 288.71875 135.304688 C 288.152344 135.304688 287.308594 134.1875 286.191406 131.9375 L 288.71875 128.570312 L 291.242188 120.152344 C 288.183594 118.46875 286.296875 117.503906 285.730469 117.246094 L 282.363281 113.035156 L 278.613281 116.785156 L 277.390625 125.585938 L 270.195312 133.621094 L 263.457031 135.304688 L 260.089844 134.003906 L 251.746094 127.730469 L 245.851562 120.535156 L 245.011719 114.71875 L 247.078125 106.300781 C 246.816406 105.429688 246.542969 104.433594 246.234375 103.238281 C 245.976562 100.988281 245.699219 99.871094 245.394531 99.871094 C 244.828125 99.871094 243.710938 98.066406 242.027344 94.4375 L 237.816406 87.703125 L 232.839844 83.496094 C 231.535156 83.183594 230.257812 82.773438 229.011719 82.269531 C 227.53125 81.667969 226 81.234375 224.421875 80.96875 C 223.960938 80.96875 221.894531 79.363281 218.21875 76.148438 L 215.160156 73.46875 C 214.042969 70.914062 213.199219 69.644531 212.632812 69.644531 C 212.066406 69.382812 210.949219 68.832031 209.265625 67.960938 C 207.320312 67.148438 206.082031 66.582031 205.515625 66.277344 C 204.058594 64.117188 202.375 62.152344 200.460938 60.382812 C 199.589844 59.816406 199.3125 58.132812 199.621094 55.332031 L 200.460938 51.199219 L 196.253906 45.6875 Z M 188.675781 39.871094 " fill-opacity="1" fill-rule="nonzero"/><path fill="#000000" d="M 261.773438 225.078125 C 261.480469 225.078125 261.210938 225 260.960938 224.847656 L 243.359375 213.902344 C 243.136719 213.746094 242.96875 213.546875 242.851562 213.300781 C 242.738281 213.054688 242.691406 212.796875 242.714844 212.527344 L 244.78125 190.253906 L 244.78125 190.027344 L 246.128906 184.605469 L 235.214844 180.382812 C 234.785156 180.21875 234.488281 179.925781 234.324219 179.496094 C 234.140625 179.082031 234.140625 178.667969 234.324219 178.253906 L 237.695312 171.519531 C 237.835938 171.234375 238.042969 171.015625 238.320312 170.863281 L 242.914062 168.320312 L 242.914062 163.730469 L 236.53125 162.320312 C 236.300781 162.265625 236.097656 162.164062 235.917969 162.015625 L 225.875 154.027344 L 216.902344 154.378906 L 211.53125 159.414062 L 211.53125 165.445312 L 213.734375 166.683594 C 214.113281 166.894531 214.359375 167.210938 214.46875 167.632812 C 214.574219 168.050781 214.515625 168.445312 214.285156 168.8125 L 210.460938 175.085938 C 210.289062 175.359375 210.054688 175.5625 209.757812 175.6875 C 209.460938 175.8125 209.15625 175.84375 208.839844 175.777344 C 208.527344 175.710938 208.257812 175.558594 208.039062 175.324219 C 207.820312 175.085938 207.6875 174.808594 207.640625 174.488281 L 206.480469 165.75 L 202.742188 162.015625 C 202.613281 161.886719 202.511719 161.738281 202.4375 161.570312 L 200.570312 157.5625 L 191.738281 154.5 L 185.613281 154.132812 C 185.253906 154.105469 184.9375 153.972656 184.664062 153.734375 L 179.152344 148.683594 C 178.824219 148.378906 178.660156 148 178.664062 147.550781 L 178.664062 138.367188 L 177.269531 136.101562 L 170.335938 136.101562 L 168.269531 138.183594 C 168.023438 138.429688 167.726562 138.574219 167.382812 138.621094 C 167.039062 138.667969 166.714844 138.601562 166.414062 138.429688 L 160.523438 135.0625 C 160.0625 134.800781 159.808594 134.40625 159.757812 133.882812 L 159.035156 126.566406 L 155.820312 125.863281 L 154.382812 135.183594 C 154.316406 135.628906 154.097656 135.972656 153.722656 136.222656 C 153.359375 136.472656 152.960938 136.550781 152.53125 136.453125 L 147.097656 135.230469 L 146.898438 135.230469 L 138.9375 132.246094 C 138.671875 132.144531 138.453125 131.988281 138.277344 131.769531 C 138.101562 131.546875 137.996094 131.300781 137.957031 131.019531 L 137.296875 126.429688 L 132.980469 126.429688 L 129.78125 135.429688 L 131.742188 140.480469 L 135.230469 141.488281 C 135.53125 141.578125 135.78125 141.746094 135.980469 141.988281 C 136.179688 142.226562 136.292969 142.503906 136.320312 142.816406 C 136.351562 143.128906 136.289062 143.421875 136.136719 143.695312 C 135.984375 143.972656 135.769531 144.179688 135.492188 144.320312 L 130.640625 146.753906 L 123.6875 153.335938 C 123.390625 153.613281 123.039062 153.753906 122.632812 153.75 L 116.921875 153.75 L 116.585938 157.851562 C 116.566406 158.019531 116.527344 158.183594 116.464844 158.34375 L 113.9375 164.15625 C 113.789062 164.496094 113.546875 164.746094 113.21875 164.90625 L 108.242188 167.433594 C 108.058594 167.527344 107.867188 167.585938 107.660156 167.601562 L 101.230469 168.03125 L 96.453125 170.417969 C 96.125 170.585938 95.78125 170.632812 95.417969 170.550781 C 95.058594 170.46875 94.765625 170.28125 94.539062 169.988281 L 90.332031 164.480469 C 90.15625 164.246094 90.050781 163.988281 90.023438 163.699219 C 89.996094 163.40625 90.046875 163.132812 90.175781 162.871094 C 90.304688 162.609375 90.496094 162.402344 90.742188 162.246094 C 90.992188 162.089844 91.261719 162.015625 91.554688 162.015625 L 96.605469 162.015625 C 97.148438 162.011719 97.570312 162.230469 97.878906 162.671875 C 98.144531 162.296875 98.503906 162.082031 98.964844 162.03125 L 105.777344 161.265625 L 107.597656 158.203125 L 107.308594 154.394531 L 104.933594 152.863281 L 96.914062 152.496094 C 96.71875 152.484375 96.53125 152.4375 96.351562 152.355469 C 96.171875 152.273438 96.015625 152.164062 95.878906 152.019531 C 95.746094 151.878906 95.640625 151.714844 95.566406 151.53125 C 95.496094 151.351562 95.457031 151.160156 95.460938 150.964844 L 95.460938 148.820312 C 95.457031 148.628906 95.492188 148.445312 95.5625 148.265625 C 95.628906 148.085938 95.730469 147.925781 95.859375 147.785156 C 95.988281 147.644531 96.136719 147.53125 96.308594 147.445312 C 96.480469 147.359375 96.660156 147.308594 96.851562 147.289062 L 105.761719 146.527344 L 107.214844 143.878906 L 106.878906 138.613281 L 75.128906 137.800781 L 74.867188 137.800781 C 71.664062 136.988281 68.417969 136.386719 65.132812 135.996094 L 57.785156 136.730469 L 55.226562 143.003906 L 55.152344 143.15625 L 52.625 147.75 C 52.53125 147.925781 52.402344 148.078125 52.25 148.203125 C 52.09375 148.332031 51.917969 148.425781 51.726562 148.484375 C 51.535156 148.542969 51.339844 148.5625 51.140625 148.542969 C 50.941406 148.527344 50.75 148.46875 50.574219 148.378906 L 43.824219 144.855469 L 37.085938 145.960938 L 31.804688 148.820312 C 31.5 148.976562 31.179688 149.035156 30.839844 148.988281 L 19.972656 147.304688 C 19.59375 147.25 19.285156 147.074219 19.039062 146.785156 L 16.511719 143.800781 C 16.21875 143.457031 16.101562 143.058594 16.160156 142.605469 C 16.21875 142.160156 16.433594 141.808594 16.800781 141.550781 L 20.539062 138.964844 L 21.625 134.480469 C 21.707031 134.144531 21.882812 133.871094 22.148438 133.65625 C 22.414062 133.441406 22.722656 133.328125 23.0625 133.316406 L 38.097656 132.933594 L 46.042969 131.328125 L 50.039062 128.9375 C 50.332031 128.765625 50.648438 128.699219 50.988281 128.738281 L 61.703125 129.933594 L 69.863281 127.929688 C 69.984375 127.914062 70.109375 127.914062 70.230469 127.929688 L 81.894531 127.929688 L 100.160156 132.09375 L 105.289062 131.449219 L 105.289062 127.988281 L 99.929688 123.398438 C 99.503906 123.035156 99.332031 122.574219 99.410156 122.019531 C 99.484375 121.46875 99.777344 121.074219 100.28125 120.84375 L 105.578125 118.394531 L 105.332031 115.683594 L 103.066406 112.621094 C 102.816406 112.285156 102.71875 111.90625 102.777344 111.488281 C 102.835938 111.070312 103.035156 110.734375 103.375 110.480469 L 106.742188 107.953125 C 107.015625 107.75 107.320312 107.648438 107.660156 107.648438 L 114.320312 107.648438 C 114.742188 107.644531 115.105469 107.792969 115.40625 108.09375 L 116.9375 109.621094 L 125.480469 107.386719 L 137.054688 99.488281 C 137.25 99.359375 137.464844 99.277344 137.695312 99.246094 L 145.183594 98.203125 L 145.183594 94.421875 L 117.796875 95.953125 L 117.488281 95.953125 L 102.515625 93.902344 L 87.054688 93.902344 L 71.609375 95.953125 L 54.644531 95.953125 C 54.5 95.976562 54.351562 95.976562 54.203125 95.953125 L 45.015625 93.183594 L 40.5 94.714844 C 40.339844 94.761719 40.179688 94.789062 40.011719 94.789062 L 34.515625 94.789062 C 34.0625 94.789062 33.683594 94.621094 33.382812 94.285156 L 29.125 89.601562 L 23.339844 88.546875 L 20.582031 88.546875 C 20.160156 88.546875 19.796875 88.398438 19.496094 88.101562 L 17.046875 85.652344 L 12.714844 88.714844 L 11.597656 94.835938 C 11.53125 95.203125 11.351562 95.507812 11.0625 95.746094 C 10.773438 95.980469 10.441406 96.097656 10.066406 96.09375 L 5.015625 96.09375 C 4.726562 96.089844 4.460938 96.015625 4.214844 95.863281 C 3.96875 95.710938 3.78125 95.507812 3.652344 95.25 L 1.507812 91.039062 C 1.382812 90.796875 1.328125 90.535156 1.339844 90.261719 L 1.785156 82.988281 L 0.574219 79.53125 C 0.46875 79.222656 0.460938 78.914062 0.550781 78.601562 C 0.640625 78.292969 0.8125 78.035156 1.066406 77.832031 L 9.945312 70.714844 C 10.113281 70.582031 10.304688 70.484375 10.511719 70.421875 L 16.789062 68.738281 C 17.042969 68.679688 17.296875 68.679688 17.554688 68.738281 L 22.605469 69.964844 C 22.746094 69.996094 22.878906 70.046875 23.003906 70.117188 L 28.898438 73.484375 C 29.109375 73.609375 29.285156 73.777344 29.417969 73.988281 L 31.941406 77.96875 L 34.53125 78.246094 L 37.378906 74.3125 C 37.589844 73.996094 37.878906 73.796875 38.25 73.714844 L 42.183594 72.765625 L 42.523438 64.652344 C 42.539062 64.25 42.691406 63.910156 42.980469 63.628906 L 51.324219 55.347656 L 50.710938 49.4375 L 39.859375 49.027344 C 39.351562 49.003906 38.953125 48.785156 38.664062 48.367188 L 34.285156 42.0625 L 28.5 40.148438 C 28.214844 40.054688 27.980469 39.890625 27.792969 39.65625 L 23.96875 35.066406 C 23.851562 34.921875 23.761719 34.761719 23.703125 34.585938 C 23.644531 34.410156 23.617188 34.226562 23.625 34.042969 C 23.632812 33.855469 23.671875 33.675781 23.742188 33.503906 C 23.816406 33.335938 23.914062 33.179688 24.042969 33.046875 L 29.96875 26.832031 L 29.96875 22.730469 L 28.285156 22.53125 C 28.183594 22.617188 28.078125 22.6875 27.960938 22.742188 C 27.84375 22.800781 27.71875 22.839844 27.589844 22.867188 C 27.464844 22.894531 27.335938 22.902344 27.203125 22.894531 C 27.074219 22.886719 26.945312 22.863281 26.824219 22.824219 C 26.699219 22.785156 26.582031 22.730469 26.46875 22.660156 C 26.359375 22.589844 26.261719 22.507812 26.171875 22.410156 C 26.082031 22.316406 26.007812 22.210938 25.945312 22.097656 C 25.882812 21.980469 25.835938 21.863281 25.804688 21.734375 L 24.960938 18.367188 C 24.867188 18.0625 24.867188 17.753906 24.960938 17.449219 L 29.171875 6.503906 C 29.21875 6.363281 29.289062 6.238281 29.386719 6.121094 L 32.296875 2.371094 C 32.523438 2.074219 32.816406 1.886719 33.183594 1.804688 L 41.21875 0.121094 C 41.492188 0.0507812 41.761719 0.0507812 42.03125 0.121094 L 60.539062 6.503906 C 60.675781 6.554688 60.804688 6.621094 60.921875 6.703125 L 71.867188 14.355469 L 72.023438 14.480469 L 75.328125 17.449219 L 92.429688 17.449219 C 92.664062 17.453125 92.886719 17.503906 93.101562 17.601562 L 98.703125 20.371094 L 119.464844 21.183594 L 125.878906 18.414062 C 126.261719 18.199219 126.917969 17.785156 127.683594 17.265625 C 128.535156 16.621094 129.425781 16.027344 130.347656 15.488281 C 130.578125 15.367188 130.824219 15.304688 131.082031 15.304688 C 132.636719 14.9375 134.074219 14.3125 135.398438 13.421875 C 135.628906 13.300781 135.875 13.238281 136.136719 13.238281 L 145.78125 13.238281 C 146.066406 13.242188 146.332031 13.316406 146.574219 13.46875 L 149.332031 15.078125 L 155.332031 12.472656 C 155.832031 12.257812 156.3125 12.300781 156.769531 12.597656 L 163.890625 17.1875 C 163.984375 17.246094 164.070312 17.3125 164.148438 17.386719 L 171.253906 24.488281 L 173.105469 23.128906 C 173.375 22.933594 173.675781 22.835938 174.007812 22.835938 L 184.542969 22.835938 C 184.847656 22.835938 185.128906 22.921875 185.386719 23.089844 C 185.640625 23.261719 185.828125 23.488281 185.949219 23.769531 L 188.09375 28.820312 C 188.140625 28.917969 188.171875 29.019531 188.183594 29.128906 L 190.144531 39.046875 L 197.261719 44.585938 C 197.371094 44.664062 197.460938 44.753906 197.539062 44.863281 L 201.75 50.371094 C 202.035156 50.742188 202.132812 51.15625 202.039062 51.613281 L 201.195312 55.746094 C 200.890625 58.605469 201.394531 59.21875 201.410156 59.234375 C 203.394531 61.003906 205.128906 62.988281 206.617188 65.1875 C 207.105469 65.433594 208.054688 65.863281 209.9375 66.71875 C 211.46875 67.515625 212.554688 68.050781 213.152344 68.328125 C 214.253906 68.570312 215.203125 69.855469 216.492188 72.703125 L 219.308594 75.167969 C 221.023438 76.789062 222.851562 78.273438 224.789062 79.621094 C 226.4375 79.914062 228.042969 80.371094 229.59375 81 C 230.785156 81.480469 232.007812 81.871094 233.253906 82.179688 C 233.503906 82.226562 233.722656 82.332031 233.914062 82.5 L 238.886719 86.710938 C 239.003906 86.8125 239.109375 86.929688 239.195312 87.0625 L 243.402344 93.796875 L 243.496094 93.964844 C 244.167969 95.582031 245 97.113281 245.992188 98.554688 C 247.324219 98.953125 247.523438 100.960938 247.8125 103.148438 C 248.117188 104.21875 248.378906 105.167969 248.625 105.996094 C 248.695312 106.261719 248.695312 106.523438 248.625 106.789062 L 246.632812 114.917969 L 247.367188 120.015625 L 252.878906 126.734375 L 260.902344 132.78125 L 263.609375 133.820312 L 269.429688 132.367188 L 275.996094 125.035156 L 277.160156 116.695312 C 277.210938 116.359375 277.355469 116.066406 277.589844 115.820312 L 281.339844 112.070312 C 281.644531 111.695312 282.035156 111.507812 282.515625 111.503906 C 282.972656 111.535156 283.339844 111.730469 283.621094 112.085938 L 286.773438 116.019531 C 287.601562 116.417969 289.328125 117.335938 292.039062 118.804688 C 292.359375 118.980469 292.589844 119.234375 292.726562 119.570312 C 292.863281 119.90625 292.878906 120.25 292.773438 120.597656 L 290.25 129.015625 C 290.191406 129.1875 290.109375 129.34375 290.003906 129.488281 L 288.058594 132.09375 C 288.347656 132.679688 288.695312 133.230469 289.101562 133.746094 C 289.820312 133.652344 291.886719 133.316406 297.703125 132.214844 L 303.660156 126.628906 C 303.703125 126.578125 303.753906 126.539062 303.8125 126.503906 L 312.691406 120.152344 L 312.84375 120.046875 L 317.4375 117.519531 C 317.769531 117.339844 318.121094 117.289062 318.492188 117.367188 L 328.597656 119.511719 C 329 119.597656 329.316406 119.8125 329.546875 120.152344 L 334.140625 126.886719 C 334.296875 127.121094 334.382812 127.375 334.398438 127.652344 L 334.859375 135.230469 C 334.875 135.605469 334.769531 135.949219 334.550781 136.253906 L 328.320312 144.429688 L 318.753906 168.644531 C 318.707031 168.773438 318.640625 168.890625 318.554688 168.996094 L 310.074219 180.382812 L 309.859375 180.613281 L 295.164062 193.621094 C 294.613281 194.21875 292.742188 195.582031 284.03125 200.128906 L 279.148438 203.800781 C 278.90625 203.992188 278.632812 204.09375 278.324219 204.105469 L 272.199219 204.503906 L 270.898438 208.378906 L 269.6875 216.277344 C 269.660156 216.433594 269.605469 216.589844 269.535156 216.734375 L 267.007812 221.785156 C 266.894531 222.03125 266.71875 222.226562 266.488281 222.367188 L 262.617188 224.769531 C 262.363281 224.949219 262.082031 225.050781 261.773438 225.078125 Z M 245.777344 211.804688 L 261.742188 221.710938 L 264.421875 219.949219 L 266.65625 215.480469 L 267.835938 207.6875 C 267.828125 207.601562 267.828125 207.515625 267.835938 207.429688 L 269.519531 202.453125 C 269.621094 202.15625 269.792969 201.914062 270.042969 201.726562 C 270.289062 201.535156 270.570312 201.429688 270.882812 201.414062 L 277.617188 200.984375 L 282.210938 197.511719 L 282.425781 197.371094 C 290.984375 192.917969 292.652344 191.664062 292.957031 191.328125 L 307.640625 178.332031 L 315.84375 167.296875 L 325.414062 143.066406 C 325.46875 142.9375 325.535156 142.816406 325.613281 142.699219 L 331.628906 134.816406 L 331.230469 128.234375 L 327.21875 122.34375 L 318.277344 120.460938 L 314.253906 122.664062 L 305.542969 128.894531 L 299.355469 134.738281 C 299.148438 134.945312 298.898438 135.074219 298.605469 135.121094 C 295.328125 135.886719 292.015625 136.457031 288.671875 136.835938 C 287.371094 136.835938 286.3125 135.6875 284.785156 132.628906 C 284.652344 132.367188 284.597656 132.09375 284.625 131.804688 C 284.648438 131.515625 284.746094 131.253906 284.921875 131.019531 L 287.277344 127.867188 L 289.375 120.902344 C 286.40625 119.371094 285.378906 118.789062 285.058594 118.636719 C 284.835938 118.539062 284.648438 118.398438 284.492188 118.210938 L 282.195312 115.332031 L 280.007812 117.503906 L 278.859375 125.800781 C 278.820312 126.109375 278.695312 126.378906 278.492188 126.613281 L 271.296875 134.648438 C 271.082031 134.882812 270.824219 135.035156 270.515625 135.105469 L 263.78125 136.789062 C 263.472656 136.886719 263.167969 136.886719 262.859375 136.789062 L 259.492188 135.488281 C 259.359375 135.441406 259.238281 135.375 259.125 135.289062 L 250.78125 129.015625 C 250.679688 128.945312 250.59375 128.855469 250.523438 128.753906 L 244.628906 121.5625 C 244.445312 121.34375 244.332031 121.09375 244.292969 120.8125 L 243.449219 114.996094 C 243.410156 114.800781 243.410156 114.605469 243.449219 114.414062 L 245.410156 106.394531 C 245.195312 105.617188 244.949219 104.746094 244.675781 103.777344 C 244.667969 103.699219 244.667969 103.621094 244.675781 103.546875 C 244.597656 102.769531 244.476562 101.996094 244.308594 101.234375 C 243.417969 100.667969 242.410156 99.121094 240.632812 95.3125 L 236.589844 88.789062 L 232.089844 84.980469 C 230.835938 84.652344 229.605469 84.25 228.402344 83.769531 C 227.09375 83.234375 225.746094 82.835938 224.359375 82.578125 C 223.625 82.578125 223.105469 82.578125 217.164062 77.371094 L 214.101562 74.710938 C 213.921875 74.558594 213.785156 74.375 213.6875 74.160156 C 213.3125 73.070312 212.804688 72.050781 212.160156 71.097656 L 212.003906 71.097656 C 211.421875 70.835938 210.273438 70.269531 208.5625 69.382812 C 206.847656 68.496094 205.390625 68.003906 204.78125 67.683594 C 204.578125 67.574219 204.410156 67.425781 204.273438 67.238281 C 202.917969 65.1875 201.335938 63.324219 199.527344 61.652344 C 198.179688 60.796875 197.707031 58.789062 198.105469 55.222656 L 198.824219 51.644531 L 195.148438 46.835938 L 187.742188 41.097656 C 187.4375 40.863281 187.246094 40.554688 187.175781 40.179688 L 185.136719 29.863281 L 183.453125 25.882812 L 174.484375 25.882812 L 171.972656 27.71875 C 171.667969 27.945312 171.328125 28.046875 170.953125 28.019531 C 170.574219 27.992188 170.25 27.847656 169.984375 27.582031 L 162.066406 19.667969 L 155.777344 15.613281 L 149.789062 18.136719 C 149.300781 18.347656 148.832031 18.308594 148.382812 18.03125 L 145.320312 16.195312 L 136.488281 16.195312 C 134.941406 17.152344 133.285156 17.832031 131.511719 18.230469 C 131.113281 18.472656 130.46875 18.886719 129.429688 19.652344 C 128.710938 20.160156 127.964844 20.628906 127.195312 21.0625 L 120.335938 24.03125 C 120.121094 24.121094 119.894531 24.164062 119.664062 24.152344 L 98.230469 23.3125 C 98.015625 23.300781 97.8125 23.25 97.617188 23.15625 L 92.046875 20.402344 L 74.777344 20.402344 C 74.382812 20.402344 74.042969 20.269531 73.75 20.003906 L 70.078125 16.714844 L 59.359375 9.304688 L 41.511719 3.183594 L 34.421875 4.714844 L 32.003906 7.851562 L 28.085938 18.136719 L 28.421875 19.5 L 31.714844 19.898438 C 31.898438 19.921875 32.078125 19.976562 32.242188 20.0625 C 32.410156 20.152344 32.554688 20.265625 32.679688 20.40625 C 32.804688 20.546875 32.898438 20.707031 32.964844 20.882812 C 33.03125 21.058594 33.0625 21.242188 33.0625 21.429688 L 33.0625 27.320312 C 33.058594 27.730469 32.917969 28.082031 32.632812 28.378906 L 27.210938 34.054688 L 29.90625 37.332031 L 35.753906 39.261719 C 36.082031 39.367188 36.339844 39.5625 36.535156 39.84375 L 40.777344 45.964844 L 52.179688 46.394531 C 52.371094 46.390625 52.554688 46.425781 52.730469 46.492188 C 52.90625 46.558594 53.066406 46.65625 53.207031 46.78125 C 53.351562 46.90625 53.464844 47.054688 53.550781 47.222656 C 53.636719 47.390625 53.691406 47.566406 53.710938 47.753906 L 54.554688 55.714844 C 54.609375 56.203125 54.460938 56.621094 54.109375 56.96875 L 45.660156 65.34375 L 45.308594 74.003906 C 45.292969 74.34375 45.179688 74.648438 44.964844 74.910156 C 44.746094 75.175781 44.476562 75.347656 44.144531 75.429688 L 39.550781 76.515625 L 36.488281 80.722656 C 36.328125 80.949219 36.121094 81.117188 35.871094 81.230469 C 35.617188 81.339844 35.355469 81.382812 35.082031 81.351562 L 30.871094 80.894531 C 30.390625 80.839844 30.015625 80.609375 29.753906 80.203125 L 27.042969 75.933594 L 21.671875 72.871094 L 17.199219 71.785156 L 11.613281 73.316406 L 3.898438 79.5 L 4.832031 82.222656 C 4.90625 82.417969 4.9375 82.617188 4.921875 82.820312 L 4.480469 89.984375 L 6.011719 93.046875 L 8.859375 93.046875 L 9.851562 87.566406 C 9.925781 87.164062 10.132812 86.839844 10.464844 86.601562 L 16.359375 82.394531 C 16.664062 82.171875 17 82.078125 17.375 82.105469 C 17.746094 82.136719 18.066406 82.28125 18.332031 82.546875 L 21.242188 85.46875 L 23.828125 85.46875 L 30.183594 86.769531 C 30.511719 86.839844 30.785156 86.996094 31.007812 87.246094 L 35.144531 91.835938 L 39.734375 91.835938 L 44.464844 90.230469 C 44.777344 90.136719 45.089844 90.136719 45.398438 90.230469 L 54.90625 93.078125 L 71.257812 93.078125 L 86.703125 91.027344 L 102.730469 91.027344 L 117.65625 93.078125 L 146.515625 91.394531 C 146.957031 91.363281 147.339844 91.503906 147.664062 91.804688 C 147.980469 92.109375 148.140625 92.484375 148.136719 92.921875 L 148.136719 99.65625 C 148.140625 99.84375 148.109375 100.023438 148.042969 100.199219 C 147.980469 100.371094 147.886719 100.53125 147.765625 100.671875 C 147.644531 100.8125 147.503906 100.925781 147.339844 101.015625 C 147.179688 101.105469 147.003906 101.164062 146.820312 101.1875 L 138.371094 102.367188 L 126.871094 110.203125 C 126.726562 110.300781 126.566406 110.371094 126.398438 110.417969 L 116.753906 112.945312 C 116.480469 113.023438 116.207031 113.03125 115.933594 112.957031 C 115.65625 112.886719 115.421875 112.75 115.222656 112.546875 L 113.539062 110.847656 L 108.011719 110.847656 L 106.28125 112.148438 L 107.890625 114.289062 C 108.066406 114.523438 108.167969 114.78125 108.195312 115.070312 L 108.578125 119.28125 C 108.609375 119.605469 108.542969 119.90625 108.378906 120.1875 C 108.214844 120.46875 107.988281 120.675781 107.691406 120.8125 L 103.574219 122.710938 L 107.660156 126.214844 C 108.019531 126.519531 108.195312 126.90625 108.195312 127.378906 L 108.195312 132.886719 C 108.199219 133.074219 108.164062 133.257812 108.101562 133.433594 C 108.035156 133.609375 107.9375 133.769531 107.816406 133.910156 C 107.691406 134.050781 107.546875 134.164062 107.378906 134.253906 C 107.210938 134.339844 107.035156 134.394531 106.847656 134.417969 L 100.113281 135.261719 C 99.941406 135.289062 99.765625 135.289062 99.59375 135.261719 L 81.222656 131.082031 L 70.246094 131.082031 L 62.070312 132.933594 C 61.890625 132.972656 61.714844 132.972656 61.535156 132.933594 L 51.09375 131.769531 L 47.328125 134.035156 C 47.183594 134.128906 47.023438 134.191406 46.855469 134.21875 L 38.511719 135.902344 L 38.25 135.902344 L 24.257812 136.253906 L 23.308594 140.171875 C 23.214844 140.546875 23.011719 140.84375 22.695312 141.0625 L 19.878906 143.019531 L 20.9375 144.277344 L 30.734375 145.804688 L 35.785156 143.066406 C 35.941406 142.988281 36.105469 142.929688 36.277344 142.898438 L 43.777344 141.671875 C 44.109375 141.621094 44.425781 141.671875 44.726562 141.828125 L 50.605469 144.886719 L 52.363281 141.6875 L 55.226562 134.648438 C 55.335938 134.382812 55.503906 134.167969 55.730469 133.996094 C 55.957031 133.824219 56.214844 133.726562 56.5 133.699219 L 64.917969 132.855469 C 65.851562 132.855469 67.765625 133.027344 75.34375 134.539062 L 108.363281 135.382812 C 108.558594 135.382812 108.75 135.417969 108.929688 135.488281 C 109.113281 135.5625 109.273438 135.664062 109.414062 135.796875 C 109.558594 135.933594 109.671875 136.085938 109.753906 136.265625 C 109.835938 136.441406 109.882812 136.625 109.894531 136.820312 L 110.355469 143.9375 C 110.371094 144.230469 110.3125 144.507812 110.171875 144.765625 L 108.105469 148.515625 C 107.84375 148.996094 107.441406 149.261719 106.894531 149.3125 L 104.046875 149.554688 L 105.578125 149.554688 C 105.851562 149.570312 106.101562 149.652344 106.328125 149.800781 L 109.695312 151.945312 C 110.125 152.214844 110.359375 152.601562 110.402344 153.105469 L 110.785156 158.160156 C 110.796875 158.480469 110.726562 158.78125 110.570312 159.0625 L 108.121094 163.195312 C 107.859375 163.628906 107.476562 163.875 106.972656 163.929688 L 100.203125 164.679688 L 100.082031 164.9375 L 100.21875 164.9375 C 100.402344 164.84375 100.597656 164.789062 100.800781 164.769531 L 107.230469 164.34375 L 111.441406 162.199219 L 113.644531 157.117188 L 114.074219 151.867188 C 114.089844 151.675781 114.140625 151.492188 114.226562 151.320312 C 114.308594 151.144531 114.421875 150.992188 114.5625 150.863281 C 114.707031 150.734375 114.867188 150.632812 115.046875 150.5625 C 115.226562 150.492188 115.414062 150.457031 115.605469 150.460938 L 122.113281 150.460938 L 128.785156 144.136719 C 128.898438 144.039062 129.019531 143.957031 129.152344 143.894531 L 130.683594 143.113281 L 130.226562 142.972656 C 129.742188 142.832031 129.410156 142.527344 129.230469 142.054688 L 126.78125 135.78125 C 126.648438 135.421875 126.648438 135.066406 126.78125 134.710938 L 130.53125 124.148438 C 130.640625 123.84375 130.828125 123.601562 131.089844 123.414062 C 131.355469 123.230469 131.648438 123.136719 131.972656 123.136719 L 138.707031 123.136719 C 138.890625 123.136719 139.074219 123.167969 139.246094 123.230469 C 139.421875 123.292969 139.578125 123.386719 139.71875 123.507812 C 139.859375 123.628906 139.976562 123.769531 140.066406 123.933594 C 140.152344 124.097656 140.210938 124.269531 140.238281 124.453125 L 140.957031 129.445312 L 147.96875 132.078125 L 151.6875 132.917969 L 153.128906 123.597656 C 153.160156 123.386719 153.230469 123.191406 153.34375 123.007812 C 153.457031 122.828125 153.601562 122.679688 153.777344 122.558594 C 153.953125 122.4375 154.144531 122.355469 154.355469 122.316406 C 154.5625 122.277344 154.773438 122.28125 154.980469 122.328125 L 160.875 123.628906 C 161.195312 123.703125 161.464844 123.863281 161.679688 124.109375 C 161.898438 124.359375 162.019531 124.648438 162.050781 124.972656 L 162.816406 132.628906 L 167.011719 135.015625 L 168.710938 133.316406 C 169.011719 133.019531 169.375 132.871094 169.796875 132.871094 L 178.21875 132.871094 C 178.789062 132.875 179.222656 133.121094 179.519531 133.605469 L 181.585938 136.976562 C 181.738281 137.21875 181.8125 137.484375 181.816406 137.769531 L 181.816406 146.738281 L 186.410156 150.964844 L 192.148438 151.316406 C 192.289062 151.332031 192.429688 151.363281 192.5625 151.410156 L 202.207031 154.777344 C 202.617188 154.914062 202.910156 155.179688 203.09375 155.570312 L 205.117188 159.917969 L 208.589844 163.394531 L 208.589844 158.800781 C 208.59375 158.359375 208.753906 157.984375 209.082031 157.683594 L 215.359375 151.789062 C 215.632812 151.53125 215.960938 151.394531 216.335938 151.378906 L 226.441406 150.996094 C 226.820312 150.980469 227.15625 151.09375 227.453125 151.332031 L 237.664062 159.445312 L 244.902344 161.050781 C 245.257812 161.132812 245.550781 161.316406 245.773438 161.601562 C 246 161.890625 246.105469 162.21875 246.097656 162.582031 L 246.097656 169.316406 C 246.097656 169.597656 246.027344 169.859375 245.886719 170.097656 C 245.742188 170.339844 245.546875 170.527344 245.300781 170.664062 L 240.28125 173.417969 L 237.890625 178.210938 L 248.46875 182.1875 C 248.648438 182.253906 248.804688 182.351562 248.945312 182.472656 C 249.089844 182.597656 249.203125 182.746094 249.289062 182.910156 C 249.378906 183.078125 249.433594 183.253906 249.453125 183.441406 C 249.476562 183.628906 249.464844 183.8125 249.417969 183.996094 L 247.765625 190.621094 Z M 209.984375 168.136719 L 210.214844 169.914062 L 210.964844 168.6875 Z M 94.710938 165 L 96.238281 167.050781 L 96.609375 166.867188 L 96.484375 166.667969 L 95.75 164.921875 Z M 224.421875 79.59375 Z M 212.632812 71.328125 Z M 212.632812 71.328125 " fill-opacity="1" fill-rule="nonzero"/></svg>