<svg xmlns="http://www.w3.org/2000/svg" xmlns:xlink="http://www.w3.org/1999/xlink" width="500" zoomAndPan="magnify" viewBox="0 0 375 225" height="300" preserveAspectRatio="xMidYMid meet" version="1.0"><path fill="#009966" d="M 84.285156 3.230469 L 39.128906 26.335938 L 17.035156 12.925781 L 3.808594 23.589844 L 7.355469 84.019531 L 15.257812 104.378906 L 54.289062 134.59375 L 141.859375 181.609375 L 155.246094 191.304688 L 172.824219 173.53125 L 180.886719 134.59375 L 198.628906 131.84375 L 198.628906 149.617188 L 191.53125 159.3125 L 212.660156 166.421875 L 221.527344 178.054688 L 235.722656 176.277344 L 242.171875 153.980469 L 254.589844 160.28125 L 261.523438 178.054688 L 288.136719 190.335938 L 317.164062 197.445312 L 357 191.304688 L 366.675781 186.941406 L 367.480469 185.972656 L 361.355469 155.757812 L 369.253906 140.734375 L 371.03125 111.488281 L 363.128906 96.460938 L 353.453125 64.46875 L 342 49.441406 L 325.226562 35.222656 L 304.746094 53.804688 L 280.878906 60.914062 L 272.167969 60.914062 L 266.039062 59.945312 L 249.914062 46.695312 L 235.722656 45.886719 L 219.59375 50.25 L 197.5 49.441406 L 186.046875 39.585938 L 162.984375 30.699219 L 150.566406 36.03125 L 140.890625 38.777344 L 130.246094 33.445312 L 115.25 22.78125 L 101.863281 10.339844 Z M 84.285156 3.230469 " fill-opacity="1" fill-rule="nonzero"/><path fill="#000000" d="M 317.324219 200.675781 L 316.550781 200.675781 L 287.523438 193.566406 C 287.320312 193.53125 287.125 193.46875 286.941406 193.375 L 260.332031 181.09375 C 259.542969 180.722656 258.996094 180.132812 258.6875 179.316406 L 252.234375 162.707031 L 244.398438 158.730469 L 239.171875 177.25 C 238.996094 177.875 238.660156 178.398438 238.167969 178.820312 C 237.675781 179.246094 237.105469 179.496094 236.460938 179.574219 L 222.269531 181.351562 C 221.703125 181.425781 221.152344 181.355469 220.625 181.136719 C 220.09375 180.914062 219.652344 180.578125 219.304688 180.125 L 211.046875 169.265625 L 190.855469 162.480469 C 190.613281 162.398438 190.382812 162.292969 190.167969 162.15625 C 189.953125 162.023438 189.757812 161.867188 189.578125 161.683594 C 189.398438 161.503906 189.246094 161.304688 189.113281 161.085938 C 188.980469 160.867188 188.878906 160.636719 188.800781 160.394531 C 188.722656 160.152344 188.675781 159.902344 188.65625 159.648438 C 188.640625 159.394531 188.652344 159.144531 188.691406 158.894531 C 188.734375 158.640625 188.800781 158.398438 188.902344 158.164062 C 189 157.929688 189.121094 157.710938 189.273438 157.503906 L 195.722656 148.648438 L 195.722656 135.722656 L 183.917969 137.53125 L 176.308594 174.277344 C 176.175781 174.898438 175.886719 175.4375 175.4375 175.890625 L 157.855469 193.664062 C 157.585938 193.941406 157.277344 194.160156 156.929688 194.324219 C 156.578125 194.492188 156.210938 194.589844 155.828125 194.621094 C 155.441406 194.65625 155.0625 194.617188 154.691406 194.515625 C 154.320312 194.410156 153.976562 194.246094 153.664062 194.019531 L 140.472656 184.324219 L 52.835938 137.4375 C 52.667969 137.371094 52.515625 137.273438 52.382812 137.144531 L 13.355469 106.929688 C 12.871094 106.574219 12.527344 106.109375 12.324219 105.542969 L 4.421875 85.183594 C 4.296875 84.871094 4.222656 84.546875 4.195312 84.214844 L 0.648438 23.785156 C 0.617188 23.261719 0.707031 22.761719 0.914062 22.28125 C 1.125 21.800781 1.433594 21.398438 1.84375 21.070312 L 15.066406 10.40625 C 15.324219 10.195312 15.609375 10.027344 15.917969 9.90625 C 16.226562 9.78125 16.546875 9.710938 16.878906 9.6875 C 17.210938 9.664062 17.539062 9.691406 17.863281 9.769531 C 18.1875 9.847656 18.492188 9.972656 18.777344 10.148438 L 39.320312 22.652344 L 82.867188 0.355469 C 83.757812 -0.0507812 84.652344 -0.0507812 85.542969 0.355469 L 103.28125 7.464844 C 103.660156 7.613281 103.992188 7.828125 104.28125 8.113281 L 117.507812 20.390625 L 132.152344 30.796875 L 141.441406 35.449219 L 149.699219 33.125 L 161.957031 27.855469 C 162.761719 27.527344 163.566406 27.527344 164.375 27.855469 L 187.4375 36.742188 C 187.777344 36.875 188.089844 37.058594 188.371094 37.292969 L 198.984375 46.40625 L 219.433594 47.148438 L 234.949219 42.945312 C 235.292969 42.898438 235.636719 42.898438 235.980469 42.945312 L 250.171875 43.753906 C 250.878906 43.796875 251.5 44.046875 252.042969 44.5 L 267.332031 57.164062 L 272.332031 57.972656 L 280.460938 57.972656 L 303.039062 51.21875 L 322.972656 33.125 C 323.265625 32.863281 323.597656 32.664062 323.964844 32.527344 C 324.328125 32.390625 324.707031 32.320312 325.101562 32.320312 C 325.492188 32.320312 325.871094 32.390625 326.238281 32.527344 C 326.605469 32.664062 326.933594 32.863281 327.230469 33.125 L 344 47.34375 L 344.484375 47.828125 L 355.9375 62.851562 C 356.160156 63.171875 356.332031 63.515625 356.453125 63.886719 L 366.128906 95.589844 L 373.871094 110.324219 C 374.160156 110.859375 374.289062 111.429688 374.257812 112.035156 L 372.484375 141.28125 C 372.445312 141.746094 372.324219 142.1875 372.128906 142.605469 L 364.742188 156.597656 L 370.644531 185.683594 C 370.742188 186.164062 370.730469 186.640625 370.613281 187.117188 C 370.496094 187.59375 370.277344 188.019531 369.96875 188.398438 L 369.160156 189.367188 C 368.832031 189.75 368.433594 190.042969 367.96875 190.238281 L 358.289062 194.601562 C 358.019531 194.71875 357.742188 194.804688 357.453125 194.859375 L 317.617188 201 Z M 289.199219 187.265625 L 317.453125 194.148438 L 356.160156 188.171875 L 364.160156 184.617188 L 358.417969 156.40625 C 358.265625 155.644531 358.375 154.921875 358.742188 154.238281 L 366.320312 139.828125 L 367.996094 112.199219 L 360.515625 97.980469 C 360.414062 97.792969 360.328125 97.597656 360.257812 97.398438 L 350.582031 65.957031 L 339.679688 51.671875 L 325.324219 39.519531 L 306.941406 56.195312 C 306.578125 56.535156 306.160156 56.773438 305.683594 56.90625 L 281.847656 64.015625 C 281.535156 64.0625 281.222656 64.0625 280.910156 64.015625 L 271.523438 64.015625 L 265.394531 63.046875 C 264.820312 62.9375 264.304688 62.699219 263.847656 62.335938 L 248.6875 49.765625 L 236.109375 49.054688 L 220.625 53.253906 C 220.304688 53.320312 219.980469 53.320312 219.65625 53.253906 L 197.5625 52.449219 C 196.816406 52.417969 196.164062 52.160156 195.597656 51.671875 L 184.566406 42.171875 L 163.246094 33.964844 L 152.019531 38.777344 L 151.632812 38.777344 L 141.957031 41.523438 C 141.152344 41.75 140.378906 41.675781 139.632812 41.296875 L 128.988281 35.964844 L 128.570312 35.707031 L 113.570312 25.078125 L 113.25 24.785156 L 100.347656 12.765625 L 84.511719 6.300781 L 40.675781 28.726562 C 40.175781 29.015625 39.640625 29.160156 39.0625 29.160156 C 38.488281 29.160156 37.949219 29.015625 37.449219 28.726562 L 17.292969 16.511719 L 7.132812 24.722656 L 10.550781 82.886719 L 17.9375 101.953125 L 56.0625 131.457031 L 143.375 178.347656 L 143.761719 178.574219 L 154.890625 186.652344 L 169.855469 171.527344 L 177.726562 133.527344 C 177.792969 133.203125 177.902344 132.894531 178.066406 132.605469 C 178.222656 132.316406 178.425781 132.054688 178.664062 131.828125 C 178.902344 131.597656 179.171875 131.410156 179.46875 131.265625 C 179.765625 131.121094 180.078125 131.023438 180.402344 130.972656 L 198.144531 128.226562 C 198.375 128.191406 198.605469 128.179688 198.839844 128.195312 C 199.074219 128.210938 199.300781 128.253906 199.527344 128.316406 C 199.75 128.382812 199.964844 128.472656 200.171875 128.585938 C 200.375 128.695312 200.566406 128.828125 200.742188 128.984375 C 200.921875 129.136719 201.078125 129.308594 201.21875 129.496094 C 201.355469 129.683594 201.472656 129.882812 201.570312 130.097656 C 201.664062 130.3125 201.738281 130.535156 201.785156 130.761719 C 201.832031 130.992188 201.855469 131.222656 201.851562 131.457031 L 201.851562 149.230469 C 201.855469 149.933594 201.652344 150.570312 201.238281 151.136719 L 196.757812 157.277344 L 213.691406 162.964844 C 214.308594 163.179688 214.8125 163.542969 215.207031 164.0625 L 222.980469 174.242188 L 233.203125 172.949219 L 238.914062 152.722656 C 239.042969 152.253906 239.265625 151.835938 239.582031 151.46875 C 239.898438 151.097656 240.277344 150.816406 240.71875 150.621094 C 241.15625 150.417969 241.613281 150.316406 242.089844 150.3125 C 242.570312 150.316406 243.027344 150.417969 243.460938 150.621094 L 255.878906 156.921875 C 256.613281 157.296875 257.128906 157.867188 257.429688 158.636719 L 263.878906 175.179688 Z M 289.199219 187.265625 " fill-opacity="1" fill-rule="nonzero"/></svg>