<svg xmlns="http://www.w3.org/2000/svg" xmlns:xlink="http://www.w3.org/1999/xlink" width="60" zoomAndPan="magnify" viewBox="0 0 45 44.999999" height="60" preserveAspectRatio="xMidYMid meet" version="1.0"><defs><clipPath id="daacdaa29d"><path d="M 0 2.644531 L 45 2.644531 L 45 42.394531 L 0 42.394531 Z M 0 2.644531 " clip-rule="nonzero"/></clipPath></defs><g clip-path="url(#daacdaa29d)"><path fill="#f4951f" d="M 21.394531 6.703125 L 19.542969 7.578125 C 19.089844 7.867188 18.835938 8.011719 18.765625 8.011719 L 17.898438 8.402344 L 16.4375 9.464844 L 14.25 9.464844 C 14.050781 9.484375 13.855469 9.53125 13.667969 9.609375 L 13.277344 9.757812 L 12.746094 10.042969 L 11.089844 10 L 10.074219 9.582031 L 9.683594 9.140625 L 9.332031 8.847656 L 7.339844 9.140625 L 5.304688 8.121094 L 4.816406 8.164062 L 4.523438 8.800781 L 4.171875 9.972656 L 3.738281 10.601562 L 3.292969 11.089844 L 2.292969 11.175781 L 0.257812 12.195312 L 0.648438 13.3125 L 0.789062 13.949219 L 0.984375 14.09375 C 1.085938 14.210938 1.21875 14.277344 1.375 14.285156 C 1.535156 14.285156 1.710938 14.417969 1.90625 14.675781 L 2.152344 14.675781 C 2.351562 14.644531 2.546875 14.597656 2.738281 14.535156 C 2.996094 14.433594 3.238281 14.335938 3.460938 14.242188 L 3.851562 14.09375 C 3.980469 14.070312 4.109375 14.054688 4.242188 14.046875 C 4.765625 14.128906 5.28125 14.242188 5.789062 14.382812 L 7.445312 14.046875 L 10.800781 15.164062 L 12.695312 15.207031 L 13.375 16.183594 L 13.960938 17.644531 L 14.492188 17.9375 C 14.75 18.054688 14.996094 18.199219 15.226562 18.371094 L 15.996094 18.957031 L 14.683594 20.039062 L 16.339844 23.105469 L 17.402344 26.214844 L 16.914062 27.71875 L 17.207031 28.695312 L 17.90625 29.429688 L 17.808594 30.199219 L 15.234375 31.425781 L 14.261719 32.734375 L 15.375 33.460938 L 16.394531 35.410156 L 17.808594 35.554688 L 19.164062 34.96875 L 20.382812 34.96875 L 21.988281 35.75 L 23.339844 36.191406 L 25.519531 35.457031 L 26.933594 34.101562 L 27.953125 33.808594 L 29.121094 32.488281 L 29.414062 31.664062 L 30.625 31.859375 L 31.304688 30.839844 L 32.8125 31.566406 L 35.582031 33.851562 L 36.164062 33.320312 L 36.457031 32.832031 L 37.136719 33.027344 L 37.183594 33.363281 L 37.765625 33.808594 L 38.492188 34.871094 L 38.785156 35.703125 L 38.546875 36.765625 L 38.261719 37.058594 L 38.359375 38.707031 L 38.945312 39.441406 L 39.667969 39.824219 L 39.863281 38.664062 L 40.546875 39 L 41.273438 39.921875 L 41.519531 40.605469 L 41.371094 41.285156 L 41.910156 42.023438 L 41.910156 42.207031 L 42.34375 41.925781 L 43.414062 39.636719 L 43.554688 38.859375 L 43.261719 37.972656 L 42.492188 37.191406 L 43.164062 36.304688 L 44.484375 35.578125 L 44.777344 35.191406 L 44.777344 35.136719 L 43.414062 34.5625 L 42.777344 34.171875 L 41.910156 33.144531 L 40.742188 32.476562 L 39.820312 31.414062 L 39.28125 30.441406 L 38.652344 29.996094 L 38.652344 28.882812 L 38.066406 28.296875 L 37.777344 27.570312 L 38.066406 26.398438 L 37.875 25.523438 L 36.757812 24.847656 L 36.464844 24.316406 L 35.882812 23.785156 L 35.882812 23.105469 L 36.757812 21.890625 L 36.898438 21.207031 L 36.996094 19.410156 L 37.441406 18.628906 L 37.679688 17.21875 L 39.476562 17.121094 L 41.371094 15.757812 L 40.933594 14.933594 L 40.785156 13.960938 L 40.785156 12.929688 L 42.394531 10.253906 L 42.441406 10.210938 L 41.03125 9.722656 L 39.960938 9.191406 L 38.597656 8.847656 L 37.289062 8.898438 L 36.660156 9.527344 L 36.464844 10.15625 L 35.882812 10.253906 L 34.226562 8.605469 L 33.933594 8.023438 L 33.835938 7.242188 L 32.421875 6.355469 L 31.933594 5.921875 L 31.835938 5.1875 L 32.472656 4.320312 L 31.402344 4.167969 L 29.847656 3.539062 L 29.359375 3.203125 L 28.675781 2.867188 L 24.011719 2.8125 L 23.820312 3.203125 L 23.234375 3.546875 L 23.191406 3.644531 C 23.15625 3.738281 23.167969 3.804688 23.234375 3.839844 C 23.46875 4.027344 23.679688 4.238281 23.871094 4.46875 L 24.011719 5.105469 L 23.289062 5.445312 Z M 21.394531 6.703125 " fill-opacity="1" fill-rule="nonzero"/><path fill="#000000" d="M 41.898438 42.386719 C 41.871094 42.386719 41.839844 42.378906 41.816406 42.363281 C 41.753906 42.328125 41.722656 42.277344 41.722656 42.207031 L 41.722656 42.078125 L 41.21875 41.390625 C 41.183594 41.347656 41.175781 41.300781 41.1875 41.246094 L 41.328125 40.617188 L 41.105469 40.007812 L 40.421875 39.140625 L 39.992188 38.925781 L 39.835938 39.855469 C 39.824219 39.914062 39.792969 39.957031 39.738281 39.984375 C 39.6875 40.011719 39.632812 40.011719 39.578125 39.984375 L 38.855469 39.601562 C 38.832031 39.589844 38.8125 39.574219 38.796875 39.554688 L 38.214844 38.820312 C 38.191406 38.789062 38.175781 38.757812 38.175781 38.71875 L 38.078125 37.070312 C 38.074219 37.019531 38.089844 36.972656 38.128906 36.933594 L 38.386719 36.679688 L 38.601562 35.707031 L 38.332031 34.945312 L 37.636719 33.925781 L 37.078125 33.507812 C 37.035156 33.476562 37.015625 33.4375 37.007812 33.386719 L 36.976562 33.164062 L 36.539062 33.039062 L 36.316406 33.402344 C 36.308594 33.417969 36.296875 33.429688 36.28125 33.441406 L 35.699219 33.972656 C 35.621094 34.042969 35.542969 34.042969 35.464844 33.972656 L 32.714844 31.703125 L 31.367188 31.050781 L 30.769531 31.9375 C 30.726562 32 30.667969 32.027344 30.59375 32.015625 L 29.53125 31.835938 L 29.289062 32.519531 C 29.28125 32.542969 29.269531 32.5625 29.253906 32.578125 L 28.085938 33.898438 C 28.0625 33.925781 28.035156 33.941406 28.003906 33.953125 L 27.027344 34.234375 L 25.640625 35.558594 C 25.621094 35.578125 25.601562 35.589844 25.578125 35.597656 L 23.394531 36.351562 C 23.355469 36.363281 23.320312 36.363281 23.28125 36.351562 L 21.929688 35.90625 L 21.90625 35.90625 L 20.339844 35.144531 L 19.195312 35.144531 L 17.875 35.714844 C 17.847656 35.726562 17.820312 35.734375 17.789062 35.730469 L 16.371094 35.589844 C 16.308594 35.582031 16.261719 35.550781 16.230469 35.492188 L 15.234375 33.585938 L 14.160156 32.878906 C 14.117188 32.847656 14.09375 32.808594 14.082031 32.761719 C 14.074219 32.710938 14.085938 32.664062 14.113281 32.621094 L 15.089844 31.308594 C 15.105469 31.289062 15.128906 31.269531 15.152344 31.257812 L 17.644531 30.074219 L 17.71875 29.484375 L 17.09375 28.808594 C 17.074219 28.789062 17.058594 28.765625 17.050781 28.738281 L 16.757812 27.765625 C 16.75 27.730469 16.75 27.695312 16.757812 27.65625 L 17.230469 26.207031 L 16.179688 23.167969 L 14.53125 20.117188 C 14.488281 20.03125 14.5 19.957031 14.578125 19.894531 L 15.710938 18.964844 L 15.121094 18.515625 L 15.109375 18.503906 C 14.894531 18.339844 14.660156 18.207031 14.414062 18.097656 L 13.882812 17.804688 C 13.847656 17.78125 13.820312 17.75 13.804688 17.710938 L 13.226562 16.269531 L 12.609375 15.382812 L 10.804688 15.339844 C 10.785156 15.339844 10.769531 15.339844 10.75 15.332031 L 7.445312 14.230469 L 5.835938 14.558594 C 5.808594 14.5625 5.78125 14.5625 5.757812 14.558594 C 4.554688 14.257812 4.300781 14.226562 4.25 14.226562 C 4.136719 14.234375 4.019531 14.246094 3.90625 14.265625 L 3.535156 14.410156 C 3.3125 14.503906 3.070312 14.601562 2.808594 14.703125 C 2.605469 14.769531 2.398438 14.820312 2.1875 14.855469 L 1.90625 14.855469 C 1.847656 14.855469 1.796875 14.832031 1.761719 14.78125 C 1.546875 14.496094 1.421875 14.464844 1.375 14.464844 C 1.171875 14.457031 1.003906 14.375 0.871094 14.226562 L 0.691406 14.09375 C 0.65625 14.066406 0.632812 14.03125 0.625 13.988281 L 0.484375 13.359375 L 0.0976562 12.253906 C 0.0664062 12.15625 0.09375 12.085938 0.1875 12.039062 L 2.222656 11.019531 C 2.242188 11.007812 2.261719 11.003906 2.285156 11 L 3.234375 10.910156 L 3.621094 10.480469 L 4.035156 9.886719 L 4.371094 8.742188 C 4.371094 8.734375 4.375 8.726562 4.378906 8.71875 L 4.671875 8.082031 C 4.699219 8.027344 4.746094 7.996094 4.808594 7.988281 L 5.292969 7.941406 C 5.328125 7.941406 5.359375 7.945312 5.390625 7.960938 L 7.375 8.957031 L 9.3125 8.671875 C 9.367188 8.664062 9.414062 8.675781 9.453125 8.710938 L 9.796875 9.003906 L 9.816406 9.023438 L 10.167969 9.433594 L 11.121094 9.839844 L 12.695312 9.882812 L 13.183594 9.621094 L 13.203125 9.613281 L 13.59375 9.460938 C 13.800781 9.375 14.015625 9.324219 14.242188 9.308594 L 16.363281 9.308594 L 17.78125 8.269531 L 17.8125 8.25 L 18.679688 7.859375 C 18.699219 7.851562 18.714844 7.847656 18.734375 7.84375 C 18.984375 7.730469 19.21875 7.597656 19.441406 7.4375 C 19.449219 7.433594 19.457031 7.429688 19.460938 7.429688 L 21.300781 6.558594 L 23.183594 5.296875 L 23.207031 5.28125 L 23.804688 5.007812 L 23.703125 4.554688 C 23.535156 4.355469 23.347656 4.167969 23.148438 3.996094 C 23.074219 3.957031 23.027344 3.898438 23 3.816406 C 22.976562 3.738281 22.980469 3.660156 23.019531 3.582031 L 23.066406 3.476562 C 23.082031 3.441406 23.105469 3.414062 23.140625 3.394531 L 23.671875 3.078125 L 23.847656 2.730469 C 23.882812 2.671875 23.933594 2.636719 24.007812 2.636719 L 28.671875 2.6875 C 28.695312 2.6875 28.722656 2.695312 28.746094 2.707031 L 29.429688 3.042969 L 29.453125 3.058594 L 29.921875 3.390625 L 31.441406 4.003906 L 32.492188 4.152344 C 32.558594 4.160156 32.601562 4.195312 32.628906 4.257812 C 32.65625 4.320312 32.648438 4.378906 32.609375 4.433594 L 32.011719 5.242188 L 32.09375 5.84375 L 32.527344 6.214844 L 33.921875 7.082031 C 33.96875 7.113281 33.996094 7.15625 34.003906 7.210938 L 34.097656 7.960938 L 34.363281 8.492188 L 35.933594 10.058594 L 36.320312 9.992188 L 36.480469 9.460938 C 36.492188 9.433594 36.507812 9.410156 36.527344 9.390625 L 37.15625 8.757812 C 37.1875 8.726562 37.226562 8.710938 37.273438 8.707031 L 38.582031 8.65625 C 38.601562 8.652344 38.617188 8.652344 38.632812 8.65625 L 39.996094 9 L 40.03125 9.011719 L 41.09375 9.542969 L 42.488281 10.027344 C 42.550781 10.046875 42.589844 10.089844 42.605469 10.15625 C 42.621094 10.21875 42.605469 10.273438 42.558594 10.320312 L 42.527344 10.347656 L 40.953125 12.964844 L 40.953125 13.929688 L 41.097656 14.859375 L 41.515625 15.660156 C 41.5625 15.75 41.546875 15.824219 41.464844 15.886719 L 39.570312 17.25 C 39.539062 17.269531 39.507812 17.28125 39.476562 17.285156 L 37.820312 17.371094 L 37.605469 18.644531 C 37.601562 18.664062 37.59375 18.683594 37.585938 18.699219 L 37.164062 19.445312 L 37.066406 21.199219 C 37.070312 21.210938 37.070312 21.21875 37.066406 21.226562 L 36.925781 21.910156 C 36.921875 21.933594 36.910156 21.957031 36.894531 21.976562 L 36.054688 23.144531 L 36.054688 23.691406 L 36.585938 24.171875 C 36.601562 24.183594 36.613281 24.199219 36.621094 24.214844 L 36.890625 24.714844 L 37.964844 25.363281 C 38.007812 25.390625 38.035156 25.429688 38.046875 25.476562 L 38.242188 26.355469 C 38.246094 26.382812 38.246094 26.40625 38.242188 26.433594 L 37.964844 27.550781 L 38.210938 28.191406 L 38.769531 28.746094 C 38.804688 28.78125 38.820312 28.824219 38.820312 28.875 L 38.820312 29.898438 L 39.375 30.289062 C 39.394531 30.304688 39.414062 30.324219 39.425781 30.347656 L 39.957031 31.304688 L 40.839844 32.332031 L 41.984375 33 C 42 33.011719 42.015625 33.023438 42.03125 33.039062 L 42.878906 34.046875 L 43.480469 34.414062 L 44.832031 34.984375 C 44.902344 35.015625 44.9375 35.070312 44.9375 35.148438 L 44.9375 35.199219 C 44.9375 35.238281 44.925781 35.273438 44.902344 35.308594 L 44.613281 35.695312 C 44.597656 35.71875 44.578125 35.734375 44.554688 35.746094 L 43.269531 36.457031 L 42.710938 37.183594 L 43.375 37.851562 C 43.394531 37.871094 43.40625 37.894531 43.417969 37.917969 L 43.710938 38.804688 C 43.714844 38.835938 43.714844 38.863281 43.710938 38.894531 L 43.566406 39.671875 C 43.566406 39.6875 43.5625 39.703125 43.554688 39.714844 L 42.492188 42.003906 C 42.480469 42.03125 42.457031 42.058594 42.429688 42.078125 L 41.996094 42.359375 C 41.964844 42.378906 41.933594 42.386719 41.898438 42.386719 Z M 41.546875 41.246094 L 42.03125 41.90625 L 42.191406 41.804688 L 43.230469 39.582031 L 43.359375 38.875 L 43.097656 38.082031 L 42.355469 37.328125 C 42.28125 37.253906 42.277344 37.179688 42.339844 37.097656 L 43.011719 36.210938 C 43.027344 36.191406 43.046875 36.175781 43.070312 36.164062 L 44.355469 35.453125 L 44.515625 35.234375 L 43.335938 34.746094 L 43.3125 34.734375 L 42.675781 34.34375 C 42.660156 34.335938 42.644531 34.324219 42.632812 34.308594 L 41.785156 33.304688 L 40.644531 32.636719 C 40.625 32.625 40.609375 32.613281 40.597656 32.601562 L 39.675781 31.539062 C 39.667969 31.527344 39.664062 31.519531 39.65625 31.507812 L 39.136719 30.566406 L 38.539062 30.140625 C 38.492188 30.105469 38.464844 30.054688 38.464844 29.992188 L 38.464844 28.949219 L 37.933594 28.417969 C 37.917969 28.402344 37.90625 28.378906 37.894531 28.359375 L 37.605469 27.632812 C 37.59375 27.59375 37.59375 27.558594 37.605469 27.523438 L 37.886719 26.394531 L 37.71875 25.632812 L 36.65625 25 C 36.632812 24.980469 36.609375 24.960938 36.59375 24.933594 L 36.316406 24.417969 L 35.753906 23.90625 C 35.714844 23.871094 35.695312 23.828125 35.695312 23.773438 L 35.695312 23.09375 C 35.695312 23.054688 35.707031 23.019531 35.730469 22.988281 L 36.582031 21.804688 L 36.714844 21.171875 L 36.8125 19.390625 C 36.8125 19.359375 36.820312 19.335938 36.835938 19.3125 L 37.261719 18.558594 L 37.496094 17.179688 C 37.511719 17.085938 37.566406 17.035156 37.660156 17.03125 L 39.40625 16.9375 L 41.132812 15.699219 L 40.777344 15.011719 C 40.769531 14.992188 40.761719 14.972656 40.757812 14.953125 L 40.609375 13.980469 C 40.605469 13.96875 40.605469 13.960938 40.609375 13.953125 L 40.609375 12.925781 C 40.609375 12.890625 40.617188 12.859375 40.632812 12.832031 L 42.15625 10.289062 L 40.972656 9.882812 L 40.953125 9.871094 L 39.890625 9.339844 L 38.570312 9.007812 L 37.355469 9.054688 L 36.804688 9.605469 L 36.628906 10.191406 C 36.605469 10.261719 36.5625 10.304688 36.488281 10.316406 L 35.90625 10.414062 C 35.84375 10.421875 35.792969 10.40625 35.75 10.363281 L 34.097656 8.714844 C 34.082031 8.703125 34.074219 8.6875 34.0625 8.667969 L 33.773438 8.085938 C 33.761719 8.066406 33.753906 8.046875 33.753906 8.027344 L 33.667969 7.332031 L 32.332031 6.5 L 32.304688 6.480469 L 31.820312 6.046875 C 31.785156 6.015625 31.769531 5.980469 31.761719 5.9375 L 31.664062 5.199219 C 31.660156 5.152344 31.667969 5.113281 31.699219 5.074219 L 32.160156 4.445312 L 31.382812 4.335938 C 31.367188 4.332031 31.355469 4.328125 31.339844 4.324219 L 29.785156 3.695312 C 29.769531 3.6875 29.757812 3.683594 29.746094 3.675781 L 29.273438 3.335938 L 28.636719 3.023438 L 24.125 2.972656 L 23.980469 3.265625 C 23.964844 3.292969 23.941406 3.320312 23.914062 3.335938 L 23.382812 3.652344 L 23.367188 3.6875 C 23.597656 3.882812 23.8125 4.097656 24.011719 4.332031 C 24.03125 4.355469 24.046875 4.382812 24.054688 4.414062 L 24.195312 5.050781 C 24.21875 5.144531 24.183594 5.210938 24.097656 5.25 L 23.386719 5.582031 L 21.507812 6.839844 L 21.484375 6.851562 L 19.644531 7.726562 C 19.070312 8.089844 18.902344 8.164062 18.824219 8.179688 L 18.003906 8.546875 L 16.554688 9.613281 C 16.523438 9.632812 16.488281 9.644531 16.453125 9.644531 L 14.25 9.644531 C 14.066406 9.660156 13.890625 9.703125 13.71875 9.777344 L 13.34375 9.921875 L 12.8125 10.199219 C 12.785156 10.214844 12.757812 10.222656 12.726562 10.222656 L 11.070312 10.175781 C 11.046875 10.175781 11.027344 10.171875 11.007812 10.164062 L 9.988281 9.730469 C 9.964844 9.71875 9.941406 9.703125 9.925781 9.683594 L 9.542969 9.25 L 9.269531 9.015625 L 7.359375 9.296875 C 7.320312 9.304688 7.285156 9.296875 7.253906 9.28125 L 5.261719 8.285156 L 4.929688 8.316406 L 4.683594 8.847656 L 4.34375 10.003906 C 4.335938 10.023438 4.328125 10.039062 4.316406 10.054688 L 3.882812 10.683594 L 3.871094 10.703125 L 3.425781 11.1875 C 3.398438 11.222656 3.359375 11.242188 3.3125 11.246094 L 2.328125 11.339844 L 0.460938 12.277344 L 0.796875 13.246094 C 0.800781 13.25 0.800781 13.257812 0.796875 13.265625 L 0.925781 13.835938 L 1.066406 13.941406 L 1.085938 13.957031 C 1.15625 14.042969 1.242188 14.089844 1.351562 14.101562 C 1.554688 14.101562 1.757812 14.226562 1.96875 14.492188 L 2.117188 14.492188 C 2.308594 14.464844 2.5 14.425781 2.683594 14.367188 C 2.933594 14.269531 3.175781 14.171875 3.390625 14.078125 L 3.785156 13.925781 L 3.824219 13.917969 C 3.960938 13.890625 4.101562 13.875 4.238281 13.871094 C 4.339844 13.871094 4.605469 13.910156 5.792969 14.203125 L 7.410156 13.875 C 7.4375 13.867188 7.46875 13.867188 7.5 13.875 L 10.828125 14.988281 L 12.695312 15.03125 C 12.753906 15.03125 12.800781 15.058594 12.835938 15.109375 L 13.515625 16.082031 C 13.523438 16.09375 13.53125 16.105469 13.535156 16.117188 L 14.097656 17.519531 L 14.570312 17.78125 C 14.84375 17.902344 15.097656 18.050781 15.335938 18.234375 L 16.097656 18.816406 C 16.144531 18.847656 16.167969 18.894531 16.167969 18.953125 C 16.167969 19.011719 16.148438 19.058594 16.101562 19.09375 L 14.90625 20.074219 L 16.5 23.007812 C 16.503906 23.019531 16.507812 23.027344 16.511719 23.035156 L 17.582031 26.144531 C 17.59375 26.183594 17.59375 26.222656 17.582031 26.261719 L 17.113281 27.714844 L 17.378906 28.597656 L 18.03125 29.308594 C 18.066406 29.347656 18.082031 29.394531 18.078125 29.453125 L 17.980469 30.222656 C 17.972656 30.285156 17.9375 30.332031 17.878906 30.359375 L 15.339844 31.558594 L 14.507812 32.679688 L 15.464844 33.304688 C 15.488281 33.320312 15.507812 33.34375 15.523438 33.371094 L 16.496094 35.234375 L 17.773438 35.363281 L 19.082031 34.796875 C 19.105469 34.789062 19.128906 34.78125 19.15625 34.78125 L 20.382812 34.78125 C 20.410156 34.78125 20.4375 34.789062 20.460938 34.800781 L 22.054688 35.574219 L 23.34375 35.996094 L 25.433594 35.289062 L 26.824219 33.960938 C 26.84375 33.9375 26.867188 33.925781 26.894531 33.917969 L 27.863281 33.640625 L 28.976562 32.382812 L 29.257812 31.59375 C 29.289062 31.5 29.355469 31.460938 29.449219 31.476562 L 30.550781 31.652344 L 31.167969 30.726562 C 31.226562 30.644531 31.300781 30.625 31.394531 30.667969 L 32.898438 31.394531 C 32.910156 31.398438 32.921875 31.40625 32.933594 31.417969 L 35.589844 33.605469 L 36.042969 33.195312 L 36.320312 32.726562 C 36.367188 32.652344 36.433594 32.625 36.519531 32.648438 L 37.199219 32.84375 C 37.273438 32.867188 37.316406 32.914062 37.328125 32.992188 L 37.363281 33.253906 L 37.894531 33.652344 C 37.910156 33.664062 37.921875 33.679688 37.933594 33.695312 L 38.660156 34.757812 C 38.667969 34.773438 38.675781 34.785156 38.679688 34.800781 L 38.972656 35.632812 C 38.984375 35.664062 38.984375 35.699219 38.972656 35.730469 L 38.734375 36.792969 C 38.726562 36.828125 38.707031 36.855469 38.6875 36.878906 L 38.441406 37.128906 L 38.527344 38.640625 L 39.058594 39.304688 L 39.535156 39.554688 L 39.6875 38.632812 C 39.699219 38.574219 39.730469 38.53125 39.785156 38.503906 C 39.835938 38.476562 39.890625 38.476562 39.941406 38.503906 L 40.625 38.839844 C 40.648438 38.851562 40.667969 38.871094 40.6875 38.890625 L 41.410156 39.8125 C 41.421875 39.828125 41.429688 39.84375 41.4375 39.859375 L 41.6875 40.542969 C 41.695312 40.578125 41.695312 40.609375 41.6875 40.644531 Z M 18.765625 7.835938 Z M 23.347656 3.734375 Z M 23.347656 3.734375 " fill-opacity="1" fill-rule="nonzero"/></g></svg>