<svg xmlns="http://www.w3.org/2000/svg" xmlns:xlink="http://www.w3.org/1999/xlink" width="500" zoomAndPan="magnify" viewBox="0 0 375 225" height="300" preserveAspectRatio="xMidYMid meet" version="1.0"><path fill="#68b2e3" d="M 32.980469 153.945312 L 38.574219 157.671875 L 48.578125 157.417969 L 51.96875 152.757812 L 52.476562 149.535156 L 47.816406 148.097656 L 35.945312 151.316406 L 32.894531 153.945312 M 7.714844 88.261719 L 1.695312 93.347656 L 12.886719 100.804688 L 32.894531 100.296875 L 39.847656 90.972656 L 40.777344 84.53125 L 31.453125 81.734375 L 7.714844 88.175781 M 72.910156 115.210938 L 74.773438 115.636719 L 78.503906 114.28125 L 95.292969 104.957031 L 98.003906 100.296875 L 94.78125 95.210938 L 98.003906 89.617188 L 104.53125 89.109375 L 115.296875 82.667969 L 122.25 76.566406 L 130.136719 74.277344 L 135.222656 69.617188 L 138.019531 61.734375 L 142.171875 57.496094 L 149.125 55.632812 L 148.703125 50.96875 L 152.855469 48.171875 L 164.980469 44.953125 L 185.917969 36.136719 L 185.917969 32.832031 L 184.222656 24.527344 L 189.308594 18.933594 L 194.820312 8.761719 L 191.089844 1.730469 L 167.863281 1.730469 L 160.402344 11.050781 L 170.148438 13.847656 L 174.8125 24.527344 L 168.285156 34.359375 L 157.179688 37.578125 L 152.515625 42.324219 L 139.460938 42.75 L 125.472656 49.785156 L 115.722656 51.648438 L 102.15625 60.460938 L 88.253906 66.054688 L 85.964844 75.378906 L 88.253906 86.566406 L 85.457031 95.378906 L 72.910156 115.382812 M 70.621094 128.773438 L 63.582031 149.28125 L 60.445312 170.214844 L 63.246094 176.742188 L 57.054688 196.742188 L 43.492188 217.085938 L 46.289062 223.1875 L 76.046875 222.253906 L 123.523438 215.21875 L 124.453125 207.335938 L 134.289062 190.558594 L 147.769531 188.691406 L 157.519531 188.691406 L 162.179688 186.828125 L 169.132812 181.320312 L 175.660156 180.808594 L 180.324219 181.742188 L 195.582031 188.691406 L 209.148438 198.945312 L 217.457031 198.015625 L 226.78125 195.21875 L 237.972656 189.199219 L 246.449219 182.675781 L 252.46875 164.539062 L 250.605469 158.945312 L 249.671875 143.09375 L 246.449219 130.550781 L 240.855469 123.09375 L 238.480469 114.28125 L 245.941406 106.398438 L 257.132812 98.941406 L 261.796875 90.972656 L 262.21875 89.617188 L 247.808594 84.023438 L 237.125 77.496094 L 235.261719 72.835938 L 235.261719 67.75 L 238.058594 62.664062 L 233.902344 58.9375 L 223.222656 60.972656 L 213.472656 60.039062 L 192.023438 69.785156 L 183.207031 68.851562 L 173.03125 64.191406 L 158.621094 60.972656 L 150.144531 70.207031 L 138.105469 80.039062 L 132 79.53125 L 127.847656 87.5 L 117.671875 95.378906 L 107.414062 95.378906 L 106.058594 108.855469 L 99.445312 111.566406 L 95.292969 120.890625 L 88.253906 127.839844 L 79.859375 129.28125 L 73.332031 126.484375 Z M 70.621094 128.773438 " fill-opacity="1" fill-rule="nonzero"/><path fill="#000000" d="M 46.375 224.964844 C 46.042969 224.96875 45.738281 224.878906 45.457031 224.699219 C 45.179688 224.523438 44.96875 224.285156 44.832031 223.984375 L 42.035156 217.878906 C 41.902344 217.605469 41.847656 217.316406 41.875 217.015625 C 41.898438 216.710938 41.996094 216.4375 42.167969 216.1875 L 55.511719 195.964844 L 61.363281 176.792969 L 58.75 170.878906 C 58.625 170.582031 58.585938 170.277344 58.632812 169.960938 L 61.855469 149.027344 C 61.84375 148.933594 61.84375 148.835938 61.855469 148.738281 L 68.890625 128.230469 C 68.992188 127.933594 69.160156 127.6875 69.398438 127.484375 L 72.128906 125.195312 C 72.367188 125 72.636719 124.878906 72.941406 124.828125 C 73.242188 124.78125 73.539062 124.8125 73.824219 124.925781 L 79.894531 127.519531 L 87.269531 126.265625 L 93.695312 119.90625 L 97.734375 110.871094 C 97.914062 110.46875 98.207031 110.179688 98.613281 110.007812 L 104.210938 107.601562 L 105.464844 95.125 C 105.484375 94.917969 105.542969 94.71875 105.640625 94.527344 C 105.734375 94.339844 105.859375 94.175781 106.015625 94.035156 C 106.175781 93.894531 106.351562 93.785156 106.546875 93.710938 C 106.746094 93.636719 106.949219 93.597656 107.160156 93.601562 L 116.839844 93.601562 L 126.355469 86.292969 L 130.320312 78.667969 C 130.480469 78.351562 130.714844 78.113281 131.027344 77.945312 C 131.335938 77.777344 131.667969 77.714844 132.015625 77.75 L 137.441406 78.210938 L 148.855469 68.886719 L 157.164062 59.75 C 157.371094 59.511719 157.628906 59.34375 157.9375 59.246094 C 158.242188 59.152344 158.546875 59.144531 158.859375 59.226562 L 173.269531 62.445312 L 173.59375 62.5625 L 183.613281 67.105469 L 191.683594 67.972656 L 212.726562 58.410156 C 213.003906 58.289062 213.289062 58.238281 213.589844 58.257812 L 223.101562 59.175781 L 233.648438 57.34375 C 234.191406 57.253906 234.667969 57.394531 235.074219 57.765625 L 239.226562 61.496094 C 239.519531 61.757812 239.699219 62.082031 239.765625 62.46875 C 239.832031 62.855469 239.769531 63.21875 239.585938 63.5625 L 236.988281 68.277344 L 236.988281 72.597656 L 238.53125 76.429688 L 248.605469 82.582031 L 262.863281 88.125 C 263.0625 88.203125 263.242188 88.316406 263.398438 88.460938 C 263.558594 88.609375 263.683594 88.777344 263.773438 88.972656 C 263.867188 89.164062 263.921875 89.367188 263.9375 89.582031 C 263.953125 89.796875 263.929688 90.003906 263.863281 90.210938 L 263.441406 91.566406 C 263.40625 91.6875 263.355469 91.800781 263.289062 91.90625 L 258.625 99.871094 C 258.503906 100.109375 258.328125 100.296875 258.097656 100.429688 L 247.078125 107.789062 L 240.398438 114.839844 L 242.449219 122.414062 L 247.839844 129.621094 C 247.980469 129.796875 248.078125 129.992188 248.128906 130.214844 L 251.351562 142.757812 L 251.351562 143.078125 L 252.265625 158.707031 L 254.0625 164.082031 C 254.183594 164.4375 254.183594 164.792969 254.0625 165.148438 L 248.042969 183.285156 C 247.9375 183.617188 247.742188 183.886719 247.46875 184.097656 L 238.992188 190.625 L 238.753906 190.777344 L 227.5625 196.792969 L 227.257812 196.929688 L 217.929688 199.726562 L 217.625 199.726562 L 209.316406 200.660156 C 208.875 200.710938 208.472656 200.601562 208.113281 200.335938 L 194.703125 190.167969 L 179.695312 183.386719 L 175.457031 182.539062 L 169.675781 182.980469 L 163.128906 188.167969 C 163 188.273438 162.859375 188.355469 162.707031 188.421875 L 158.042969 190.285156 C 157.84375 190.367188 157.632812 190.40625 157.417969 190.402344 L 147.785156 190.402344 L 135.238281 192.097656 L 125.996094 207.863281 L 125.097656 215.40625 C 125.054688 215.785156 124.898438 216.109375 124.636719 216.382812 C 124.371094 216.65625 124.050781 216.824219 123.675781 216.878906 L 76.199219 223.914062 L 75.996094 223.914062 L 46.238281 224.847656 Z M 45.507812 217.320312 L 47.441406 221.542969 L 75.980469 220.644531 L 122.082031 213.863281 L 122.859375 207.269531 C 122.886719 207.035156 122.960938 206.8125 123.082031 206.609375 L 132.914062 189.828125 C 133.191406 189.363281 133.597656 189.089844 134.136719 189.015625 L 147.617188 187.148438 L 157.28125 187.148438 L 161.402344 185.453125 L 168.183594 180.097656 C 168.449219 179.882812 168.757812 179.757812 169.097656 179.726562 L 175.628906 179.21875 C 175.785156 179.199219 175.945312 179.199219 176.101562 179.21875 L 180.765625 180.148438 C 180.886719 180.171875 181.007812 180.210938 181.121094 180.269531 L 196.464844 187.21875 C 196.578125 187.269531 196.6875 187.332031 196.789062 187.402344 L 209.808594 197.253906 L 217.304688 196.421875 L 226.324219 193.710938 L 237.226562 187.84375 L 245.113281 181.726562 L 250.792969 164.605469 L 249.097656 159.519531 C 249.078125 159.375 249.078125 159.226562 249.097656 159.078125 L 248.179688 143.402344 L 245.078125 131.332031 L 239.6875 124.144531 C 239.554688 123.96875 239.460938 123.777344 239.398438 123.570312 L 237.023438 114.753906 C 236.945312 114.46875 236.945312 114.183594 237.015625 113.894531 C 237.089844 113.609375 237.226562 113.359375 237.429688 113.144531 L 244.890625 105.261719 C 244.984375 105.171875 245.085938 105.09375 245.195312 105.023438 L 256.046875 97.785156 L 260.234375 90.632812 L 247.382812 85.632812 C 247.289062 85.597656 247.199219 85.554688 247.113281 85.496094 L 236.429688 78.972656 C 236.109375 78.777344 235.875 78.507812 235.734375 78.160156 L 233.871094 73.496094 C 233.789062 73.296875 233.75 73.085938 233.75 72.871094 L 233.75 67.785156 C 233.75 67.496094 233.816406 67.226562 233.953125 66.972656 L 236.109375 63.054688 L 233.566406 60.785156 L 223.613281 62.480469 L 223.152344 62.480469 L 213.863281 61.582031 L 192.703125 71.242188 C 192.425781 71.363281 192.136719 71.410156 191.835938 71.378906 L 183.003906 70.445312 C 182.824219 70.425781 182.65625 70.382812 182.492188 70.308594 L 172.320312 65.71875 L 159.042969 62.75 L 151.3125 71.226562 C 151.257812 71.292969 151.195312 71.347656 151.125 71.394531 L 139.085938 81.226562 C 138.738281 81.519531 138.335938 81.648438 137.882812 81.617188 L 132.898438 81.191406 L 129.269531 88.160156 C 129.148438 88.375 128.992188 88.5625 128.796875 88.71875 L 118.621094 96.566406 C 118.316406 96.804688 117.972656 96.921875 117.585938 96.921875 L 108.855469 96.921875 L 107.667969 108.871094 C 107.636719 109.179688 107.527344 109.460938 107.34375 109.710938 C 107.15625 109.957031 106.921875 110.144531 106.632812 110.261719 L 100.71875 112.789062 L 96.835938 121.519531 C 96.746094 121.710938 96.628906 121.878906 96.476562 122.027344 L 89.441406 128.976562 C 89.191406 129.226562 88.890625 129.386719 88.542969 129.449219 L 80.066406 130.890625 C 79.738281 130.945312 79.421875 130.90625 79.117188 130.773438 L 73.535156 128.382812 L 71.992188 129.703125 L 65.210938 149.621094 L 62.09375 169.960938 L 64.703125 176.046875 C 64.84375 176.429688 64.84375 176.816406 64.703125 177.199219 L 58.597656 197.199219 C 58.550781 197.359375 58.476562 197.507812 58.378906 197.640625 Z M 38.574219 159.367188 C 38.234375 159.367188 37.921875 159.269531 37.640625 159.078125 L 32.046875 155.351562 C 31.574219 155.042969 31.320312 154.605469 31.285156 154.046875 C 31.25 153.484375 31.449219 153.019531 31.875 152.65625 L 34.929688 150.027344 C 35.117188 149.851562 35.335938 149.742188 35.589844 149.6875 L 47.460938 146.453125 C 47.777344 146.367188 48.09375 146.367188 48.410156 146.453125 L 53.070312 147.910156 C 53.265625 147.96875 53.441406 148.0625 53.605469 148.1875 C 53.765625 148.3125 53.898438 148.460938 54.007812 148.632812 C 54.113281 148.804688 54.1875 148.992188 54.226562 149.191406 C 54.269531 149.390625 54.273438 149.589844 54.242188 149.789062 L 53.734375 153.011719 C 53.6875 153.285156 53.578125 153.535156 53.410156 153.757812 L 49.933594 158.417969 C 49.609375 158.855469 49.171875 159.082031 48.628906 159.097656 L 38.625 159.351562 Z M 35.777344 153.773438 L 39.066406 155.960938 L 47.714844 155.742188 L 50.441406 152.078125 L 50.664062 150.722656 L 47.867188 149.859375 L 36.84375 152.859375 Z M 74.773438 117.414062 L 74.402344 117.414062 L 72.535156 116.992188 C 71.964844 116.859375 71.570312 116.519531 71.351562 115.976562 C 71.125 115.441406 71.164062 114.925781 71.46875 114.433594 L 83.914062 94.617188 L 86.507812 86.429688 L 84.304688 75.667969 C 84.242188 75.417969 84.242188 75.167969 84.304688 74.921875 L 86.59375 65.597656 C 86.730469 65.035156 87.070312 64.644531 87.609375 64.429688 L 101.445312 58.902344 L 114.773438 50.171875 C 114.960938 50.050781 115.164062 49.972656 115.382812 49.9375 L 124.914062 48.105469 L 138.679688 41.191406 C 138.902344 41.074219 139.140625 41.011719 139.394531 41.003906 L 151.769531 40.597656 L 155.957031 36.410156 C 156.164062 36.207031 156.40625 36.066406 156.6875 35.984375 L 167.199219 32.933594 L 172.878906 24.460938 L 168.964844 15.203125 L 159.976562 12.628906 C 159.84375 12.589844 159.71875 12.535156 159.597656 12.464844 C 159.480469 12.394531 159.371094 12.308594 159.269531 12.210938 C 159.171875 12.117188 159.085938 12.007812 159.011719 11.890625 C 158.941406 11.773438 158.882812 11.644531 158.839844 11.515625 C 158.800781 11.382812 158.773438 11.246094 158.765625 11.109375 C 158.757812 10.96875 158.765625 10.832031 158.789062 10.695312 C 158.816406 10.558594 158.855469 10.429688 158.914062 10.300781 C 158.972656 10.175781 159.042969 10.058594 159.128906 9.949219 L 166.589844 0.628906 C 166.925781 0.199219 167.367188 -0.015625 167.914062 -0.015625 L 191.140625 -0.015625 C 191.453125 -0.015625 191.742188 0.0664062 192.011719 0.226562 C 192.28125 0.386719 192.488281 0.605469 192.632812 0.882812 L 196.363281 7.914062 C 196.652344 8.453125 196.652344 8.988281 196.363281 9.527344 L 190.851562 19.695312 C 190.78125 19.820312 190.699219 19.933594 190.597656 20.035156 L 185.917969 25.019531 L 187.613281 32.546875 C 187.625 32.667969 187.625 32.792969 187.613281 32.917969 L 187.613281 36.222656 C 187.613281 36.5625 187.519531 36.875 187.332031 37.160156 C 187.144531 37.441406 186.894531 37.648438 186.582031 37.78125 L 165.640625 46.597656 L 165.417969 46.683594 L 153.550781 49.816406 L 150.464844 51.902344 L 150.804688 55.5625 C 150.824219 55.761719 150.804688 55.960938 150.753906 56.152344 C 150.703125 56.347656 150.621094 56.527344 150.507812 56.691406 C 150.390625 56.855469 150.25 56.996094 150.085938 57.109375 C 149.921875 57.226562 149.742188 57.308594 149.550781 57.359375 L 143.039062 59.054688 L 139.476562 62.683594 L 136.796875 70.207031 C 136.703125 70.480469 136.550781 70.710938 136.339844 70.902344 L 131.167969 75.566406 C 130.976562 75.738281 130.757812 75.863281 130.507812 75.9375 L 122.980469 78.125 L 116.402344 84.023438 C 116.324219 84.09375 116.238281 84.15625 116.148438 84.210938 L 105.378906 90.652344 C 105.152344 90.78125 104.910156 90.859375 104.652344 90.886719 L 99.003906 91.328125 L 96.75 95.261719 L 99.410156 99.464844 C 99.5625 99.726562 99.636719 100.011719 99.636719 100.3125 C 99.636719 100.617188 99.5625 100.898438 99.410156 101.160156 L 96.699219 105.820312 C 96.550781 106.089844 96.339844 106.300781 96.070312 106.449219 L 79.285156 115.773438 L 79.03125 115.890625 L 75.300781 117.246094 C 75.132812 117.332031 74.960938 117.386719 74.773438 117.414062 Z M 87.695312 75.328125 L 89.917969 86.140625 C 89.984375 86.425781 89.984375 86.707031 89.917969 86.988281 L 87.117188 95.804688 C 87.078125 95.941406 87.023438 96.070312 86.949219 96.195312 L 76.082031 113.515625 L 77.777344 112.890625 L 94.035156 103.855469 L 96.003906 100.464844 L 93.339844 96.261719 C 93.191406 96 93.113281 95.71875 93.113281 95.414062 C 93.113281 95.109375 93.191406 94.828125 93.339844 94.566406 L 96.5625 88.972656 C 96.859375 88.453125 97.304688 88.171875 97.902344 88.125 L 104.039062 87.652344 L 114.332031 81.496094 L 121.113281 75.496094 C 121.304688 75.332031 121.519531 75.210938 121.757812 75.140625 L 129.289062 72.835938 L 133.847656 68.734375 L 136.511719 61.257812 C 136.585938 61.015625 136.71875 60.808594 136.898438 60.632812 L 141.054688 56.394531 C 141.265625 56.152344 141.527344 55.980469 141.835938 55.886719 L 147.414062 54.394531 L 147.109375 51.15625 C 147.078125 50.847656 147.132812 50.554688 147.265625 50.273438 C 147.402344 49.996094 147.597656 49.769531 147.855469 49.597656 L 152.007812 46.800781 C 152.167969 46.695312 152.335938 46.617188 152.515625 46.5625 L 164.539062 43.375 L 184.324219 35.054688 L 184.324219 33.054688 L 182.527344 24.898438 C 182.402344 24.316406 182.542969 23.808594 182.953125 23.375 L 188.039062 17.933594 L 193.023438 8.746094 L 190.191406 3.425781 L 168.675781 3.425781 L 163.316406 10.121094 L 170.625 12.222656 C 171.136719 12.367188 171.496094 12.683594 171.710938 13.171875 L 176.375 23.847656 C 176.613281 24.414062 176.5625 24.949219 176.21875 25.460938 L 169.691406 35.289062 C 169.464844 35.636719 169.15625 35.867188 168.761719 35.984375 L 158.078125 39.085938 L 153.703125 43.445312 C 153.382812 43.761719 153 43.925781 152.550781 43.9375 L 139.867188 44.34375 L 126.21875 51.207031 C 126.082031 51.292969 125.9375 51.34375 125.777344 51.359375 L 116.402344 53.15625 L 103.210938 61.800781 L 102.902344 61.953125 L 89.730469 67.226562 Z M 12.972656 102.585938 C 12.632812 102.582031 12.320312 102.484375 12.039062 102.296875 L 0.847656 94.835938 C 0.628906 94.691406 0.449219 94.503906 0.316406 94.273438 C 0.183594 94.042969 0.109375 93.796875 0.09375 93.53125 C 0.078125 93.269531 0.121094 93.011719 0.222656 92.769531 C 0.324219 92.523438 0.476562 92.316406 0.679688 92.140625 L 6.699219 86.972656 C 6.886719 86.796875 7.105469 86.683594 7.359375 86.632812 L 31.097656 80.191406 C 31.40625 80.105469 31.71875 80.105469 32.03125 80.191406 L 41.355469 82.988281 C 41.550781 83.046875 41.726562 83.140625 41.890625 83.261719 C 42.050781 83.382812 42.183594 83.53125 42.292969 83.703125 C 42.402344 83.871094 42.480469 84.058594 42.523438 84.253906 C 42.5625 84.453125 42.570312 84.652344 42.542969 84.855469 L 41.609375 91.296875 C 41.570312 91.582031 41.460938 91.84375 41.289062 92.074219 L 34.335938 101.398438 C 34.007812 101.832031 33.574219 102.058594 33.03125 102.074219 L 13.023438 102.585938 Z M 4.492188 93.261719 L 13.378906 99.175781 L 32.03125 98.703125 L 38.234375 90.398438 L 38.894531 85.820312 L 31.4375 83.582031 L 8.527344 89.785156 Z M 4.492188 93.261719 " fill-opacity="1" fill-rule="nonzero"/></svg>