<svg xmlns="http://www.w3.org/2000/svg" xmlns:xlink="http://www.w3.org/1999/xlink" width="500" zoomAndPan="magnify" viewBox="0 0 375 225" height="300" preserveAspectRatio="xMidYMid meet" version="1.0"><path fill="#f4951f" d="M 90.484375 15.71875 L 73.714844 17.863281 L 69.425781 21.433594 L 73.714844 28.191406 L 73 32.800781 L 44.792969 47.089844 L 36.210938 47.089844 L 30.492188 41.050781 L 20.871094 41.050781 L 19.441406 44.625 L 18.726562 55.988281 L 18.011719 58.132812 C 17.660156 59.191406 17.421875 60.273438 17.296875 61.382812 C 16.8125 63.707031 16.097656 65.957031 15.152344 68.136719 L 14.4375 69.175781 C 13.988281 69.984375 13.75 70.851562 13.722656 71.773438 C 13.722656 74.632812 14.328125 76.644531 15.542969 77.816406 L 16.453125 78.722656 C 17.972656 80.414062 18.726562 81.671875 18.726562 82.492188 L 18.726562 88.140625 C 19.074219 89.199219 19.203125 90.28125 19.117188 91.390625 C 19.074219 92.414062 19.3125 93.367188 19.832031 94.246094 C 20.796875 94.929688 21.621094 95.75 22.300781 96.714844 C 22.917969 97.339844 23.394531 98.054688 23.730469 98.859375 C 24.421875 102.886719 24.539062 105.511719 24.058594 106.71875 C 23.132812 107.828125 22.074219 108.777344 20.871094 109.578125 C 19.902344 110.632812 18.84375 111.585938 17.6875 112.433594 C 14.347656 116.242188 12.316406 118.253906 11.578125 118.476562 C 10.238281 118.945312 9.046875 119.660156 8.003906 120.621094 L 5.140625 122.371094 L 1.957031 128.089844 L 2.347656 134.195312 L 1.957031 134.519531 L 10.148438 135.949219 C 13.492188 137.378906 15.050781 138.699219 14.828125 139.910156 C 14.566406 141.296875 15.042969 144.609375 16.257812 149.847656 L 16.582031 151.992188 C 16.644531 153.179688 17.011719 154.261719 17.6875 155.238281 L 20.871094 159.136719 L 22.300781 160.175781 C 23.125 160.878906 24.078125 161.246094 25.160156 161.28125 L 28.738281 160.890625 L 33.027344 160.890625 C 34.617188 161.203125 36.152344 161.679688 37.640625 162.320312 L 46.9375 170.570312 L 45.832031 175.894531 C 45.832031 176.375 45.597656 178.273438 45.117188 181.609375 C 44.894531 184.949219 45.117188 186.714844 45.832031 186.9375 C 47.261719 187.195312 48.210938 188.625 48.691406 191.222656 L 46.222656 194.472656 L 47.652344 199.082031 C 48.335938 200.988281 48.335938 202.289062 47.652344 202.980469 C 46.71875 203.492188 45.851562 204.097656 45.050781 204.800781 C 44.101562 205.488281 43.621094 206.097656 43.621094 206.554688 C 43.0625 209.027344 42.238281 211.40625 41.152344 213.699219 L 40.046875 217.59375 L 49.472656 217.59375 L 56.621094 219.023438 C 58.128906 219.464844 59.667969 219.703125 61.234375 219.738281 C 62.5625 219.839844 63.859375 220.078125 65.136719 220.453125 C 67.363281 221.054688 69.617188 221.53125 71.894531 221.882812 L 73.324219 222.984375 C 74.238281 223.394531 75.191406 223.632812 76.1875 223.699219 C 77.132812 223.699219 78.683594 222.621094 80.800781 220.453125 C 81.695312 219.289062 82.300781 217.988281 82.621094 216.554688 L 81.90625 203.695312 L 80.800781 200.121094 L 80.800781 196.875 L 81.90625 192.976562 L 88.664062 189.015625 L 95.164062 186.546875 L 116.226562 174.789062 C 121 172.617188 123.382812 170.949219 123.375 169.789062 C 123.792969 167.996094 124.507812 166.328125 125.519531 164.789062 C 126.691406 162.410156 127.507812 160.734375 127.988281 159.785156 L 128.703125 157.316406 C 128.933594 156.125 129.542969 155.171875 130.523438 154.460938 C 131.433594 153.441406 132.257812 152.359375 132.996094 151.210938 C 133.527344 150.226562 134.113281 149.273438 134.75 148.355469 C 135.496094 147.183594 136.925781 144.457031 139.039062 140.171875 C 139.519531 139.949219 140.703125 139.234375 142.613281 138.027344 C 144.140625 137.371094 145.570312 136.546875 146.90625 135.558594 C 147.71875 134.863281 148.328125 134.019531 148.722656 133.027344 C 149.027344 132.53125 149.425781 132.128906 149.917969 131.820312 C 150.40625 131.511719 150.941406 131.328125 151.519531 131.273438 C 151.609375 131.273438 151.699219 131.296875 151.78125 131.335938 C 152.351562 131.433594 152.871094 131.648438 153.339844 131.984375 C 154.027344 132.207031 154.992188 132.441406 156.199219 132.699219 C 158.984375 133.359375 161.605469 134.417969 164.0625 135.882812 C 165.667969 136.996094 167.078125 138.316406 168.289062 139.84375 L 171.539062 145.886719 L 173.292969 153.03125 L 179.015625 152.316406 L 182.589844 148.417969 L 185.125 143.808594 C 186.035156 140.949219 186.617188 139.171875 186.878906 138.480469 C 186.878906 137.996094 187.59375 137.28125 189.023438 136.339844 C 189.589844 135.9375 190.171875 135.570312 190.777344 135.234375 C 191.289062 133.996094 191.898438 132.804688 192.597656 131.660156 C 193.324219 129.945312 194.148438 128.277344 195.070312 126.660156 C 195.433594 126.261719 195.867188 125.972656 196.371094 125.789062 C 196.875 125.605469 197.394531 125.550781 197.929688 125.621094 L 201.179688 125.621094 C 202.347656 125.359375 204.601562 124.753906 207.9375 123.800781 L 208.261719 117.046875 L 205.792969 113.863281 L 206.507812 111.71875 L 207.222656 110.292969 C 207.519531 109.976562 207.863281 109.738281 208.261719 109.578125 L 208.976562 108.863281 L 212.226562 107.757812 C 212.214844 107.664062 212.242188 107.582031 212.308594 107.515625 C 212.378906 107.445312 212.457031 107.417969 212.554688 107.433594 C 212.855469 106.371094 212.984375 105.289062 212.945312 104.1875 L 213.984375 101.71875 L 212.945312 97.429688 L 211.511719 95.675781 C 210.898438 93.757812 210.03125 91.960938 208.914062 90.285156 C 208.46875 89.621094 208.121094 88.90625 207.875 88.140625 C 207.367188 87.144531 206.761719 86.214844 206.054688 85.347656 C 205.566406 84.398438 205.699219 83.683594 206.445312 83.207031 C 207.390625 82.726562 207.875 82.363281 207.875 82.101562 C 208.035156 81.203125 208.382812 80.378906 208.914062 79.632812 C 209.230469 78.699219 209.707031 77.855469 210.34375 77.101562 C 212.097656 76.28125 213.898438 75.566406 215.738281 74.957031 C 216.691406 74.472656 217.992188 73.757812 219.636719 72.8125 L 222.109375 67.8125 L 223.539062 62.160156 C 223.929688 61 224.558594 59.980469 225.421875 59.109375 C 225.722656 58.808594 226.046875 58.496094 226.398438 58.199219 L 229.972656 54.625 L 234.261719 48.261719 L 235.367188 42.871094 L 232.507812 37.867188 C 230.789062 37.042969 228.988281 36.457031 227.113281 36.113281 C 226.53125 36.03125 225.96875 35.878906 225.421875 35.660156 C 224.734375 35.4375 223.863281 35.113281 222.824219 34.683594 L 219.636719 33.257812 C 218.144531 31.316406 216.476562 29.542969 214.632812 27.929688 C 213.472656 26.851562 212.757812 25.53125 212.488281 23.96875 C 212.0625 22.816406 211.824219 21.625 211.773438 20.394531 C 211.773438 19.914062 211.539062 19.8125 211.058594 20.070312 C 210.113281 20.265625 209.160156 20.375 208.199219 20.394531 C 205.933594 20.324219 203.679688 20.457031 201.4375 20.785156 C 200.957031 20.785156 200.242188 21.265625 199.292969 22.214844 L 197.539062 23.253906 C 195.867188 24.175781 194.308594 25.257812 192.859375 26.5 C 192.378906 26.722656 191.558594 27.058594 190.390625 27.539062 C 189.484375 27.773438 188.640625 28.140625 187.855469 28.644531 C 187.371094 29.125 186.320312 29.230469 184.667969 28.96875 C 183.019531 28.710938 182.070312 28.644531 181.808594 28.644531 C 180.941406 28.375 180.117188 28.007812 179.339844 27.539062 L 177.519531 26.5 C 177.40625 26.464844 177.300781 26.421875 177.195312 26.371094 C 174.59375 25.070312 172.996094 24.460938 172.515625 24.683594 C 172.03125 24.683594 171.085938 25.292969 169.652344 26.5 L 167.507812 28.253906 C 162.050781 28.738281 158.496094 28.976562 156.847656 28.96875 C 152.777344 29.230469 149.914062 29.359375 148.269531 29.359375 C 146.472656 29.28125 144.695312 29.042969 142.941406 28.644531 C 141.472656 28.417969 140.042969 28.046875 138.648438 27.539062 C 136.53125 26.886719 134.367188 26.539062 132.148438 26.5 C 131.667969 26.5 129.769531 25.070312 126.429688 22.214844 C 122.625 19.097656 120.457031 17.300781 119.929688 16.824219 C 119.449219 16.34375 119.214844 13.859375 119.214844 9.351562 C 119.066406 8.730469 118.828125 8.148438 118.5 7.601562 L 117.785156 5.78125 C 116.214844 4.492188 114.78125 3.066406 113.496094 1.492188 L 100.691406 7.210938 Z M 90.484375 15.71875 " fill-opacity="1" fill-rule="nonzero"/><path fill="#000000" d="M 76.1875 224.933594 C 75.023438 224.871094 73.910156 224.601562 72.84375 224.128906 C 72.730469 224.085938 72.625 224.027344 72.53125 223.949219 L 71.351562 223.039062 C 69.09375 222.710938 66.871094 222.234375 64.679688 221.609375 C 63.484375 221.246094 62.261719 221.03125 61.015625 220.960938 C 59.355469 220.925781 57.730469 220.675781 56.140625 220.207031 L 49.277344 218.828125 L 40.113281 218.828125 C 39.679688 218.828125 39.332031 218.65625 39.070312 218.308594 C 38.816406 217.96875 38.746094 217.589844 38.863281 217.179688 L 39.96875 213.28125 L 39.96875 213.140625 C 42.140625 207.851562 42.335938 206.644531 42.347656 206.476562 C 42.4375 205.902344 42.648438 205.375 42.976562 204.894531 C 43.308594 204.417969 43.726562 204.035156 44.230469 203.746094 C 45.003906 203.050781 45.839844 202.445312 46.742188 201.929688 C 46.882812 201.65625 46.921875 200.929688 46.390625 199.460938 L 44.933594 194.796875 C 44.808594 194.367188 44.878906 193.972656 45.140625 193.613281 L 47.261719 190.847656 C 46.976562 189.546875 46.46875 188.3125 45.558594 188.144531 L 45.402344 188.144531 C 43.933594 187.691406 43.492188 185.886719 43.777344 181.507812 C 44.425781 176.972656 44.492188 176.050781 44.492188 175.867188 C 44.484375 175.78125 44.484375 175.695312 44.492188 175.609375 L 45.441406 171.011719 L 36.875 163.410156 C 35.574219 162.839844 34.230469 162.40625 32.84375 162.113281 L 28.800781 162.113281 L 25.304688 162.488281 L 25.160156 162.488281 C 23.785156 162.449219 22.566406 161.992188 21.507812 161.113281 L 20.105469 160.097656 C 20.011719 160.035156 19.9375 159.957031 19.871094 159.863281 L 16.710938 155.96875 C 15.859375 154.808594 15.386719 153.507812 15.292969 152.070312 L 14.96875 149.925781 C 13.304688 142.742188 13.359375 140.558594 13.554688 139.535156 C 13.554688 139.535156 13.359375 138.613281 9.769531 137.050781 L 1.734375 135.648438 C 1.488281 135.609375 1.269531 135.503906 1.078125 135.332031 C 0.890625 135.164062 0.761719 134.957031 0.695312 134.714844 C 0.574219 134.25 0.679688 133.84375 1.007812 133.492188 L 0.65625 128.023438 C 0.644531 127.769531 0.699219 127.53125 0.824219 127.308594 L 4.011719 121.59375 C 4.117188 121.394531 4.269531 121.238281 4.464844 121.125 L 7.324219 119.371094 C 8.460938 118.324219 9.761719 117.554688 11.226562 117.058594 C 11.511719 116.890625 12.722656 115.957031 16.6875 111.433594 C 16.789062 111.320312 16.90625 111.226562 17.035156 111.148438 C 18.085938 110.378906 19.046875 109.511719 19.921875 108.550781 L 20.078125 108.433594 C 21.109375 107.742188 22.035156 106.929688 22.859375 106.003906 C 23.042969 105.421875 23.226562 103.71875 22.445312 99.105469 C 22.167969 98.507812 21.792969 97.976562 21.328125 97.507812 C 20.746094 96.679688 20.054688 95.953125 19.257812 95.328125 C 19.039062 95.210938 18.855469 95.050781 18.714844 94.847656 C 18.054688 93.75 17.746094 92.5625 17.789062 91.285156 C 17.867188 90.40625 17.789062 89.539062 17.558594 88.6875 C 17.460938 88.492188 17.40625 88.285156 17.402344 88.066406 L 17.402344 82.425781 C 17.402344 82.425781 17.402344 81.660156 15.464844 79.53125 L 14.59375 78.671875 C 13.125 77.242188 12.394531 74.96875 12.394531 71.710938 C 12.429688 70.601562 12.71875 69.5625 13.253906 68.589844 C 13.28125 68.535156 13.308594 68.484375 13.34375 68.433594 L 13.96875 67.527344 C 14.828125 65.539062 15.496094 63.492188 15.972656 61.382812 C 16.078125 60.152344 16.335938 58.949219 16.738281 57.78125 L 17.414062 55.742188 L 18.117188 44.546875 C 18.125 44.40625 18.15625 44.273438 18.207031 44.144531 L 19.636719 40.570312 C 19.734375 40.324219 19.894531 40.125 20.117188 39.976562 C 20.335938 39.824219 20.578125 39.75 20.84375 39.75 L 30.464844 39.75 C 30.839844 39.75 31.15625 39.882812 31.414062 40.15625 L 36.746094 45.792969 L 44.453125 45.792969 L 71.753906 31.945312 L 72.285156 28.476562 L 68.269531 22.136719 C 68.089844 21.859375 68.027344 21.558594 68.074219 21.234375 C 68.125 20.910156 68.277344 20.644531 68.527344 20.433594 L 72.820312 16.863281 C 73.011719 16.703125 73.234375 16.609375 73.480469 16.578125 L 89.875 14.484375 L 99.921875 6.144531 C 100.011719 6.066406 100.113281 6.007812 100.222656 5.960938 L 113.027344 0.246094 C 113.320312 0.117188 113.621094 0.09375 113.929688 0.1875 C 114.238281 0.277344 114.476562 0.457031 114.652344 0.726562 C 115.871094 2.199219 117.222656 3.539062 118.707031 4.742188 C 118.859375 4.878906 118.976562 5.046875 119.058594 5.234375 L 119.773438 7.054688 C 120.21875 7.734375 120.484375 8.480469 120.578125 9.289062 C 120.578125 14.316406 120.890625 15.613281 120.996094 15.925781 C 121.4375 16.34375 122.917969 17.601562 127.25 21.121094 C 128.832031 22.59375 130.523438 23.925781 132.332031 25.109375 C 134.585938 25.179688 136.792969 25.542969 138.949219 26.203125 L 139.207031 26.304688 C 140.476562 26.765625 141.773438 27.089844 143.109375 27.28125 C 144.777344 27.65625 146.46875 27.886719 148.179688 27.96875 C 149.777344 27.96875 152.636719 27.839844 156.679688 27.578125 C 158.332031 27.578125 161.738281 27.34375 166.910156 26.902344 L 168.742188 25.410156 C 170.5625 23.863281 171.472656 23.394531 172.164062 23.304688 C 172.851562 23.214844 174.28125 23.394531 177.6875 25.125 L 177.832031 25.125 L 178.078125 25.226562 L 179.898438 26.265625 C 180.535156 26.621094 181.195312 26.933594 181.875 27.203125 C 182.183594 27.203125 182.875 27.292969 184.746094 27.539062 C 186.617188 27.789062 186.867188 27.539062 186.878906 27.539062 C 187.777344 26.859375 188.78125 26.398438 189.882812 26.148438 C 190.816406 25.773438 191.546875 25.460938 192.027344 25.253906 C 193.515625 24.019531 195.101562 22.929688 196.785156 21.980469 L 198.394531 21.019531 C 199.121094 20.128906 200.050781 19.570312 201.179688 19.34375 C 203.476562 19.007812 205.785156 18.871094 208.105469 18.941406 C 208.933594 18.917969 209.753906 18.828125 210.5625 18.667969 C 211.105469 18.375 211.648438 18.375 212.1875 18.667969 C 212.453125 18.832031 212.65625 19.054688 212.800781 19.332031 C 212.941406 19.609375 213.003906 19.902344 212.980469 20.214844 C 213.035156 21.300781 213.253906 22.351562 213.632812 23.371094 C 213.835938 24.671875 214.402344 25.789062 215.335938 26.722656 C 217.191406 28.3125 218.863281 30.074219 220.351562 32.007812 L 223.265625 33.308594 C 224.226562 33.710938 225.070312 34.023438 225.722656 34.230469 C 226.144531 34.402344 226.578125 34.53125 227.023438 34.621094 C 227.621094 34.621094 228.867188 34.828125 232.871094 36.464844 C 233.148438 36.578125 233.359375 36.765625 233.507812 37.023438 L 236.367188 42.023438 C 236.53125 42.308594 236.578125 42.613281 236.511719 42.933594 L 235.40625 48.324219 C 235.367188 48.492188 235.304688 48.648438 235.210938 48.792969 L 230.921875 55.160156 L 230.765625 55.355469 L 227.191406 58.925781 C 226.800781 59.265625 226.5 59.550781 226.214844 59.835938 C 225.496094 60.554688 224.972656 61.394531 224.644531 62.355469 L 223.238281 67.941406 C 223.214844 68.027344 223.183594 68.109375 223.148438 68.1875 L 220.679688 73.191406 C 220.558594 73.425781 220.386719 73.605469 220.15625 73.734375 C 218.46875 74.722656 217.167969 75.4375 216.257812 75.917969 L 216.089844 75.996094 C 214.378906 76.558594 212.707031 77.21875 211.070312 77.96875 C 210.636719 78.570312 210.300781 79.21875 210.058594 79.917969 L 209.964844 80.101562 C 209.574219 80.65625 209.289062 81.265625 209.109375 81.917969 C 209.109375 82.972656 208.082031 83.609375 207.066406 84.113281 C 207.066406 84.179688 207.066406 84.285156 207.066406 84.464844 C 207.785156 85.367188 208.40625 86.332031 208.925781 87.363281 C 209.148438 88.007812 209.429688 88.628906 209.769531 89.21875 C 210.949219 90.960938 211.855469 92.828125 212.488281 94.832031 L 213.789062 96.417969 C 213.90625 96.566406 213.988281 96.738281 214.035156 96.925781 L 215.074219 101.210938 C 215.144531 101.492188 215.121094 101.765625 215.011719 102.03125 L 214.179688 104.378906 C 214.210938 105.546875 214.054688 106.683594 213.710938 107.796875 C 213.617188 108.0625 213.457031 108.273438 213.230469 108.433594 C 213.066406 108.671875 212.851562 108.835938 212.578125 108.925781 L 209.617188 109.929688 L 209.121094 110.433594 C 209.003906 110.539062 208.875 110.628906 208.730469 110.695312 C 208.550781 110.777344 208.382812 110.875 208.222656 110.992188 L 207.652344 112.148438 L 207.183594 113.550781 L 209.226562 116.152344 C 209.421875 116.402344 209.511719 116.6875 209.5 117.007812 L 209.171875 123.761719 C 209.160156 124.039062 209.066406 124.285156 208.894531 124.503906 C 208.722656 124.722656 208.503906 124.867188 208.238281 124.945312 C 204.832031 125.917969 202.59375 126.515625 201.398438 126.789062 L 197.863281 126.789062 C 196.941406 126.789062 196.277344 126.957031 196.070312 127.269531 C 195.195312 128.824219 194.410156 130.421875 193.714844 132.0625 C 193.695312 132.113281 193.667969 132.164062 193.640625 132.207031 C 192.976562 133.292969 192.402344 134.421875 191.921875 135.597656 C 191.804688 135.882812 191.609375 136.101562 191.335938 136.246094 C 190.910156 136.480469 190.363281 136.820312 189.699219 137.273438 C 189.101562 137.625 188.566406 138.058594 188.101562 138.574219 C 188.105469 138.652344 188.105469 138.726562 188.101562 138.804688 C 187.839844 139.480469 187.253906 141.25 186.359375 144.066406 C 186.335938 144.148438 186.304688 144.226562 186.269531 144.300781 L 183.734375 148.914062 C 183.679688 149 183.617188 149.082031 183.550781 149.160156 L 179.976562 153.121094 C 179.757812 153.359375 179.488281 153.5 179.167969 153.539062 L 173.449219 154.253906 C 173.125 154.292969 172.828125 154.21875 172.558594 154.03125 C 172.289062 153.847656 172.113281 153.59375 172.03125 153.277344 L 170.316406 146.289062 L 167.210938 140.507812 C 166.085938 139.117188 164.785156 137.914062 163.308594 136.898438 C 160.976562 135.519531 158.488281 134.519531 155.847656 133.894531 C 154.613281 133.636719 153.636719 133.390625 152.910156 133.15625 C 152.796875 133.125 152.695312 133.078125 152.597656 133.011719 C 152.304688 132.78125 151.976562 132.636719 151.609375 132.570312 L 151.363281 132.570312 C 150.695312 132.761719 150.167969 133.140625 149.777344 133.714844 C 149.304688 134.84375 148.597656 135.800781 147.660156 136.585938 C 146.285156 137.636719 144.800781 138.5 143.210938 139.183594 C 141.378906 140.351562 140.46875 140.886719 139.976562 141.15625 C 137.921875 145.300781 136.554688 147.898438 135.816406 149.070312 C 135.785156 149.117188 135.75 149.167969 135.710938 149.210938 C 135.648438 149.289062 135.347656 149.71875 134.085938 151.886719 C 133.308594 153.121094 132.441406 154.285156 131.488281 155.382812 L 131.304688 155.539062 C 130.597656 156.058594 130.164062 156.753906 130.003906 157.617188 L 129.265625 160.214844 C 129.238281 160.289062 129.207031 160.363281 129.171875 160.4375 L 126.714844 165.425781 C 124.816406 168.867188 124.699219 169.722656 124.699219 169.855469 C 124.699219 171.152344 123.738281 172.882812 116.785156 176.039062 L 95.828125 187.730469 C 95.777344 187.765625 95.71875 187.792969 95.660156 187.808594 L 89.316406 190.238281 L 83.101562 193.886719 L 82.191406 197.109375 L 82.191406 199.914062 L 83.246094 203.292969 C 83.25 203.394531 83.25 203.5 83.246094 203.605469 L 83.960938 216.464844 C 83.960938 217.207031 83.726562 218.324219 81.929688 221.140625 C 81.886719 221.21875 81.828125 221.289062 81.761719 221.347656 C 79.265625 223.816406 77.550781 224.933594 76.1875 224.933594 Z M 73.976562 221.777344 C 74.679688 222.089844 75.417969 222.273438 76.1875 222.335938 C 76.1875 222.335938 77.097656 222.335938 79.773438 219.570312 C 80.496094 218.648438 81.011719 217.621094 81.320312 216.492188 L 80.617188 203.863281 L 79.550781 200.433594 C 79.539062 200.308594 79.539062 200.183594 79.550781 200.058594 L 79.550781 196.875 C 79.535156 196.757812 79.535156 196.640625 79.550781 196.523438 L 80.65625 192.628906 C 80.75 192.292969 80.945312 192.039062 81.242188 191.859375 L 88.003906 187.964844 L 88.199219 187.871094 L 94.542969 185.429688 L 115.523438 173.738281 C 121.425781 171.050781 122.023438 169.839844 122.023438 169.777344 C 122.023438 169.152344 122.28125 167.933594 124.3125 164.242188 C 125.414062 161.996094 126.222656 160.34375 126.714844 159.382812 L 127.390625 157.03125 C 127.6875 155.601562 128.421875 154.445312 129.589844 153.5625 C 130.410156 152.621094 131.164062 151.625 131.851562 150.574219 C 132.996094 148.601562 133.410156 147.976562 133.617188 147.679688 C 134.347656 146.523438 135.75 143.78125 137.804688 139.675781 C 137.949219 139.402344 138.160156 139.199219 138.441406 139.066406 C 138.675781 138.960938 139.429688 138.546875 141.847656 137.011719 L 141.976562 136.9375 C 143.367188 136.351562 144.664062 135.609375 145.878906 134.714844 L 146.175781 134.492188 C 146.734375 133.910156 147.167969 133.25 147.476562 132.503906 C 147.511719 132.4375 147.554688 132.371094 147.605469 132.3125 C 148.027344 131.652344 148.574219 131.125 149.246094 130.726562 C 149.921875 130.328125 150.648438 130.101562 151.429688 130.050781 C 151.632812 130.050781 151.832031 130.085938 152.027344 130.15625 C 152.660156 130.28125 153.25 130.519531 153.792969 130.867188 C 154.429688 131.0625 155.289062 131.273438 156.394531 131.503906 C 159.316406 132.203125 162.066406 133.316406 164.648438 134.84375 C 166.382812 136.035156 167.90625 137.457031 169.210938 139.105469 C 169.265625 139.167969 169.316406 139.238281 169.355469 139.3125 L 172.605469 145.355469 C 172.65625 145.449219 172.695312 145.546875 172.722656 145.652344 L 174.203125 151.679688 L 178.300781 151.160156 L 181.445312 147.679688 L 183.851562 143.300781 C 184.683594 140.703125 185.242188 139 185.527344 138.195312 C 185.8125 137.390625 186.476562 136.429688 188.230469 135.273438 C 188.777344 134.890625 189.257812 134.582031 189.671875 134.335938 C 190.164062 133.210938 190.726562 132.117188 191.363281 131.0625 C 192.132812 129.316406 192.996094 127.617188 193.964844 125.972656 C 194.433594 125.386719 195.015625 124.949219 195.707031 124.660156 C 196.398438 124.371094 197.117188 124.261719 197.863281 124.335938 L 200.96875 124.335938 C 202.035156 124.085938 203.933594 123.582031 206.625 122.816406 L 206.871094 117.476562 L 204.703125 114.667969 C 204.417969 114.304688 204.347656 113.902344 204.492188 113.460938 L 205.207031 111.316406 C 205.230469 111.257812 205.253906 111.203125 205.285156 111.148438 L 206 109.71875 C 206.039062 109.628906 206.09375 109.546875 206.15625 109.472656 C 206.523438 109.0625 206.957031 108.742188 207.457031 108.511719 L 208.015625 107.953125 C 208.160156 107.808594 208.328125 107.707031 208.523438 107.640625 L 211.238281 106.71875 L 211.421875 106.539062 C 211.554688 105.761719 211.617188 104.984375 211.605469 104.199219 C 211.609375 104.023438 211.640625 103.855469 211.707031 103.691406 L 212.578125 101.625 L 211.707031 98.042969 L 210.472656 96.507812 C 210.375 96.398438 210.300781 96.273438 210.253906 96.132812 C 209.707031 94.363281 208.933594 92.703125 207.9375 91.144531 C 207.378906 90.375 206.945312 89.539062 206.636719 88.636719 C 206.179688 87.761719 205.640625 86.941406 205.011719 86.179688 C 204.960938 86.105469 204.914062 86.027344 204.871094 85.945312 C 204.667969 85.640625 204.53125 85.304688 204.464844 84.941406 C 204.398438 84.578125 204.40625 84.21875 204.484375 83.859375 C 204.566406 83.5 204.710938 83.167969 204.925781 82.867188 C 205.136719 82.570312 205.402344 82.320312 205.714844 82.128906 L 205.832031 82.050781 C 206.097656 81.929688 206.355469 81.789062 206.597656 81.632812 C 206.824219 80.703125 207.195312 79.839844 207.71875 79.035156 C 208.089844 77.96875 208.648438 77.003906 209.394531 76.152344 C 209.496094 76.050781 209.613281 75.96875 209.746094 75.90625 C 211.523438 75.074219 213.34375 74.351562 215.207031 73.734375 C 216.050781 73.308594 217.195312 72.683594 218.625 71.851562 L 220.859375 67.332031 L 222.25 61.824219 C 222.699219 60.433594 223.433594 59.222656 224.460938 58.1875 C 224.800781 57.835938 225.148438 57.523438 225.515625 57.199219 L 228.933594 53.769531 L 233.015625 47.726562 L 233.964844 43.0625 L 231.570312 38.882812 C 230.144531 38.1875 228.648438 37.6875 227.085938 37.386719 C 226.351562 37.320312 225.644531 37.132812 224.96875 36.828125 C 224.085938 36.539062 223.21875 36.207031 222.367188 35.828125 L 219.144531 34.386719 C 218.960938 34.304688 218.804688 34.1875 218.675781 34.035156 C 217.257812 32.171875 215.667969 30.472656 213.90625 28.929688 C 212.488281 27.667969 211.621094 26.097656 211.304688 24.226562 C 210.988281 23.316406 210.761719 22.378906 210.628906 21.421875 C 209.851562 21.554688 209.066406 21.628906 208.277344 21.644531 C 206.097656 21.570312 203.933594 21.691406 201.777344 22.007812 L 201.515625 22.007812 C 201.066406 22.3125 200.65625 22.664062 200.28125 23.058594 C 200.203125 23.132812 200.117188 23.199219 200.019531 23.253906 L 198.265625 24.292969 C 196.683594 25.152344 195.210938 26.167969 193.847656 27.34375 C 193.730469 27.453125 193.601562 27.539062 193.457031 27.605469 C 192.976562 27.828125 192.15625 28.175781 190.949219 28.671875 C 190.195312 28.875 189.476562 29.160156 188.789062 29.527344 C 188.035156 30.292969 186.671875 30.515625 184.527344 30.175781 C 182.378906 29.839844 181.925781 29.867188 181.925781 29.867188 C 181.535156 29.867188 181.121094 29.773438 178.859375 28.566406 L 177.089844 27.554688 L 176.714844 27.398438 C 175.53125 26.699219 174.28125 26.171875 172.957031 25.8125 C 172.847656 25.824219 172.738281 25.824219 172.632812 25.8125 C 171.914062 26.253906 171.242188 26.757812 170.617188 27.320312 L 168.445312 29.085938 C 168.242188 29.257812 168.007812 29.359375 167.742188 29.386719 C 162.285156 29.851562 158.644531 30.101562 156.964844 30.101562 C 152.898438 30.359375 150.0625 30.488281 148.386719 30.488281 C 146.5 30.410156 144.636719 30.164062 142.796875 29.75 C 141.25 29.523438 139.746094 29.136719 138.285156 28.578125 C 136.34375 27.992188 134.359375 27.675781 132.332031 27.632812 C 131.746094 27.632812 131.136719 27.632812 125.832031 23.03125 C 120.632812 18.824219 119.644531 17.902344 119.332031 17.578125 C 118.761719 16.992188 118.238281 15.925781 118.238281 9.289062 C 118.074219 8.84375 117.882812 8.410156 117.667969 7.988281 L 117.019531 6.351562 C 115.757812 5.265625 114.5625 4.113281 113.429688 2.898438 L 101.730469 8.09375 L 91.539062 16.550781 C 91.34375 16.710938 91.125 16.804688 90.875 16.835938 L 74.484375 18.941406 L 71.363281 21.539062 L 75.027344 27.320312 C 75.207031 27.59375 75.273438 27.894531 75.222656 28.214844 L 74.507812 32.828125 C 74.441406 33.269531 74.207031 33.589844 73.808594 33.789062 L 45.597656 48.078125 C 45.414062 48.171875 45.21875 48.21875 45.011719 48.222656 L 36.433594 48.222656 C 36.058594 48.222656 35.742188 48.089844 35.484375 47.820312 L 30.152344 42.179688 L 21.976562 42.179688 L 20.949219 44.777344 L 20.25 55.9375 C 20.238281 56.054688 20.21875 56.164062 20.183594 56.277344 L 19.46875 58.417969 C 19.152344 59.339844 18.933594 60.285156 18.816406 61.25 C 18.816406 61.886719 18.558594 63.238281 16.59375 68.460938 C 16.554688 68.5625 16.503906 68.660156 16.4375 68.746094 L 15.777344 69.707031 C 15.460938 70.292969 15.285156 70.917969 15.242188 71.578125 C 15.242188 74.058594 15.722656 75.773438 16.660156 76.683594 L 17.597656 77.605469 C 19.441406 79.671875 20.195312 81.101562 20.195312 82.296875 L 20.195312 87.675781 C 20.527344 88.824219 20.660156 90 20.585938 91.195312 C 20.566406 91.859375 20.6875 92.496094 20.949219 93.105469 C 21.910156 93.855469 22.75 94.722656 23.472656 95.703125 C 24.191406 96.425781 24.742188 97.261719 25.125 98.210938 C 25.152344 98.285156 25.171875 98.363281 25.1875 98.445312 C 26.164062 104.171875 25.800781 106.070312 25.433594 107.003906 C 25.398438 107.097656 25.351562 107.183594 25.292969 107.265625 C 24.320312 108.476562 23.183594 109.511719 21.886719 110.371094 C 20.917969 111.429688 19.855469 112.386719 18.703125 113.242188 C 13.96875 118.644531 12.8125 119.320312 12.109375 119.527344 L 11.851562 119.527344 C 10.808594 120.035156 9.839844 120.664062 8.953125 121.410156 L 6.285156 123.046875 L 3.453125 128.140625 L 3.777344 133.246094 L 10.539062 134.414062 L 10.824219 134.507812 C 13.421875 135.597656 16.726562 137.351562 16.269531 139.898438 C 16.152344 140.574219 16.167969 142.703125 17.6875 149.304688 L 18.039062 151.550781 C 18.363281 153.640625 18.753906 154.058594 18.78125 154.070312 L 18.855469 154.175781 L 21.9375 157.941406 L 23.238281 158.878906 C 23.816406 159.390625 24.492188 159.675781 25.265625 159.734375 L 28.761719 159.359375 L 33.429688 159.359375 C 35.113281 159.683594 36.742188 160.183594 38.316406 160.863281 C 38.445312 160.917969 38.5625 160.992188 38.667969 161.085938 L 47.964844 169.335938 C 48.152344 169.496094 48.28125 169.691406 48.355469 169.925781 C 48.429688 170.160156 48.4375 170.394531 48.378906 170.632812 L 47.300781 175.828125 C 47.300781 176.3125 47.144531 177.558594 46.574219 181.570312 C 46.398438 182.902344 46.4375 184.226562 46.691406 185.546875 C 48.445312 186.09375 49.601562 187.847656 50.136719 190.742188 C 50.207031 191.121094 50.128906 191.460938 49.902344 191.769531 L 47.832031 194.484375 L 49.070312 198.445312 C 49.367188 199.292969 50.367188 202.03125 48.742188 203.644531 C 48.667969 203.710938 48.585938 203.773438 48.496094 203.824219 C 47.675781 204.285156 46.910156 204.832031 46.207031 205.460938 L 46.054688 205.59375 C 45.703125 205.808594 45.402344 206.082031 45.15625 206.410156 C 45.15625 207.125 44.726562 208.683594 42.621094 213.867188 L 41.996094 216.035156 L 49.730469 216.035156 L 56.882812 217.464844 C 57.007812 217.488281 57.128906 217.53125 57.246094 217.59375 C 58.589844 217.941406 59.953125 218.125 61.339844 218.152344 C 62.839844 218.238281 64.304688 218.515625 65.734375 218.984375 C 66.007812 219.074219 67.320312 219.425781 72.234375 220.285156 C 72.441406 220.316406 72.628906 220.398438 72.792969 220.53125 Z M 44.960938 206.644531 Z M 188.113281 138.417969 Z M 11.578125 119.710938 Z M 173.046875 25.800781 Z M 121.046875 15.992188 Z M 121.046875 15.992188 " fill-opacity="1" fill-rule="nonzero"/></svg>