<svg xmlns="http://www.w3.org/2000/svg" xmlns:xlink="http://www.w3.org/1999/xlink" width="100" zoomAndPan="magnify" viewBox="0 0 75 74.999997" height="100" preserveAspectRatio="xMidYMid meet" version="1.0"><defs><g/><clipPath id="a94f6a8562"><path d="M 12 23.851562 L 62.867188 23.851562 L 62.867188 50.851562 L 12 50.851562 Z M 12 23.851562 " clip-rule="nonzero"/></clipPath></defs><g clip-path="url(#a94f6a8562)"><path fill="#ffffff" d="M 40.78125 45.179688 C 40.332031 45.4375 40.503906 45.917969 40.386719 46.292969 C 40.195312 46.917969 40.078125 47.5625 39.875 48.179688 C 39.613281 48.96875 39.144531 49.644531 38.53125 50.203125 C 38.273438 50.441406 37.953125 50.617188 37.652344 50.804688 C 37.585938 50.84375 37.457031 50.851562 37.386719 50.820312 C 36.898438 50.59375 36.398438 50.390625 36.09375 49.898438 C 35.820312 49.460938 35.59375 48.957031 35.214844 48.625 C 34.703125 48.171875 34.695312 47.535156 34.398438 47.035156 C 33.898438 46.191406 34.148438 45.246094 33.808594 44.402344 C 33.679688 44.089844 33.574219 43.75 33.554688 43.417969 C 33.515625 42.753906 33.542969 42.082031 33.542969 41.410156 C 33.085938 42.089844 33.023438 42.789062 33.300781 43.558594 C 33.46875 44.023438 33.535156 44.527344 33.632812 45.015625 C 33.6875 45.277344 33.625 45.328125 33.402344 45.347656 C 33.285156 45.914062 33.152344 46.449219 33.0625 46.992188 C 32.976562 47.484375 32.695312 47.988281 33.097656 48.484375 C 33.144531 48.542969 33.058594 48.808594 32.972656 48.851562 C 32.828125 48.921875 32.609375 48.945312 32.460938 48.890625 C 32.359375 48.855469 32.242188 48.632812 32.265625 48.519531 C 32.441406 47.53125 32.675781 46.554688 32.835938 45.5625 C 32.886719 45.253906 32.75 44.921875 32.710938 44.597656 C 32.675781 44.296875 32.667969 43.996094 32.628906 43.695312 C 32.609375 43.546875 32.539062 43.40625 32.496094 43.28125 C 32.128906 43.449219 31.828125 43.640625 31.5 43.722656 C 31.003906 43.847656 30.511719 43.808594 30.15625 43.363281 C 29.886719 43.027344 29.550781 43.03125 29.1875 43.164062 C 28.632812 43.371094 28.089844 43.628906 27.519531 43.765625 C 26.117188 44.101562 24.746094 43.863281 23.425781 43.351562 C 21.820312 42.730469 20.535156 41.671875 19.457031 40.351562 C 19.121094 39.941406 19.203125 38.824219 19.65625 38.480469 C 20.261719 38.019531 20.9375 37.644531 21.589844 37.246094 C 21.792969 37.121094 22.027344 37.042969 22.246094 36.855469 C 21.6875 36.742188 21.132812 36.628906 20.574219 36.511719 C 20.515625 36.5 20.457031 36.46875 20.40625 36.4375 C 19.453125 35.808594 18.417969 35.273438 17.566406 34.53125 C 16.390625 33.503906 15.304688 32.367188 14.273438 31.191406 C 13.542969 30.359375 12.957031 29.402344 12.339844 28.480469 C 11.878906 27.789062 12.007812 26.613281 12.574219 25.996094 C 12.644531 25.921875 12.757812 25.878906 12.855469 25.839844 C 13.664062 25.523438 14.433594 25.097656 15.351562 25.167969 C 15.789062 25.203125 16.230469 25.132812 16.667969 25.125 C 18.328125 25.085938 19.894531 25.480469 21.398438 26.148438 C 22.324219 26.558594 23.246094 26.988281 24.15625 27.433594 C 25.742188 28.214844 27.339844 28.976562 28.890625 29.824219 C 29.988281 30.421875 31.019531 31.144531 32.078125 31.8125 C 32.25 31.996094 32.421875 32.175781 32.589844 32.359375 C 32.628906 32.328125 32.664062 32.296875 32.699219 32.265625 C 32.597656 32.089844 32.496094 31.914062 32.394531 31.738281 C 32.277344 31.550781 32.160156 31.355469 32.039062 31.167969 C 31.941406 31.023438 31.839844 30.882812 31.707031 30.691406 C 31.859375 30.636719 31.964844 30.597656 32.101562 30.550781 C 32.019531 30.4375 31.9375 30.328125 31.863281 30.21875 C 31.738281 30.042969 31.65625 29.898438 31.964844 29.792969 C 32.199219 29.714844 32.222656 29.359375 32.007812 29.136719 C 31.628906 28.746094 31.207031 28.390625 30.835938 27.996094 C 30.542969 27.679688 30.171875 27.414062 30.265625 26.859375 C 30.308594 26.621094 30.085938 26.339844 29.96875 26.039062 C 30.144531 25.863281 30.203125 25.710938 29.949219 25.414062 C 29.480469 24.863281 29.832031 24.050781 30.546875 23.871094 C 30.617188 23.851562 30.722656 23.851562 30.773438 23.894531 C 31.023438 24.085938 30.921875 24.675781 30.785156 24.929688 C 30.640625 25.199219 30.65625 25.570312 30.644531 25.894531 C 30.621094 26.542969 31.046875 26.988281 31.429688 27.425781 C 31.949219 28.015625 32.527344 28.546875 33.046875 29.128906 C 33.234375 29.339844 33.359375 29.613281 33.46875 29.875 C 33.632812 30.277344 33.761719 30.695312 33.902344 31.109375 C 33.9375 31.210938 33.984375 31.3125 33.988281 31.417969 C 34.023438 31.929688 34.28125 32.078125 34.808594 31.84375 C 34.746094 31.726562 34.683594 31.609375 34.628906 31.492188 C 34.355469 30.878906 34.6875 30.359375 35.367188 30.3125 C 35.546875 30.296875 35.722656 30.230469 35.898438 30.1875 C 35.804688 30.007812 35.742188 29.808594 35.617188 29.660156 C 35.296875 29.277344 34.847656 29.308594 34.523438 29.699219 C 34.441406 29.800781 34.324219 29.878906 34.175781 30.011719 C 34.199219 29.558594 34.511719 29.257812 34.988281 29.140625 C 35.515625 29.011719 35.878906 29.257812 36.371094 30.09375 C 36.660156 29.964844 36.984375 29.875 37.246094 29.695312 C 37.578125 29.464844 37.808594 29.582031 38.054688 29.796875 C 38.125 29.863281 38.195312 29.933594 38.273438 29.984375 C 38.59375 30.183594 38.835938 30.113281 39.007812 29.78125 C 39.292969 29.21875 39.902344 29.023438 40.425781 29.359375 C 40.59375 29.46875 40.691406 29.679688 40.824219 29.84375 C 40.742188 29.914062 40.664062 29.984375 40.582031 30.054688 C 40.550781 29.949219 40.546875 29.792969 40.480469 29.753906 C 40.261719 29.640625 39.953125 29.4375 39.800781 29.515625 C 39.566406 29.632812 39.429688 29.949219 39.269531 30.195312 C 39.265625 30.203125 39.464844 30.40625 39.574219 30.414062 C 40.1875 30.457031 40.613281 30.859375 40.546875 31.429688 C 40.523438 31.640625 40.363281 31.832031 40.253906 32.054688 C 40.699219 32.128906 40.882812 31.957031 40.996094 31.550781 C 41.234375 30.699219 41.449219 29.820312 41.84375 29.039062 C 42.089844 28.5625 42.617188 28.199219 43.070312 27.855469 C 44.238281 26.972656 44.351562 26.484375 44.421875 25.097656 C 44.28125 25.003906 44.160156 24.925781 44.039062 24.847656 C 44.15625 24.695312 44.238281 24.484375 44.390625 24.398438 C 44.757812 24.191406 45.0625 24.277344 45.183594 24.578125 C 45.292969 24.84375 45.269531 25.085938 45.023438 25.175781 C 44.878906 26.007812 45.078125 26.878906 44.292969 27.460938 C 44.273438 27.476562 44.246094 27.496094 44.238281 27.519531 C 44.054688 28.253906 43.328125 28.457031 42.859375 28.914062 C 42.453125 29.316406 42.484375 29.625 43.058594 29.84375 C 42.914062 30.089844 42.773438 30.335938 42.605469 30.617188 C 42.945312 30.683594 42.964844 30.820312 42.777344 31.0625 C 42.648438 31.226562 42.582031 31.445312 42.503906 31.644531 C 42.414062 31.875 42.339844 32.117188 42.242188 32.402344 C 42.632812 32.046875 42.976562 31.707031 43.351562 31.40625 C 43.769531 31.070312 44.1875 30.71875 44.65625 30.472656 C 46.136719 29.703125 47.625 28.957031 49.132812 28.242188 C 50.199219 27.742188 51.300781 27.3125 52.378906 26.84375 C 53.058594 26.546875 53.707031 26.144531 54.410156 25.949219 C 55.574219 25.628906 56.765625 25.40625 57.953125 25.195312 C 58.875 25.03125 59.789062 25.207031 60.699219 25.378906 C 61.476562 25.527344 62.234375 25.820312 62.660156 26.476562 C 62.859375 26.789062 62.777344 27.402344 62.617188 27.792969 C 62.308594 28.542969 61.914062 29.273438 61.449219 29.933594 C 60.886719 30.734375 60.246094 31.484375 59.582031 32.199219 C 58.882812 32.953125 58.152344 33.691406 57.363281 34.347656 C 56.769531 34.847656 56.035156 35.183594 55.40625 35.644531 C 54.398438 36.382812 53.253906 36.671875 52.039062 36.789062 C 52.007812 36.789062 51.972656 36.820312 51.941406 36.835938 C 52.480469 37.003906 53.007812 37.1875 53.542969 37.339844 C 54.304688 37.558594 54.871094 38.042969 55.367188 38.621094 C 55.671875 38.96875 55.609375 39.972656 55.378906 40.390625 C 55.078125 40.933594 54.589844 41.261719 54.132812 41.625 C 53.617188 42.035156 53.066406 42.40625 52.503906 42.75 C 50.894531 43.722656 49.136719 44.078125 47.273438 43.875 C 46.953125 43.839844 46.644531 43.6875 46.335938 43.566406 C 45.96875 43.421875 45.621094 43.230469 45.246094 43.109375 C 45.105469 43.0625 44.882812 43.109375 44.761719 43.203125 C 43.984375 43.785156 43.097656 43.808594 42.296875 43.230469 C 42.164062 43.136719 42.027344 43.046875 41.835938 42.914062 C 41.789062 43.539062 41.855469 44.164062 41.664062 44.703125 C 41.433594 45.359375 41.765625 45.867188 41.875 46.433594 C 41.96875 46.925781 42.097656 47.410156 42.214844 47.894531 C 42.230469 47.960938 42.234375 48.042969 42.273438 48.089844 C 42.410156 48.246094 42.542969 48.460938 42.320312 48.570312 C 42.09375 48.6875 41.800781 48.671875 41.535156 48.683594 C 41.511719 48.6875 41.429688 48.382812 41.464844 48.363281 C 41.785156 48.175781 41.726562 47.859375 41.652344 47.625 C 41.503906 47.164062 41.242188 46.742188 41.078125 46.285156 C 40.984375 46.027344 40.992188 45.734375 40.945312 45.457031 C 40.925781 45.335938 40.894531 45.21875 40.867188 45.097656 C 40.894531 44.65625 40.921875 44.21875 40.949219 43.777344 C 40.980469 43.652344 41.019531 43.527344 41.042969 43.398438 C 41.09375 43.089844 41.109375 42.773438 41.195312 42.472656 C 41.367188 41.882812 41.382812 41.324219 40.941406 40.738281 L 40.941406 43.773438 C 40.890625 44.242188 40.835938 44.710938 40.78125 45.179688 Z M 46.425781 30.070312 C 46.761719 29.875 47.097656 29.679688 47.433594 29.484375 C 47.410156 29.449219 47.390625 29.414062 47.367188 29.378906 C 47 29.558594 46.636719 29.738281 46.269531 29.917969 C 45.878906 30.136719 45.492188 30.359375 45.101562 30.578125 C 44.6875 30.851562 44.273438 31.125 43.859375 31.402344 C 43.53125 31.570312 43.207031 31.742188 43.113281 32.132812 C 43.46875 31.972656 43.839844 31.832031 43.9375 31.402344 C 44.324219 31.179688 44.710938 30.960938 45.097656 30.742188 C 45.539062 30.519531 45.980469 30.292969 46.425781 30.070312 Z M 35.46875 31.402344 C 35.28125 31.523438 34.929688 31.570312 35.132812 31.910156 C 35.304688 32.199219 35.53125 32.464844 35.761719 32.714844 C 36.085938 33.058594 36.191406 33.035156 36.492188 32.578125 C 36.023438 32.304688 35.59375 31.976562 35.472656 31.402344 C 36.058594 31.320312 36.394531 31.03125 36.519531 30.488281 L 36.101562 30.488281 C 36.054688 31.046875 36.054688 31.046875 35.46875 31.402344 Z M 38.789062 33.960938 C 39.242188 34.089844 39.6875 34.164062 40.042969 33.855469 C 39.664062 33.839844 39.269531 33.816406 38.871094 33.796875 C 38.203125 33.746094 37.535156 33.683594 36.863281 33.648438 C 36.253906 33.613281 35.640625 33.605469 35.03125 33.59375 C 34.960938 33.59375 34.886719 33.644531 34.726562 33.707031 C 34.882812 33.753906 34.929688 33.777344 34.980469 33.785156 C 35.964844 33.863281 36.949219 33.953125 37.9375 34.015625 C 38.21875 34.035156 38.503906 33.980469 38.789062 33.960938 Z M 32.40625 41.460938 C 32.609375 41.179688 32.828125 40.90625 33.007812 40.613281 C 33.042969 40.558594 32.9375 40.417969 32.894531 40.316406 C 33.035156 39.820312 33.175781 39.324219 33.324219 38.808594 C 32.277344 40.1875 31.242188 41.5625 30.21875 42.921875 C 30.496094 43.371094 31.023438 43.597656 31.476562 43.496094 C 32.074219 43.363281 32.453125 42.816406 32.480469 41.90625 C 32.242188 42.289062 32.007812 42.675781 31.769531 43.0625 C 31.734375 43.042969 31.695312 43.023438 31.65625 43 C 31.792969 42.65625 31.929688 42.3125 32.066406 41.96875 C 32.179688 41.796875 32.292969 41.628906 32.40625 41.460938 Z M 47.503906 37.425781 C 47.300781 37.410156 47.09375 37.382812 46.886719 37.375 C 45.722656 37.347656 44.589844 37.222656 43.507812 36.726562 C 43.109375 36.546875 42.632812 36.542969 42.191406 36.457031 C 42.183594 36.503906 42.175781 36.550781 42.167969 36.59375 C 42.804688 36.769531 43.429688 36.964844 44.070312 37.113281 C 45.183594 37.367188 46.304688 37.597656 47.421875 37.835938 C 47.894531 38 48.371094 38.183594 48.878906 37.882812 C 48.707031 37.554688 48.601562 37.167969 48.09375 37.296875 C 47.898438 37.34375 47.703125 37.382812 47.503906 37.425781 Z M 44.019531 42.707031 C 43.972656 42.828125 43.925781 42.945312 43.824219 43.203125 C 43.265625 42.226562 42.765625 41.351562 42.265625 40.480469 C 42.15625 40.144531 42.066406 39.800781 41.9375 39.472656 C 41.808594 39.144531 41.648438 38.828125 41.503906 38.511719 C 41.546875 39.125 41.660156 39.703125 41.808594 40.269531 C 41.832031 40.359375 42.003906 40.410156 42.109375 40.476562 C 42.292969 40.941406 42.480469 41.40625 42.664062 41.871094 C 42.621094 41.890625 42.582031 41.910156 42.539062 41.933594 C 42.339844 41.585938 42.140625 41.234375 41.9375 40.886719 C 41.878906 40.90625 41.824219 40.929688 41.765625 40.949219 C 41.816406 41.109375 41.863281 41.269531 41.925781 41.425781 C 42.011719 41.625 42.113281 41.816406 42.207031 42.011719 C 42.164062 42.03125 42.117188 42.050781 42.074219 42.070312 C 42 41.96875 41.921875 41.863281 41.816406 41.714844 C 41.636719 42.203125 42.066406 42.425781 42.175781 42.757812 C 42.164062 42.636719 42.152344 42.511719 42.140625 42.386719 C 42.296875 42.480469 42.398438 42.589844 42.414062 42.710938 C 42.46875 43.164062 42.800781 43.332031 43.164062 43.332031 C 43.53125 43.332031 43.902344 43.195312 44.269531 43.117188 C 44.390625 43.046875 44.515625 42.976562 44.65625 42.894531 C 44.433594 42.605469 44.261719 42.378906 44.128906 42.207031 C 43.902344 42.183594 43.726562 42.167969 43.425781 42.136719 C 43.664062 42.367188 43.839844 42.535156 44.019531 42.707031 Z M 43.1875 37.835938 C 42.902344 37.683594 42.617188 37.527344 42.332031 37.371094 C 42.304688 37.425781 42.277344 37.480469 42.25 37.53125 C 42.511719 37.664062 42.769531 37.792969 43.03125 37.921875 C 43.070312 37.960938 43.105469 38.007812 43.152344 38.035156 C 44.085938 38.582031 45.023438 39.128906 45.964844 39.667969 C 46.054688 39.71875 46.179688 39.699219 46.289062 39.714844 C 46.476562 39.738281 46.664062 39.792969 46.851562 39.785156 C 47.035156 39.78125 47.21875 39.71875 47.402344 39.683594 C 47.296875 39.527344 47.199219 39.371094 47.085938 39.222656 C 47.058594 39.1875 46.984375 39.191406 46.929688 39.171875 C 45.894531 38.769531 44.863281 38.359375 43.824219 37.96875 C 43.625 37.894531 43.402344 37.878906 43.1875 37.835938 Z M 53.644531 36.105469 C 53.867188 36.054688 54.101562 36.042969 54.304688 35.949219 C 54.601562 35.808594 54.878906 35.628906 55.152344 35.441406 C 56.082031 34.804688 57.011719 34.175781 57.917969 33.507812 C 58.15625 33.332031 58.277344 33.007812 58.492188 32.792969 C 58.859375 32.417969 59.3125 32.121094 59.628906 31.710938 C 60.417969 30.679688 61.332031 29.726562 61.871094 28.523438 C 62.074219 28.066406 62.257812 27.597656 62.398438 27.117188 C 62.496094 26.777344 61.996094 26.289062 61.609375 26.320312 C 62.023438 26.660156 62.109375 27.101562 61.90625 27.550781 C 61.714844 27.976562 61.492188 28.425781 61.167969 28.753906 C 60.757812 29.171875 60.445312 29.632812 60.148438 30.125 C 59.914062 30.511719 59.589844 30.847656 59.304688 31.203125 C 59.1875 31.347656 59.089844 31.511719 58.957031 31.636719 C 58.527344 32.035156 58.078125 32.414062 57.644531 32.8125 C 57.460938 32.976562 57.300781 33.167969 57.121094 33.335938 C 56.714844 33.71875 56.300781 34.097656 55.886719 34.472656 C 55.796875 34.550781 55.691406 34.617188 55.582031 34.671875 C 55.285156 34.816406 54.960938 34.914062 54.691406 35.09375 C 54.324219 35.34375 53.992188 35.65625 53.644531 35.941406 C 53.089844 36.085938 52.484375 36.101562 52.023438 36.519531 C 52.507812 36.476562 52.980469 36.394531 53.449219 36.292969 C 53.523438 36.277344 53.582031 36.171875 53.644531 36.105469 Z M 52.429688 37.433594 C 52.453125 37.378906 52.472656 37.320312 52.496094 37.265625 C 51.796875 37.078125 51.085938 36.992188 50.351562 37.078125 C 51.042969 37.199219 51.738281 37.316406 52.476562 37.328125 C 52.484375 37.382812 52.476562 37.433594 52.496094 37.460938 C 52.53125 37.5 52.582031 37.546875 52.628906 37.550781 C 53.425781 37.621094 53.886719 38.25 54.476562 38.65625 C 54.839844 38.90625 54.953125 39.4375 54.707031 39.714844 C 54.34375 40.132812 53.929688 40.503906 53.535156 40.890625 C 53.320312 41.101562 53.121094 41.328125 52.890625 41.519531 C 52.664062 41.703125 52.425781 41.894531 52.160156 42.003906 C 51.484375 42.28125 50.792969 42.523438 50.101562 42.765625 C 49.628906 42.933594 49.152344 43.101562 48.625 42.984375 C 48.367188 42.929688 48.085938 42.910156 47.824219 42.945312 C 47.230469 43.027344 46.691406 42.972656 46.164062 42.636719 C 45.78125 42.390625 45.339844 42.222656 44.910156 42.054688 C 44.84375 42.027344 44.613281 42.214844 44.621094 42.226562 C 44.75 42.5 44.785156 42.855469 45.210938 42.875 C 45.371094 42.882812 45.53125 42.953125 45.6875 43.011719 C 46.699219 43.394531 47.675781 43.828125 48.835938 43.664062 C 49.859375 43.519531 50.867188 43.316406 51.765625 42.847656 C 52.949219 42.230469 54.027344 41.4375 54.925781 40.417969 C 55.394531 39.886719 55.410156 39.144531 54.898438 38.644531 C 54.808594 38.558594 54.738281 38.453125 54.652344 38.363281 C 54.144531 37.796875 53.414062 37.617188 52.761719 37.296875 C 52.691406 37.261719 52.578125 37.316406 52.429688 37.433594 Z M 34.585938 37.023438 C 34.632812 37.5625 35.542969 38.617188 36.054688 38.710938 C 36.300781 38.757812 36.480469 38.679688 36.523438 38.472656 C 36.175781 38.277344 35.753906 38.4375 35.507812 38 C 35.304688 37.640625 34.988281 37.339844 34.722656 37.011719 C 34.558594 36.207031 34.398438 35.402344 34.21875 34.527344 C 33.707031 34.574219 33.238281 34.214844 32.773438 33.839844 C 32.710938 33.789062 32.632812 33.734375 32.554688 33.726562 C 32.417969 33.714844 32.277344 33.738281 32.140625 33.746094 C 32.15625 33.902344 32.125 34.082031 32.199219 34.203125 C 32.296875 34.359375 32.484375 34.457031 32.613281 34.597656 C 32.679688 34.675781 32.703125 34.792969 32.746094 34.890625 C 32.640625 34.863281 32.523438 34.851562 32.425781 34.800781 C 32.121094 34.644531 31.824219 34.332031 31.519531 34.324219 C 29.660156 34.277344 27.800781 34.300781 25.9375 34.296875 C 25.0625 34.292969 24.773438 35.089844 24.886719 35.640625 C 24.90625 35.75 24.949219 35.855469 24.953125 35.960938 C 24.960938 36.273438 25.132812 36.292969 25.371094 36.210938 C 25.578125 36.140625 25.777344 36.039062 25.992188 36 C 27.023438 35.824219 28.050781 35.644531 29.085938 35.496094 C 30.5 35.300781 31.921875 35.128906 33.339844 34.957031 C 33.492188 34.941406 33.652344 35.015625 33.808594 35.050781 C 33.800781 35.097656 33.792969 35.144531 33.78125 35.191406 C 33.59375 35.226562 33.40625 35.261719 33.160156 35.304688 C 33.402344 35.371094 33.582031 35.417969 33.757812 35.464844 C 33.753906 35.496094 33.753906 35.527344 33.75 35.554688 C 33.660156 35.589844 33.566406 35.625 33.421875 35.683594 C 34.113281 35.902344 34.324219 36.484375 34.585938 37.023438 Z M 35.03125 34.089844 C 34.914062 34.300781 34.78125 34.492188 34.6875 34.703125 C 34.632812 34.828125 34.585938 35.007812 34.628906 35.125 C 34.855469 35.695312 35.09375 36.261719 35.367188 36.808594 C 35.46875 37.015625 35.675781 37.175781 35.859375 37.386719 C 36.195312 37 35.59375 36.425781 36.222656 36.183594 C 36.304688 36.292969 36.390625 36.414062 36.417969 36.453125 C 36.394531 36.675781 36.316406 36.902344 36.375 36.949219 C 36.625 37.136719 36.863281 37.371094 37.246094 37.253906 C 37.5 37.179688 37.777344 37.191406 38.09375 37.160156 C 38.074219 36.882812 38 36.484375 38.554688 36.441406 C 38.800781 36.761719 38.542969 36.992188 38.425781 37.277344 C 38.265625 37.667969 38.210938 38.101562 38.121094 38.515625 C 38.117188 38.542969 38.1875 38.582031 38.195312 38.589844 C 38.335938 38.203125 38.421875 37.792969 38.628906 37.457031 C 38.90625 37.003906 39.265625 36.601562 39.609375 36.191406 C 40.101562 35.609375 40.15625 34.957031 39.964844 34.261719 C 39.742188 34.277344 39.523438 34.300781 39.304688 34.300781 C 38.652344 34.300781 38.652344 34.300781 38.492188 34.917969 C 38.484375 34.945312 38.484375 34.980469 38.464844 34.996094 C 38.390625 35.054688 38.3125 35.105469 38.234375 35.160156 C 38.214844 35.078125 38.164062 34.988281 38.179688 34.910156 C 38.25 34.566406 38.078125 34.332031 37.707031 34.300781 C 37.460938 34.28125 37.214844 34.265625 36.964844 34.242188 C 36.636719 34.207031 36.457031 34.320312 36.503906 34.679688 C 36.511719 34.75 36.484375 34.828125 36.472656 34.902344 C 36.429688 34.921875 36.386719 34.9375 36.34375 34.957031 C 36.214844 34.722656 36.136719 34.402344 35.9375 34.285156 C 35.683594 34.132812 35.332031 34.148438 35.03125 34.089844 Z M 23.382812 36.679688 C 23.390625 36.628906 23.402344 36.578125 23.410156 36.53125 C 23.183594 36.4375 22.960938 36.34375 22.730469 36.257812 C 21.9375 35.96875 21.054688 35.886719 20.40625 35.261719 C 20.351562 35.210938 20.246094 35.21875 20.171875 35.1875 C 19.492188 34.894531 18.765625 34.671875 18.488281 33.867188 C 18.460938 33.796875 18.34375 33.753906 18.261719 33.710938 C 17.761719 33.441406 17.28125 33.152344 16.960938 32.664062 C 16.832031 32.464844 16.738281 32.132812 16.566406 32.089844 C 15.515625 31.816406 15.492188 30.542969 14.589844 30.136719 C 14.472656 30.082031 14.378906 29.863281 14.363281 29.710938 C 14.3125 29.261719 13.941406 29.074219 13.683594 28.789062 C 13.515625 28.605469 13.410156 28.367188 13.304688 28.136719 C 13.222656 27.957031 13.207031 27.746094 13.128906 27.5625 C 12.902344 27.050781 13.027344 26.574219 13.480469 26.269531 C 13.628906 26.164062 13.761719 26.035156 13.902344 25.917969 C 13.871094 25.871094 13.839844 25.824219 13.808594 25.777344 C 13.488281 25.957031 13.085938 26.070312 12.859375 26.335938 C 12.34375 26.941406 12.359375 27.964844 12.804688 28.625 C 12.902344 28.769531 13.023438 28.898438 13.113281 29.050781 C 13.867188 30.332031 14.839844 31.449219 15.886719 32.496094 C 16.726562 33.339844 17.601562 34.15625 18.523438 34.910156 C 19.058594 35.347656 19.6875 35.707031 20.324219 35.980469 C 20.964844 36.253906 21.664062 36.394531 22.34375 36.558594 C 22.683594 36.640625 23.035156 36.640625 23.382812 36.679688 Z M 42.316406 35.074219 C 44.882812 35.59375 47.480469 35.472656 49.988281 36.332031 C 49.988281 36.015625 49.988281 35.785156 49.988281 35.554688 C 49.980469 34.78125 49.707031 34.4375 48.941406 34.296875 C 48.65625 34.246094 48.363281 34.214844 48.078125 34.226562 C 46.5 34.285156 44.921875 34.378906 43.34375 34.417969 C 42.859375 34.429688 42.605469 34.671875 42.316406 35.074219 Z M 31.609375 33.910156 C 31.574219 33.882812 31.515625 33.824219 31.445312 33.792969 C 30.679688 33.453125 29.914062 33.117188 29.144531 32.792969 C 28.996094 32.730469 28.828125 32.6875 28.671875 32.6875 C 27.699219 32.699219 26.722656 32.785156 25.753906 32.730469 C 25.03125 32.691406 24.328125 32.535156 23.71875 33.085938 C 23.644531 33.152344 23.515625 33.15625 23.40625 33.1875 C 22.839844 33.347656 22.824219 33.375 22.929688 33.976562 C 23.445312 34.011719 23.964844 34.015625 24.480469 34.089844 C 24.828125 34.140625 25.144531 34.226562 25.488281 34.042969 C 25.675781 33.945312 25.914062 33.914062 26.128906 33.914062 C 27.957031 33.902344 29.78125 33.910156 31.609375 33.910156 Z M 51.972656 33.3125 C 51.699219 33.238281 51.414062 33.230469 51.210938 33.09375 C 50.460938 32.597656 49.660156 32.761719 48.847656 32.808594 C 47.988281 32.855469 47.121094 32.785156 46.257812 32.785156 C 45.976562 32.78125 45.671875 32.773438 45.421875 32.871094 C 44.820312 33.105469 44.242188 33.398438 43.660156 33.679688 C 43.507812 33.757812 43.378906 33.890625 43.234375 34 C 44.105469 34 44.914062 34.023438 45.722656 33.992188 C 47.089844 33.941406 48.460938 33.714844 49.816406 34.121094 C 49.914062 34.148438 50.03125 34.097656 50.136719 34.085938 C 50.460938 34.054688 50.785156 33.984375 51.105469 34.003906 C 51.777344 34.050781 51.808594 34.046875 51.972656 33.3125 Z M 52.859375 30.046875 C 52.871094 30.109375 52.886719 30.167969 52.898438 30.226562 C 53.285156 30.269531 53.675781 30.378906 54.050781 30.335938 C 54.890625 30.242188 55.714844 30.035156 56.550781 29.941406 C 57.398438 29.847656 58.25 29.785156 59.074219 30.140625 C 59.617188 30.375 59.824219 30.257812 60.070312 29.691406 C 60.105469 29.617188 60.136719 29.539062 60.179688 29.472656 C 60.359375 29.191406 60.304688 29 59.964844 28.941406 C 59.285156 28.824219 58.609375 28.683594 57.929688 28.621094 C 57.375 28.570312 56.785156 28.515625 56.257812 28.644531 C 55.367188 28.863281 54.507812 29.207031 53.652344 29.535156 C 53.363281 29.648438 53.121094 29.875 52.859375 30.046875 Z M 46.203125 32.304688 C 46.96875 32.652344 47.324219 32.734375 48.167969 32.605469 C 49.195312 32.445312 50.253906 32.445312 51.210938 31.929688 C 51.488281 31.777344 51.84375 31.738281 52.167969 31.722656 C 53.019531 31.6875 53.328125 31.464844 53.539062 30.632812 C 53.40625 30.601562 53.269531 30.585938 53.140625 30.539062 C 52.53125 30.316406 51.933594 30.34375 51.332031 30.597656 C 50.925781 30.769531 50.511719 30.957031 50.082031 31.011719 C 49.621094 31.078125 49.140625 30.992188 48.667969 30.984375 C 48.550781 30.980469 48.417969 30.984375 48.324219 31.039062 C 47.703125 31.410156 47.09375 31.796875 46.480469 32.175781 C 46.40625 32.21875 46.328125 32.246094 46.203125 32.304688 Z M 21.773438 30.03125 C 21.785156 29.988281 21.796875 29.945312 21.808594 29.902344 C 21.453125 29.710938 21.082031 29.542969 20.738281 29.324219 C 19.828125 28.746094 18.871094 28.351562 17.761719 28.507812 C 17.460938 28.546875 17.160156 28.566406 16.867188 28.628906 C 16.179688 28.773438 15.5 28.933594 14.820312 29.109375 C 14.742188 29.132812 14.632812 29.296875 14.648438 29.371094 C 14.796875 30.054688 15.269531 30.332031 15.839844 30.167969 C 16.238281 30.050781 16.667969 30.011719 17.085938 29.980469 C 17.480469 29.949219 17.882812 29.945312 18.277344 29.972656 C 19.078125 30.03125 19.886719 30.078125 20.679688 30.207031 C 21.09375 30.273438 21.429688 30.1875 21.773438 30.03125 Z M 30.417969 42.007812 C 30.390625 41.964844 30.363281 41.921875 30.335938 41.875 C 29.984375 42.042969 29.625 42.199219 29.285156 42.386719 C 28.554688 42.777344 27.84375 43.226562 26.957031 42.851562 C 26.890625 42.824219 26.792969 42.859375 26.714844 42.871094 C 26.308594 42.925781 25.902344 43.023438 25.496094 43.023438 C 25.257812 43.023438 25.019531 42.875 24.785156 42.785156 C 24.65625 42.734375 24.539062 42.636719 24.40625 42.601562 C 24.160156 42.535156 23.890625 42.535156 23.660156 42.445312 C 23.433594 42.355469 23.257812 42.105469 23.035156 42.0625 C 22.46875 41.953125 21.976562 41.777344 21.71875 41.210938 C 21.695312 41.160156 21.609375 41.132812 21.546875 41.101562 C 20.832031 40.769531 20.664062 40.039062 20.324219 39.433594 C 20.285156 39.363281 20.3125 39.25 20.328125 39.160156 C 20.414062 38.550781 20.914062 38.304688 21.351562 38.003906 C 21.550781 37.867188 21.738281 37.71875 21.929688 37.574219 C 20.980469 37.589844 19.773438 38.578125 19.609375 39.429688 C 19.5625 39.667969 19.621094 40.03125 19.777344 40.191406 C 20.5 40.917969 21.257812 41.613281 22.035156 42.28125 C 22.792969 42.925781 23.746094 43.179688 24.683594 43.417969 C 25.960938 43.738281 27.226562 43.710938 28.445312 43.144531 C 28.71875 43.015625 29.03125 42.871094 29.3125 42.890625 C 30.015625 42.9375 30.101562 42.355469 30.417969 42.007812 Z M 28.320312 32.457031 C 28.332031 32.410156 28.34375 32.363281 28.359375 32.316406 C 27.847656 31.953125 27.351562 31.566406 26.820312 31.234375 C 26.570312 31.082031 26.1875 30.886719 25.96875 30.96875 C 25.140625 31.285156 24.441406 31.035156 23.714844 30.691406 C 23.296875 30.492188 22.84375 30.363281 22.402344 30.210938 C 22.339844 30.1875 22.257812 30.183594 22.199219 30.207031 C 21.832031 30.347656 21.46875 30.496094 21.101562 30.640625 C 21.339844 31.195312 21.664062 31.667969 22.417969 31.554688 C 22.503906 31.539062 22.601562 31.597656 22.695312 31.628906 C 23.386719 31.851562 24.066406 32.167969 24.777344 32.28125 C 25.816406 32.441406 26.878906 32.464844 27.933594 32.53125 C 28.058594 32.542969 28.191406 32.484375 28.320312 32.457031 Z M 50.867188 32.367188 C 50.863281 32.421875 50.863281 32.476562 50.863281 32.53125 C 50.96875 32.601562 51.074219 32.6875 51.1875 32.742188 C 51.976562 33.113281 52.816406 33.089844 53.660156 33.109375 C 54.460938 33.128906 55.289062 32.976562 56.050781 33.390625 C 56.183594 33.464844 56.445312 33.460938 56.558594 33.375 C 56.902344 33.113281 57.210938 32.804688 57.515625 32.496094 C 57.632812 32.375 57.710938 32.214844 57.808594 32.070312 C 57.65625 31.984375 57.515625 31.871094 57.351562 31.820312 C 56.71875 31.628906 56.082031 31.710938 55.4375 31.804688 C 54.828125 31.894531 54.191406 32.035156 53.601562 31.941406 C 52.945312 31.839844 52.347656 31.957031 51.738281 32.085938 C 51.441406 32.148438 51.15625 32.269531 50.867188 32.367188 Z M 34.046875 44.023438 C 34.089844 44.234375 34.144531 44.417969 34.167969 44.609375 C 34.214844 45 34.40625 45.191406 34.820312 45.257812 C 35.714844 45.398438 36.597656 45.625 37.515625 45.527344 C 38.210938 45.453125 38.90625 45.402344 39.597656 45.296875 C 39.863281 45.253906 40.113281 45.089844 40.207031 44.742188 L 39.667969 44.742188 C 39.558594 44.578125 39.472656 44.453125 39.378906 44.308594 C 39.671875 44.289062 39.964844 44.273438 40.355469 44.246094 C 40.210938 44.125 40.152344 44.03125 40.09375 44.03125 C 38.09375 44.023438 36.089844 44.023438 34.046875 44.023438 Z M 27.179688 42.421875 C 27.210938 42.472656 27.242188 42.527344 27.273438 42.582031 C 27.425781 42.617188 27.582031 42.699219 27.726562 42.679688 C 28.402344 42.59375 29.015625 42.398438 29.386719 41.75 C 29.558594 41.441406 29.753906 41.132812 30 40.878906 C 30.972656 39.859375 31.96875 38.859375 32.953125 37.851562 C 33.019531 37.78125 33.0625 37.691406 33.113281 37.613281 C 33.089844 37.582031 33.0625 37.550781 33.035156 37.523438 C 32.914062 37.582031 32.789062 37.632812 32.667969 37.699219 C 31.894531 38.136719 31.117188 38.566406 30.351562 39.019531 C 29.847656 39.320312 29.261719 39.5625 28.894531 39.988281 C 28.246094 40.734375 27.742188 41.601562 27.179688 42.421875 Z M 39.671875 43.222656 C 39.792969 43.132812 39.882812 43.066406 39.988281 42.988281 C 39.792969 42.828125 39.636719 42.59375 39.460938 42.578125 C 38.453125 42.488281 37.4375 42.429688 36.425781 42.398438 C 35.890625 42.382812 35.351562 42.441406 34.816406 42.472656 C 34.609375 42.484375 34.40625 42.511719 34.199219 42.53125 C 33.707031 42.582031 33.835938 42.945312 33.824219 43.246094 C 33.808594 43.582031 34.015625 43.675781 34.296875 43.683594 C 35.078125 43.710938 35.859375 43.746094 36.640625 43.757812 C 37.628906 43.769531 38.617188 43.761719 39.695312 43.761719 C 39.386719 43.300781 39.769531 43.421875 39.925781 43.347656 C 39.832031 43.300781 39.773438 43.273438 39.671875 43.222656 Z M 24.175781 32.417969 C 23.984375 32.335938 23.851562 32.261719 23.707031 32.222656 C 22.769531 31.957031 21.839844 31.679688 20.832031 31.871094 C 20.335938 31.960938 19.816406 31.898438 19.304688 31.914062 C 18.71875 31.933594 18.128906 31.953125 17.539062 31.996094 C 17.203125 32.019531 17.125 32.253906 17.324219 32.480469 C 17.605469 32.800781 17.933594 33.09375 18.28125 33.347656 C 18.398438 33.4375 18.632812 33.421875 18.804688 33.394531 C 19.878906 33.230469 20.957031 32.867188 22.015625 32.925781 C 22.835938 32.972656 23.476562 32.832031 24.175781 32.417969 Z M 33.855469 40.984375 C 33.828125 41.117188 33.773438 41.34375 33.746094 41.574219 C 33.6875 42.050781 33.832031 42.226562 34.3125 42.1875 C 34.753906 42.152344 35.191406 42 35.628906 42.003906 C 36.492188 42.011719 37.355469 42.089844 38.21875 42.144531 C 38.851562 42.1875 39.480469 42.246094 40.113281 42.277344 C 40.199219 42.285156 40.289062 42.195312 40.375 42.148438 C 40.308594 42.074219 40.257812 41.980469 40.175781 41.929688 C 39.960938 41.804688 39.734375 41.699219 39.445312 41.546875 C 39.632812 41.488281 39.75 41.453125 39.863281 41.414062 C 39.113281 41.171875 38.355469 40.886719 37.585938 40.859375 C 36.363281 40.8125 35.128906 40.933594 33.855469 40.984375 Z M 55.996094 28.371094 C 55.667969 28.054688 55.289062 27.90625 54.914062 28.003906 C 54.261719 28.175781 53.617188 28.378906 52.972656 28.570312 C 52.164062 28.808594 51.371094 29.136719 50.546875 29.253906 C 49.8125 29.355469 49.222656 29.492188 49.03125 30.296875 C 48.996094 30.433594 48.871094 30.640625 48.917969 30.683594 C 49.023438 30.785156 49.210938 30.863281 49.355469 30.847656 C 50.492188 30.726562 51.558594 30.324219 52.570312 29.839844 C 53.570312 29.359375 54.480469 28.695312 55.617188 28.535156 C 55.734375 28.519531 55.84375 28.441406 55.996094 28.371094 Z M 19.199219 28.226562 C 19.367188 28.3125 19.484375 28.371094 19.601562 28.429688 C 20.074219 28.652344 20.546875 28.863281 21.011719 29.101562 C 21.570312 29.386719 22.109375 29.707031 22.671875 29.984375 C 22.832031 30.0625 23.054688 30.007812 23.222656 30.078125 C 23.613281 30.238281 23.972656 30.503906 24.378906 30.605469 C 24.804688 30.714844 25.261719 30.695312 25.707031 30.703125 C 25.757812 30.703125 25.867188 30.519531 25.851562 30.441406 C 25.6875 29.660156 25.25 29.277344 24.457031 29.164062 C 23.0625 28.964844 21.761719 28.453125 20.4375 28.015625 C 19.996094 27.867188 19.621094 27.796875 19.199219 28.226562 Z M 39.261719 45.898438 C 38.421875 45.898438 37.613281 45.949219 36.8125 45.882812 C 35.984375 45.808594 35.167969 45.617188 34.34375 45.480469 C 34.367188 45.703125 34.378906 45.917969 34.414062 46.128906 C 34.480469 46.507812 34.65625 46.808594 35.0625 46.894531 C 35.628906 47.015625 36.195312 47.183594 36.769531 47.222656 C 37.488281 47.269531 38.21875 47.230469 38.9375 47.175781 C 39.164062 47.160156 39.378906 47.003906 39.308594 46.664062 C 39.277344 46.519531 39.402344 46.34375 39.445312 46.207031 C 39.378906 46.089844 39.296875 45.957031 39.261719 45.898438 Z M 53.445312 31.667969 C 53.890625 31.667969 54.296875 31.710938 54.695312 31.660156 C 55.542969 31.546875 56.375 31.230469 57.246094 31.480469 C 57.484375 31.546875 57.71875 31.625 57.953125 31.695312 C 58.058594 31.722656 58.203125 31.792969 58.261719 31.75 C 58.621094 31.492188 59.066406 31.285156 59.121094 30.765625 C 59.132812 30.671875 59.066406 30.492188 59.003906 30.476562 C 58.582031 30.363281 58.148438 30.1875 57.730469 30.210938 C 56.71875 30.265625 55.71875 30.464844 54.707031 30.523438 C 53.933594 30.566406 53.738281 31.109375 53.445312 31.667969 Z M 21.105469 31.351562 C 21.046875 30.90625 20.632812 30.46875 20.164062 30.425781 C 19.496094 30.367188 18.828125 30.269531 18.160156 30.292969 C 17.4375 30.3125 16.71875 30.445312 16 30.542969 C 15.71875 30.578125 15.679688 30.777344 15.765625 31 C 15.914062 31.363281 16.761719 31.78125 17.148438 31.726562 C 17.667969 31.65625 18.1875 31.585938 18.707031 31.566406 C 19.164062 31.550781 19.621094 31.613281 20.082031 31.625 C 20.226562 31.628906 20.378906 31.59375 20.519531 31.554688 C 20.714844 31.5 20.902344 31.421875 21.105469 31.351562 Z M 25.894531 29.449219 C 25.851562 29.492188 25.808594 29.53125 25.761719 29.574219 C 25.992188 29.941406 26.15625 30.394531 26.472656 30.664062 C 26.976562 31.097656 27.585938 31.402344 28.144531 31.769531 C 28.5625 32.039062 28.949219 32.371094 29.390625 32.59375 C 30.054688 32.929688 30.75 33.199219 31.433594 33.480469 C 31.550781 33.53125 31.703125 33.5 31.839844 33.503906 C 31.792969 33.359375 31.785156 33.179688 31.6875 33.078125 C 31.503906 32.878906 31.28125 32.710938 31.050781 32.558594 C 30.074219 31.90625 29.09375 31.269531 28.113281 30.625 C 27.695312 30.347656 27.28125 30.058594 26.859375 29.785156 C 26.566406 29.59375 26.265625 29.402344 25.894531 29.449219 Z M 42.472656 38.011719 C 42.453125 38.042969 42.4375 38.074219 42.421875 38.105469 C 42.457031 38.160156 42.480469 38.222656 42.523438 38.265625 C 43.261719 39.039062 44.007812 39.800781 44.734375 40.582031 C 45.046875 40.921875 45.308594 41.3125 45.601562 41.671875 C 46.03125 42.195312 46.496094 42.683594 47.25 42.6875 C 47.398438 42.6875 47.546875 42.613281 47.699219 42.574219 C 47.640625 42.425781 47.605469 42.261719 47.519531 42.132812 C 47.253906 41.75 46.957031 41.390625 46.691406 41.007812 C 46.242188 40.355469 45.710938 39.808594 45.003906 39.421875 C 44.28125 39.023438 43.589844 38.574219 42.878906 38.15625 C 42.757812 38.085938 42.609375 38.058594 42.472656 38.011719 Z M 50.246094 34.445312 C 50.269531 35.054688 50.28125 35.628906 50.332031 36.195312 C 50.339844 36.300781 50.535156 36.484375 50.625 36.472656 C 50.992188 36.433594 51.355469 36.359375 51.707031 36.25 C 52.167969 36.109375 52.617188 35.9375 53.066406 35.765625 C 53.476562 35.605469 53.878906 35.433594 54.300781 35.257812 C 53.8125 34.546875 51.082031 34.09375 50.246094 34.445312 Z M 19.246094 27.6875 C 19.144531 27.609375 19.042969 27.496094 18.914062 27.441406 C 18.222656 27.152344 17.507812 26.957031 16.746094 27.070312 C 16.480469 27.113281 16.214844 27.167969 15.949219 27.226562 C 15.296875 27.371094 14.640625 27.496094 14 27.683594 C 13.804688 27.738281 13.492188 27.871094 13.65625 28.222656 C 13.824219 28.585938 14.273438 28.875 14.523438 28.789062 C 15.5625 28.425781 16.644531 28.289062 17.734375 28.152344 C 18.242188 28.089844 18.835938 28.261719 19.246094 27.6875 Z M 24.917969 28.949219 C 24.9375 28.894531 24.953125 28.84375 24.972656 28.792969 C 24.769531 28.496094 24.484375 28.3125 24.140625 28.152344 C 22.972656 27.613281 21.820312 27.035156 20.652344 26.488281 C 20.535156 26.433594 20.371094 26.460938 20.230469 26.480469 C 19.914062 26.527344 19.597656 26.605469 19.28125 26.644531 C 18.882812 26.695312 18.453125 26.519531 18.078125 26.824219 C 18.847656 27.121094 19.628906 27.351562 20.402344 27.601562 C 21.414062 27.933594 22.417969 28.292969 23.433594 28.609375 C 23.917969 28.757812 24.421875 28.835938 24.917969 28.949219 Z M 49.785156 28.9375 C 49.816406 28.992188 49.851562 29.046875 49.886719 29.105469 C 50.339844 29.007812 50.8125 28.957031 51.25 28.8125 C 52.671875 28.339844 54.078125 27.828125 55.496094 27.347656 C 55.957031 27.191406 56.429688 27.082031 56.898438 26.953125 C 56.695312 26.828125 56.476562 26.761719 56.257812 26.742188 C 56.027344 26.71875 55.792969 26.753906 55.566406 26.734375 C 55.183594 26.703125 54.78125 26.542969 54.429688 26.621094 C 53.851562 26.753906 53.289062 27.003906 52.746094 27.257812 C 51.914062 27.652344 51.101562 28.089844 50.289062 28.523438 C 50.101562 28.625 49.949219 28.796875 49.785156 28.9375 Z M 55.503906 27.628906 C 56.195312 28.203125 56.863281 28.410156 57.652344 28.355469 C 58.53125 28.289062 59.40625 28.4375 60.253906 28.691406 C 60.695312 28.824219 61 28.679688 61.105469 28.265625 C 61.179688 27.976562 60.96875 27.734375 60.550781 27.644531 C 60.210938 27.570312 59.871094 27.527344 59.535156 27.441406 C 58.648438 27.21875 57.746094 27.15625 56.84375 27.226562 C 56.410156 27.261719 55.992188 27.476562 55.503906 27.628906 Z M 24.71875 34.546875 C 23.742188 34.003906 21.382812 34.394531 20.78125 35.242188 C 21.144531 35.386719 21.488281 35.527344 21.839844 35.65625 C 22.332031 35.835938 22.832031 36.003906 23.324219 36.1875 C 23.699219 36.324219 24.066406 36.519531 24.472656 36.320312 C 24.550781 36.28125 24.65625 36.113281 24.632812 36.066406 C 24.351562 35.542969 24.5625 35.058594 24.71875 34.546875 Z M 41.660156 35.289062 C 42.945312 35.765625 44.078125 36.566406 45.488281 36.761719 C 46.878906 36.957031 48.207031 36.925781 49.554688 36.601562 C 49.488281 36.523438 49.417969 36.488281 49.34375 36.457031 C 48.238281 36.019531 47.054688 36.042969 45.902344 35.875 C 44.9375 35.734375 43.96875 35.621094 43 35.488281 C 42.550781 35.429688 42.105469 35.355469 41.660156 35.289062 Z M 43.015625 33.378906 C 43.054688 33.429688 43.089844 33.480469 43.128906 33.53125 C 43.277344 33.484375 43.4375 33.457031 43.574219 33.386719 C 43.972656 33.179688 44.347656 32.90625 44.765625 32.753906 C 45.355469 32.542969 45.894531 32.285156 46.386719 31.898438 C 46.785156 31.585938 47.203125 31.277344 47.65625 31.054688 C 48.347656 30.710938 48.734375 30.144531 49.09375 29.375 C 48.707031 29.523438 48.394531 29.601562 48.132812 29.757812 C 47.398438 30.195312 46.675781 30.660156 45.960938 31.128906 C 45.214844 31.609375 44.46875 32.089844 43.75 32.609375 C 43.46875 32.8125 43.257812 33.121094 43.015625 33.378906 Z M 26.53125 38.292969 C 26.519531 38.238281 26.503906 38.1875 26.488281 38.132812 C 26.199219 38.113281 25.886719 38.019531 25.621094 38.085938 C 24.363281 38.414062 23.074219 38.390625 21.800781 38.347656 C 21.269531 38.328125 20.964844 38.511719 20.769531 38.875 C 20.65625 39.078125 20.722656 39.421875 20.800781 39.675781 C 20.890625 39.980469 21.148438 39.777344 21.328125 39.746094 C 21.53125 39.710938 21.730469 39.640625 21.925781 39.582031 C 22.496094 39.414062 23.054688 39.210938 23.628906 39.078125 C 24.421875 38.894531 25.226562 38.773438 26.019531 38.597656 C 26.203125 38.558594 26.363281 38.398438 26.53125 38.292969 Z M 48.320312 38.285156 C 48.488281 38.398438 48.566406 38.480469 48.660156 38.511719 C 49.199219 38.675781 49.738281 38.835938 50.285156 38.980469 C 51.410156 39.285156 52.535156 39.605469 53.675781 39.859375 C 53.882812 39.902344 54.191406 39.699219 54.382812 39.53125 C 54.589844 39.351562 54.535156 39.070312 54.308594 38.929688 C 54.058594 38.777344 53.769531 38.640625 53.488281 38.605469 C 52.453125 38.476562 51.414062 38.390625 50.378906 38.296875 C 49.730469 38.238281 49.085938 38.027344 48.320312 38.285156 Z M 25.617188 36.46875 C 25.601562 36.511719 25.582031 36.554688 25.566406 36.597656 C 25.742188 36.648438 25.917969 36.742188 26.09375 36.742188 C 26.933594 36.746094 27.773438 36.75 28.613281 36.707031 C 29.109375 36.679688 29.625 36.621094 30.09375 36.46875 C 30.808594 36.234375 31.492188 35.90625 32.183594 35.609375 C 32.277344 35.570312 32.347656 35.476562 32.433594 35.40625 C 32.414062 35.371094 32.394531 35.335938 32.378906 35.300781 C 30.113281 35.628906 27.820312 35.757812 25.617188 36.46875 Z M 34.035156 40.101562 C 33.925781 40.417969 34.09375 40.597656 34.40625 40.605469 C 34.953125 40.621094 35.5 40.597656 36.042969 40.566406 C 36.589844 40.535156 37.144531 40.394531 37.679688 40.445312 C 38.355469 40.503906 39.019531 40.710938 39.6875 40.851562 C 39.722656 40.828125 39.761719 40.800781 39.796875 40.777344 C 39.707031 40.625 39.652344 40.4375 39.523438 40.328125 C 39.289062 40.125 39.035156 39.902344 38.746094 39.804688 C 38.402344 39.6875 38.011719 39.683594 37.640625 39.648438 C 37.476562 39.632812 37.304688 39.675781 37.140625 39.660156 C 36.683594 39.621094 36.183594 39.332031 35.859375 39.921875 C 35.839844 39.957031 35.765625 39.972656 35.71875 39.976562 C 35.171875 40.019531 34.628906 40.058594 34.035156 40.101562 Z M 22.511719 33.769531 C 22.511719 33.4375 22.152344 33.128906 21.726562 33.183594 C 20.855469 33.304688 19.992188 33.488281 19.132812 33.671875 C 18.894531 33.722656 18.808594 33.964844 19.003906 34.109375 C 19.417969 34.410156 19.875 34.65625 20.324219 34.90625 C 20.386719 34.9375 20.523438 34.847656 20.621094 34.804688 C 21.136719 34.578125 21.640625 34.320312 22.167969 34.136719 C 22.40625 34.054688 22.539062 33.984375 22.511719 33.769531 Z M 39.246094 47.414062 C 37.777344 47.980469 36.3125 47.558594 34.851562 47.160156 C 34.832031 48.039062 35.347656 48.398438 36 48.554688 C 36.792969 48.746094 37.601562 48.820312 38.203125 48.65625 C 38.621094 48.15625 38.925781 47.792969 39.246094 47.414062 Z M 56.023438 33.933594 C 56.015625 33.867188 56.003906 33.800781 55.996094 33.730469 C 55.640625 33.625 55.292969 33.457031 54.933594 33.417969 C 54.277344 33.347656 53.617188 33.34375 52.957031 33.328125 C 52.320312 33.3125 52.164062 33.480469 52.164062 34.183594 C 52.402344 34.214844 52.644531 34.242188 52.886719 34.285156 C 53.253906 34.347656 53.660156 34.339844 53.96875 34.507812 C 54.347656 34.710938 54.679688 34.800781 55.046875 34.585938 C 55.386719 34.390625 55.699219 34.152344 56.023438 33.933594 Z M 26.21875 39.03125 C 26.203125 38.980469 26.1875 38.933594 26.171875 38.882812 C 26.082031 38.875 25.988281 38.847656 25.902344 38.867188 C 25.402344 38.960938 24.898438 39.050781 24.40625 39.179688 C 23.847656 39.320312 23.300781 39.503906 22.746094 39.660156 C 22.273438 39.800781 21.792969 39.917969 21.324219 40.074219 C 21.230469 40.105469 21.097656 40.296875 21.121094 40.367188 C 21.199219 40.605469 21.941406 40.882812 22.171875 40.796875 C 22.9375 40.507812 23.71875 40.242188 24.472656 39.917969 C 25.070312 39.660156 25.636719 39.328125 26.21875 39.03125 Z M 48.402344 39.082031 C 48.679688 39.214844 48.898438 39.328125 49.121094 39.425781 C 49.792969 39.71875 50.460938 40.023438 51.140625 40.292969 C 51.5625 40.460938 52.03125 40.527344 52.429688 40.730469 C 52.824219 40.929688 53.121094 40.8125 53.421875 40.605469 C 53.527344 40.535156 53.628906 40.40625 53.644531 40.292969 C 53.652344 40.230469 53.488281 40.105469 53.382812 40.074219 C 52.632812 39.851562 51.878906 39.640625 51.125 39.4375 C 50.664062 39.3125 50.203125 39.191406 49.734375 39.105469 C 49.3125 39.027344 48.894531 38.6875 48.402344 39.082031 Z M 41.847656 36.792969 C 41.839844 36.8125 41.832031 36.832031 41.828125 36.847656 C 42.089844 36.984375 42.347656 37.148438 42.621094 37.257812 C 43.890625 37.746094 45.171875 38.199219 46.4375 38.699219 C 47.097656 38.960938 47.738281 39.058594 48.429688 38.691406 C 48.09375 38.464844 47.746094 38.242188 47.367188 38.136719 C 46.601562 37.921875 45.816406 37.78125 45.039062 37.59375 C 43.972656 37.335938 42.910156 37.0625 41.847656 36.792969 Z M 23.136719 41.773438 C 23.214844 41.742188 23.324219 41.71875 23.414062 41.664062 C 23.65625 41.507812 23.886719 41.332031 24.132812 41.179688 C 24.898438 40.703125 25.671875 40.226562 26.445312 39.761719 C 26.621094 39.65625 26.835938 39.605469 26.996094 39.488281 C 27.101562 39.410156 27.140625 39.25 27.210938 39.125 C 27.074219 39.105469 26.941406 39.0625 26.804688 39.066406 C 26.699219 39.074219 26.59375 39.128906 26.496094 39.179688 C 25.730469 39.570312 24.964844 39.964844 24.199219 40.355469 C 24.128906 40.390625 24.058594 40.425781 23.984375 40.453125 C 23.445312 40.648438 22.902344 40.835938 22.367188 41.046875 C 22.28125 41.078125 22.175781 41.210938 22.1875 41.28125 C 22.203125 41.382812 22.296875 41.511719 22.390625 41.550781 C 22.617188 41.644531 22.863281 41.695312 23.136719 41.773438 Z M 33.234375 36.765625 C 33.226562 36.738281 33.214844 36.707031 33.203125 36.675781 C 33.078125 36.703125 32.949219 36.742188 32.820312 36.757812 C 31.800781 36.890625 30.890625 37.40625 29.867188 37.566406 C 28.910156 37.71875 27.976562 38.015625 27.039062 38.28125 C 26.851562 38.332031 26.707031 38.523438 26.472656 38.703125 C 27.691406 39.035156 28.65625 38.660156 29.617188 38.269531 C 30.390625 37.957031 31.15625 37.625 31.925781 37.304688 C 32.363281 37.121094 32.800781 36.945312 33.234375 36.765625 Z M 47.78125 39.722656 C 47.601562 39.960938 47.613281 40.15625 47.828125 40.34375 C 48.542969 40.976562 49.246094 41.625 49.972656 42.242188 C 50.21875 42.453125 50.878906 42.347656 51.082031 42.097656 C 51.128906 42.042969 51.128906 41.875 51.082031 41.832031 C 50.816406 41.582031 50.558594 41.308594 50.25 41.121094 C 49.441406 40.632812 48.605469 40.1875 47.78125 39.722656 Z M 28.480469 39.847656 C 27.988281 39.867188 27.542969 39.882812 27.308594 40.382812 C 27.261719 40.480469 27.1875 40.566406 27.105469 40.640625 C 26.511719 41.207031 25.90625 41.765625 25.316406 42.335938 C 25.238281 42.414062 25.210938 42.542969 25.160156 42.648438 C 25.28125 42.679688 25.40625 42.742188 25.527344 42.734375 C 26.355469 42.675781 27.066406 42.511719 27.402344 41.558594 C 27.617188 40.953125 28.097656 40.4375 28.480469 39.847656 Z M 23.558594 41.960938 C 23.953125 42.367188 24.789062 42.40625 25.191406 42.042969 C 25.773438 41.511719 26.351562 40.96875 26.910156 40.414062 C 27.035156 40.289062 27.078125 40.082031 27.15625 39.914062 C 27.121094 39.882812 27.082031 39.855469 27.046875 39.828125 C 25.761719 40.316406 24.675781 41.128906 23.558594 41.960938 Z M 47.574219 39.128906 C 47.558594 39.167969 47.542969 39.207031 47.527344 39.246094 C 47.664062 39.355469 47.789062 39.484375 47.9375 39.566406 C 49.101562 40.214844 50.328125 40.75 51.386719 41.582031 C 51.746094 41.867188 52.222656 41.789062 52.542969 41.464844 C 52.710938 41.296875 52.722656 41.160156 52.472656 41.066406 C 51.996094 40.890625 51.511719 40.730469 51.042969 40.53125 C 50.085938 40.117188 49.140625 39.671875 48.183594 39.257812 C 47.996094 39.179688 47.777344 39.171875 47.574219 39.128906 Z M 49.738281 42.507812 C 49.667969 42.421875 49.625 42.355469 49.566406 42.300781 C 48.953125 41.753906 48.308594 41.238281 47.730469 40.65625 C 47.320312 40.246094 46.894531 39.960938 46.277344 39.9375 C 46.863281 40.738281 47.421875 41.511719 47.996094 42.277344 C 48.339844 42.738281 49.167969 42.855469 49.738281 42.507812 Z M 21.890625 38.042969 C 22.253906 38.082031 22.589844 38.171875 22.914062 38.140625 C 23.679688 38.074219 24.441406 37.941406 25.203125 37.855469 C 25.542969 37.816406 25.769531 37.6875 25.824219 37.335938 C 25.078125 36.78125 22.511719 37.210938 21.890625 38.042969 Z M 55.144531 26.226562 C 55.496094 26.5 55.851562 26.546875 56.25 26.480469 C 56.785156 26.390625 57.324219 26.3125 57.867188 26.292969 C 58.25 26.277344 58.632812 26.375 59.015625 26.410156 C 59.628906 26.464844 60.226562 26.421875 60.828125 26.171875 C 60.566406 25.886719 59.882812 25.636719 59.570312 25.667969 C 58.53125 25.773438 57.488281 25.863281 56.453125 25.984375 C 56.011719 26.035156 55.578125 26.144531 55.144531 26.226562 Z M 32.46875 36.488281 C 32.453125 36.4375 32.441406 36.386719 32.425781 36.335938 C 32.109375 36.382812 31.78125 36.398438 31.476562 36.484375 C 30.796875 36.671875 30.144531 36.976562 29.457031 37.082031 C 28.546875 37.222656 27.617188 37.214844 26.699219 37.277344 C 26.550781 37.285156 26.351562 37.273438 26.269531 37.359375 C 26.179688 37.445312 26.203125 37.640625 26.179688 37.792969 C 26.550781 37.828125 26.871094 38.121094 27.292969 37.949219 C 27.6875 37.785156 28.109375 37.6875 28.523438 37.582031 C 29.761719 37.261719 31.003906 36.957031 32.242188 36.640625 C 32.324219 36.617188 32.394531 36.539062 32.46875 36.488281 Z M 14.46875 25.882812 C 14.855469 26.175781 19.648438 26.40625 19.984375 26.160156 C 18.160156 25.710938 16.390625 25.226562 14.46875 25.882812 Z M 53.414062 38.371094 C 52.84375 37.695312 49.625 37.023438 48.957031 37.328125 C 49.183594 37.847656 49.183594 37.847656 49.675781 37.925781 C 50.5 38.050781 51.324219 38.1875 52.152344 38.292969 C 52.570312 38.347656 52.992188 38.347656 53.414062 38.371094 Z M 57.101562 26.5 C 57.089844 26.574219 57.074219 26.652344 57.058594 26.730469 C 57.421875 26.824219 57.773438 26.945312 58.140625 27.007812 C 59.128906 27.175781 60.125 27.296875 61.109375 27.476562 C 61.503906 27.546875 61.703125 27.417969 61.636719 27.015625 C 61.578125 26.636719 61.261719 26.394531 60.890625 26.5 C 60.03125 26.746094 59.175781 26.664062 58.308594 26.570312 C 57.910156 26.527344 57.503906 26.523438 57.101562 26.5 Z M 32.53125 37.453125 C 32.363281 37.421875 32.335938 37.40625 32.3125 37.414062 C 30.878906 37.976562 29.441406 38.53125 28.019531 39.117188 C 27.769531 39.222656 27.417969 39.332031 27.429688 39.714844 C 29.167969 39.707031 30.378906 38.53125 31.808594 37.875 C 32.027344 37.773438 32.226562 37.632812 32.53125 37.453125 Z M 35.710938 48.914062 C 36 49.261719 36.324219 49.707031 36.703125 50.097656 C 37.066406 50.476562 37.410156 50.375 37.523438 49.898438 C 37.617188 49.503906 37.777344 49.445312 38.28125 49.648438 C 38.347656 49.46875 38.410156 49.285156 38.472656 49.105469 C 38.289062 49.066406 38.113281 49.003906 37.929688 48.992188 C 37.183594 48.957031 36.4375 48.9375 35.710938 48.914062 Z M 17.558594 26.597656 C 17.503906 26.574219 17.476562 26.550781 17.453125 26.550781 C 16.335938 26.539062 15.222656 26.542969 14.117188 26.339844 C 13.6875 26.261719 13.574219 26.667969 13.398438 26.910156 C 13.304688 27.039062 13.382812 27.292969 13.382812 27.414062 C 14.832031 27.128906 16.179688 26.867188 17.558594 26.597656 Z M 36.003906 31.796875 C 36.304688 32.351562 37.457031 32.359375 36.84375 33.339844 L 37.519531 33.339844 C 37.195312 32.828125 37.210938 32.820312 37.703125 32.488281 C 37.980469 32.304688 38.210938 32.054688 38.460938 31.832031 C 38.445312 31.792969 38.433594 31.75 38.417969 31.707031 C 37.632812 31.902344 36.835938 31.355469 36.003906 31.796875 Z M 32.625 30.789062 C 32.609375 30.792969 32.59375 30.796875 32.574219 30.800781 C 32.582031 30.910156 32.589844 31.019531 32.59375 31.128906 C 32.601562 31.453125 32.75 31.699219 33.0625 31.777344 C 33.214844 31.816406 33.535156 31.757812 33.542969 31.707031 C 33.585938 31.464844 33.589844 31.195312 33.519531 30.957031 C 33.40625 30.558594 33.242188 30.171875 33.070312 29.789062 C 33.011719 29.660156 32.855469 29.464844 32.761719 29.476562 C 32.511719 29.5 32.347656 29.652344 32.4375 29.957031 C 32.519531 30.230469 32.566406 30.511719 32.625 30.789062 Z M 42.386719 29.855469 C 42.320312 29.777344 42.207031 29.589844 42.164062 29.601562 C 42.023438 29.652344 41.851562 29.75 41.804688 29.875 C 41.664062 30.226562 41.578125 30.597656 41.464844 30.960938 C 41.398438 31.179688 41.285156 31.390625 41.265625 31.613281 C 41.253906 31.714844 41.472656 31.9375 41.507812 31.921875 C 41.707031 31.835938 41.992188 31.726562 42.042969 31.5625 C 42.203125 31.035156 42.269531 30.476562 42.386719 29.855469 Z M 40.648438 34.742188 C 40.648438 34.761719 40.652344 34.785156 40.65625 34.808594 C 41.054688 34.882812 41.457031 34.957031 41.855469 35.027344 C 41.917969 35.035156 42.003906 35.019531 42.046875 34.980469 C 42.257812 34.773438 42.480469 34.570312 42.652344 34.332031 C 42.742188 34.203125 42.738281 34.011719 42.78125 33.847656 C 42.625 33.859375 42.449219 33.828125 42.324219 33.894531 C 41.988281 34.078125 41.6875 34.324219 41.351562 34.503906 C 41.136719 34.621094 40.882812 34.664062 40.648438 34.742188 Z M 39.351562 32.128906 C 39.328125 32.082031 39.28125 31.945312 39.199219 31.832031 C 39.179688 31.804688 39.027344 31.824219 38.984375 31.871094 C 38.707031 32.136719 38.445312 32.417969 38.183594 32.695312 C 38.011719 32.875 38.046875 33 38.28125 33.09375 C 38.648438 33.238281 39.34375 32.675781 39.351562 32.128906 Z M 32.019531 32.460938 C 31.851562 31.871094 29.945312 30.589844 29.5 30.699219 C 30.363281 31.304688 31.191406 31.882812 32.019531 32.460938 Z M 38.347656 39.203125 C 39.15625 39.453125 39.828125 38.851562 40.609375 38.703125 C 40.476562 38.621094 40.339844 38.59375 40.21875 38.535156 C 39.910156 38.382812 39.671875 38.402344 39.378906 38.648438 C 39.082031 38.902344 38.679688 39.03125 38.347656 39.203125 Z M 43.289062 39.351562 C 43.25 39.386719 43.207031 39.417969 43.167969 39.453125 C 43.734375 40.195312 44.292969 40.9375 44.875 41.671875 C 44.96875 41.792969 45.144531 41.847656 45.285156 41.9375 C 45.320312 41.894531 45.351562 41.855469 45.386719 41.816406 C 44.6875 40.996094 43.988281 40.171875 43.289062 39.351562 Z M 41.304688 40.878906 C 41.355469 40.871094 41.40625 40.867188 41.457031 40.859375 C 41.601562 40.296875 41.488281 39.746094 41.269531 39.21875 C 41.234375 39.140625 41.027344 39.132812 40.773438 39.058594 C 40.976562 39.746094 41.140625 40.3125 41.304688 40.878906 Z M 38.832031 33.332031 C 39.128906 33.699219 39.449219 33.691406 39.765625 33.558594 C 40.054688 33.4375 40.078125 33.15625 39.941406 32.9375 C 39.882812 32.847656 39.59375 32.824219 39.457031 32.878906 C 39.238281 32.972656 39.0625 33.15625 38.832031 33.332031 Z M 36.152344 31.328125 C 36.171875 31.375 36.1875 31.421875 36.207031 31.46875 C 36.664062 31.375 37.21875 31.507812 37.402344 30.765625 C 37.578125 31.085938 37.636719 31.453125 37.976562 31.300781 L 37.976562 30.660156 C 37.625 30.78125 37.117188 30.417969 36.925781 31.050781 C 36.914062 31.089844 36.816406 31.109375 36.753906 31.128906 C 36.554688 31.199219 36.351562 31.261719 36.152344 31.328125 Z M 32.539062 39.234375 C 32.496094 39.199219 32.453125 39.164062 32.410156 39.128906 C 31.78125 39.917969 31.15625 40.703125 30.527344 41.492188 C 30.558594 41.515625 30.589844 41.542969 30.621094 41.566406 C 31.296875 40.820312 32.054688 40.132812 32.539062 39.234375 Z M 35.761719 33.433594 C 35.765625 33.394531 35.765625 33.359375 35.765625 33.320312 C 35.488281 32.953125 35.207031 32.585938 34.925781 32.21875 C 34.882812 32.226562 34.839844 32.230469 34.796875 32.234375 C 34.828125 32.5625 34.757812 32.960938 34.925781 33.195312 C 35.054688 33.378906 35.472656 33.363281 35.761719 33.433594 Z M 34.09375 39.496094 C 34.324219 39.941406 35.207031 39.90625 35.765625 39.445312 C 35.472656 39.3125 35.207031 39.191406 34.890625 39.050781 C 34.953125 39.28125 34.996094 39.425781 35.054688 39.636719 C 34.699219 39.582031 34.421875 39.542969 34.09375 39.496094 Z M 36.667969 37.773438 C 36.648438 37.851562 36.628906 37.933594 36.609375 38.015625 C 36.992188 38.183594 37.375 38.347656 37.820312 38.542969 C 37.761719 38.324219 37.769531 37.945312 37.628906 37.878906 C 37.351562 37.753906 36.992188 37.796875 36.667969 37.773438 Z M 29.675781 41.722656 C 29.730469 41.777344 29.785156 41.828125 29.839844 41.882812 C 30.386719 41.21875 30.933594 40.558594 31.476562 39.898438 C 31.4375 39.867188 31.398438 39.832031 31.359375 39.800781 C 30.796875 40.441406 30.238281 41.082031 29.675781 41.722656 Z M 40.335938 37.261719 C 39.898438 38.140625 39.941406 38.238281 40.636719 38.273438 C 40.625 38.050781 40.617188 37.816406 40.605469 37.585938 C 40.636719 37.578125 40.671875 37.570312 40.707031 37.5625 C 40.585938 37.464844 40.464844 37.367188 40.335938 37.261719 Z M 33.929688 38.441406 C 34.511719 38.632812 35.09375 38.824219 35.714844 39.023438 C 35.25 38.289062 34.574219 38.398438 33.929688 38.441406 Z M 38.125 30.355469 C 37.558594 29.777344 37.371094 29.78125 36.847656 30.355469 Z M 39.066406 31.414062 C 39.097656 31.382812 39.128906 31.351562 39.160156 31.320312 C 38.996094 30.425781 38.832031 30.277344 38.289062 30.601562 C 38.554688 30.878906 38.8125 31.148438 39.066406 31.414062 Z M 39.5 39.640625 C 39.667969 39.515625 39.75 39.453125 39.832031 39.394531 C 39.707031 39.378906 39.605469 39.390625 39.527344 39.441406 C 39.421875 39.511719 39.335938 39.613281 39.242188 39.699219 C 39.339844 39.796875 39.429688 39.957031 39.546875 39.980469 C 39.789062 40.035156 40.042969 40.015625 40.292969 40.027344 C 40.308594 39.984375 40.320312 39.9375 40.335938 39.890625 C 40.085938 39.816406 39.835938 39.742188 39.5 39.640625 Z M 38.921875 38.5625 C 39.484375 38.300781 39.746094 37.914062 39.886719 37.414062 C 39.601562 37.375 39.601562 37.375 38.921875 38.5625 Z M 34.058594 33.585938 C 33.640625 33.183594 33.289062 32.84375 32.9375 32.5 C 32.902344 32.539062 32.867188 32.574219 32.828125 32.609375 C 33.148438 32.964844 33.464844 33.328125 33.796875 33.671875 C 33.824219 33.703125 33.980469 33.613281 34.058594 33.585938 Z M 43.363281 40.1875 C 43.335938 40.207031 43.3125 40.226562 43.289062 40.246094 C 43.488281 40.523438 43.710938 40.789062 43.878906 41.082031 C 44.144531 41.550781 44.25 41.675781 44.605469 41.738281 C 44.171875 41.199219 43.765625 40.691406 43.363281 40.1875 Z M 37.738281 39.300781 C 37.742188 39.230469 37.75 39.164062 37.753906 39.09375 L 35.996094 39.09375 C 35.996094 39.117188 35.996094 39.140625 35.996094 39.160156 C 36.578125 39.207031 37.15625 39.253906 37.738281 39.300781 Z M 42.246094 36.238281 C 40.917969 35.742188 40.917969 35.742188 40.625 35.949219 C 40.917969 36.167969 41.480469 35.574219 41.554688 36.238281 Z M 40.585938 32.839844 C 40.597656 32.886719 40.605469 32.9375 40.617188 32.984375 C 40.96875 33.242188 41.125 33.191406 41.324219 32.636719 C 41.023438 32.71875 40.804688 32.777344 40.585938 32.839844 Z M 43.71875 27.90625 C 43.691406 27.867188 43.660156 27.828125 43.628906 27.789062 C 43.273438 28.058594 42.917969 28.328125 42.5625 28.597656 C 42.589844 28.632812 42.617188 28.671875 42.644531 28.707031 C 43.003906 28.441406 43.363281 28.171875 43.71875 27.90625 Z M 33.90625 37.917969 C 33.902344 37.964844 33.902344 38.007812 33.898438 38.050781 C 34.140625 38.0625 34.382812 38.078125 34.652344 38.089844 C 34.449219 37.46875 34.144531 38.003906 33.90625 37.917969 Z M 30.722656 27.046875 C 30.671875 27.09375 30.621094 27.136719 30.570312 27.179688 C 30.789062 27.417969 31.007812 27.65625 31.226562 27.894531 C 31.261719 27.863281 31.292969 27.835938 31.328125 27.804688 C 31.125 27.550781 30.925781 27.300781 30.722656 27.046875 Z M 33.757812 39.488281 C 33.699219 39.480469 33.640625 39.46875 33.582031 39.457031 C 33.527344 39.769531 33.476562 40.082031 33.425781 40.390625 C 33.460938 40.398438 33.496094 40.402344 33.53125 40.410156 C 33.605469 40.105469 33.683594 39.796875 33.757812 39.488281 Z M 40.679688 36.378906 C 40.367188 36.777344 40.402344 36.875 40.875 37.0625 C 40.808594 36.839844 40.75 36.632812 40.679688 36.378906 Z M 40.605469 33.519531 C 40.785156 33.636719 40.882812 33.75 40.953125 33.734375 C 41.082031 33.707031 41.191406 33.605469 41.3125 33.535156 C 41.296875 33.503906 41.277344 33.472656 41.257812 33.441406 C 41.085938 33.460938 40.914062 33.484375 40.605469 33.519531 Z M 27.746094 29.554688 C 27.726562 29.578125 27.707031 29.601562 27.6875 29.625 C 28.019531 29.820312 28.351562 30.019531 28.679688 30.214844 C 28.699219 30.183594 28.71875 30.148438 28.738281 30.117188 C 28.40625 29.929688 28.074219 29.742188 27.746094 29.554688 Z M 41.054688 35.550781 C 40.90625 35.335938 40.8125 35.199219 40.667969 34.996094 C 40.648438 35.246094 40.636719 35.402344 40.621094 35.59375 C 40.753906 35.578125 40.855469 35.570312 41.054688 35.550781 Z M 41.054688 35.550781 " fill-opacity="1" fill-rule="evenodd"/></g><path fill="#ffffff" d="M 32.066406 41.96875 C 31.921875 42.125 31.761719 42.269531 31.632812 42.441406 C 31.410156 42.742188 31.207031 43.058594 30.964844 43.417969 C 30.890625 43.164062 30.84375 43.007812 30.777344 42.777344 C 31.503906 41.605469 31.503906 41.605469 31.898438 41.636719 C 32.085938 41.320312 32.28125 40.992188 32.472656 40.664062 C 32.535156 40.597656 32.59375 40.53125 32.65625 40.464844 C 32.707031 40.441406 32.761719 40.417969 32.816406 40.394531 C 32.722656 40.601562 32.628906 40.808594 32.546875 41.019531 C 32.488281 41.160156 32.453125 41.3125 32.40625 41.460938 C 32.292969 41.628906 32.179688 41.796875 32.066406 41.96875 Z M 32.066406 41.96875 " fill-opacity="1" fill-rule="evenodd"/><path fill="#ffffff" d="M 32.65625 40.460938 C 32.59375 40.53125 32.535156 40.597656 32.472656 40.664062 C 32.386719 40.792969 32.300781 40.921875 32.214844 41.046875 C 32.160156 41 32.105469 40.953125 32.050781 40.90625 C 32.226562 40.640625 32.398438 40.375 32.574219 40.109375 C 32.605469 40.121094 32.640625 40.136719 32.671875 40.148438 C 32.667969 40.253906 32.660156 40.359375 32.65625 40.460938 Z M 32.65625 40.460938 " fill-opacity="1" fill-rule="evenodd"/><g fill="#ffffff" fill-opacity="1"><g transform="translate(18.08762, 17.393563)"><g><path d="M 0.53125 -3.703125 C 0.53125 -3.304688 0.601562 -2.882812 0.75 -2.4375 C 0.90625 -1.988281 1.144531 -1.570312 1.46875 -1.1875 C 1.789062 -0.8125 2.203125 -0.5 2.703125 -0.25 C 3.210938 0 3.816406 0.125 4.515625 0.125 C 4.984375 0.125 5.410156 0.0664062 5.796875 -0.046875 C 6.179688 -0.160156 6.523438 -0.316406 6.828125 -0.515625 C 7.140625 -0.710938 7.410156 -0.941406 7.640625 -1.203125 C 7.867188 -1.460938 8.050781 -1.734375 8.1875 -2.015625 C 8.332031 -2.304688 8.441406 -2.59375 8.515625 -2.875 C 8.597656 -3.164062 8.640625 -3.441406 8.640625 -3.703125 C 8.640625 -4.097656 8.554688 -4.519531 8.390625 -4.96875 C 8.222656 -5.414062 7.96875 -5.832031 7.625 -6.21875 C 7.289062 -6.601562 6.863281 -6.921875 6.34375 -7.171875 C 5.832031 -7.421875 5.222656 -7.546875 4.515625 -7.546875 C 3.816406 -7.546875 3.210938 -7.421875 2.703125 -7.171875 C 2.203125 -6.921875 1.789062 -6.609375 1.46875 -6.234375 C 1.144531 -5.859375 0.90625 -5.441406 0.75 -4.984375 C 0.601562 -4.535156 0.53125 -4.109375 0.53125 -3.703125 Z M 1.5625 -3.703125 C 1.5625 -4.203125 1.632812 -4.65625 1.78125 -5.0625 C 1.9375 -5.476562 2.144531 -5.832031 2.40625 -6.125 C 2.675781 -6.425781 2.992188 -6.660156 3.359375 -6.828125 C 3.722656 -6.992188 4.113281 -7.078125 4.53125 -7.078125 C 4.945312 -7.078125 5.335938 -6.992188 5.703125 -6.828125 C 6.078125 -6.660156 6.40625 -6.425781 6.6875 -6.125 C 6.96875 -5.832031 7.1875 -5.476562 7.34375 -5.0625 C 7.507812 -4.65625 7.59375 -4.203125 7.59375 -3.703125 C 7.59375 -3.210938 7.507812 -2.757812 7.34375 -2.34375 C 7.1875 -1.9375 6.96875 -1.582031 6.6875 -1.28125 C 6.40625 -0.988281 6.078125 -0.757812 5.703125 -0.59375 C 5.335938 -0.425781 4.945312 -0.34375 4.53125 -0.34375 C 4.113281 -0.34375 3.722656 -0.425781 3.359375 -0.59375 C 2.992188 -0.757812 2.675781 -0.988281 2.40625 -1.28125 C 2.144531 -1.582031 1.9375 -1.9375 1.78125 -2.34375 C 1.632812 -2.757812 1.5625 -3.210938 1.5625 -3.703125 Z M 1.5625 -3.703125 "/></g></g></g><g fill="#ffffff" fill-opacity="1"><g transform="translate(27.245713, 17.393563)"><g><path d="M 0.3125 -4.875 L 0.3125 -5.296875 L 1.234375 -5.296875 L 1.234375 -6.921875 L 2.140625 -6.921875 L 2.140625 -5.296875 L 3.421875 -5.296875 L 3.421875 -4.875 L 2.140625 -4.875 L 2.140625 -1.359375 C 2.140625 -1.273438 2.140625 -1.175781 2.140625 -1.0625 C 2.148438 -0.957031 2.171875 -0.851562 2.203125 -0.75 C 2.242188 -0.65625 2.300781 -0.578125 2.375 -0.515625 C 2.445312 -0.453125 2.550781 -0.421875 2.6875 -0.421875 C 2.851562 -0.421875 2.992188 -0.484375 3.109375 -0.609375 C 3.222656 -0.742188 3.316406 -0.882812 3.390625 -1.03125 L 3.890625 -0.515625 C 3.546875 -0.171875 3.15625 0 2.71875 0 C 2.53125 0 2.347656 -0.03125 2.171875 -0.09375 C 1.992188 -0.15625 1.835938 -0.25 1.703125 -0.375 C 1.566406 -0.507812 1.453125 -0.679688 1.359375 -0.890625 C 1.273438 -1.097656 1.234375 -1.335938 1.234375 -1.609375 L 1.234375 -4.875 Z M 0.3125 -4.875 "/></g></g></g><g fill="#ffffff" fill-opacity="1"><g transform="translate(31.215985, 17.393563)"><g><path d="M 6.015625 -2.640625 C 6.015625 -2.273438 5.953125 -1.921875 5.828125 -1.578125 C 5.703125 -1.242188 5.519531 -0.945312 5.28125 -0.6875 C 5.039062 -0.4375 4.753906 -0.238281 4.421875 -0.09375 C 4.085938 0.0507812 3.710938 0.125 3.296875 0.125 C 2.867188 0.125 2.484375 0.0507812 2.140625 -0.09375 C 1.796875 -0.25 1.503906 -0.453125 1.265625 -0.703125 C 1.035156 -0.960938 0.851562 -1.257812 0.71875 -1.59375 C 0.59375 -1.925781 0.53125 -2.273438 0.53125 -2.640625 C 0.53125 -3.003906 0.59375 -3.351562 0.71875 -3.6875 C 0.851562 -4.019531 1.035156 -4.3125 1.265625 -4.5625 C 1.503906 -4.820312 1.796875 -5.023438 2.140625 -5.171875 C 2.484375 -5.328125 2.867188 -5.40625 3.296875 -5.40625 C 3.710938 -5.40625 4.085938 -5.328125 4.421875 -5.171875 C 4.753906 -5.023438 5.039062 -4.820312 5.28125 -4.5625 C 5.519531 -4.3125 5.703125 -4.019531 5.828125 -3.6875 C 5.953125 -3.351562 6.015625 -3.003906 6.015625 -2.640625 Z M 5.015625 -2.640625 C 5.015625 -3.128906 4.957031 -3.523438 4.84375 -3.828125 C 4.738281 -4.140625 4.601562 -4.378906 4.4375 -4.546875 C 4.269531 -4.722656 4.082031 -4.835938 3.875 -4.890625 C 3.664062 -4.953125 3.46875 -4.984375 3.28125 -4.984375 C 3.09375 -4.984375 2.894531 -4.953125 2.6875 -4.890625 C 2.488281 -4.835938 2.300781 -4.722656 2.125 -4.546875 C 1.945312 -4.378906 1.800781 -4.140625 1.6875 -3.828125 C 1.582031 -3.523438 1.53125 -3.128906 1.53125 -2.640625 C 1.53125 -2.148438 1.582031 -1.75 1.6875 -1.4375 C 1.800781 -1.132812 1.945312 -0.898438 2.125 -0.734375 C 2.300781 -0.566406 2.488281 -0.453125 2.6875 -0.390625 C 2.894531 -0.328125 3.09375 -0.296875 3.28125 -0.296875 C 3.46875 -0.296875 3.664062 -0.328125 3.875 -0.390625 C 4.082031 -0.453125 4.269531 -0.566406 4.4375 -0.734375 C 4.601562 -0.898438 4.738281 -1.132812 4.84375 -1.4375 C 4.957031 -1.75 5.015625 -2.148438 5.015625 -2.640625 Z M 5.015625 -2.640625 "/></g></g></g><g fill="#ffffff" fill-opacity="1"><g transform="translate(37.758992, 17.393563)"><g><path d="M 1.265625 0 L 3.9375 0 C 4.40625 0 4.800781 -0.0625 5.125 -0.1875 C 5.445312 -0.3125 5.707031 -0.472656 5.90625 -0.671875 C 6.101562 -0.867188 6.242188 -1.09375 6.328125 -1.34375 C 6.421875 -1.59375 6.46875 -1.84375 6.46875 -2.09375 C 6.46875 -2.5 6.378906 -2.820312 6.203125 -3.0625 C 6.035156 -3.300781 5.832031 -3.484375 5.59375 -3.609375 C 5.351562 -3.734375 5.101562 -3.816406 4.84375 -3.859375 C 4.59375 -3.910156 4.390625 -3.9375 4.234375 -3.9375 L 4.234375 -3.984375 C 4.484375 -3.984375 4.71875 -4.03125 4.9375 -4.125 C 5.15625 -4.21875 5.347656 -4.335938 5.515625 -4.484375 C 5.679688 -4.640625 5.8125 -4.816406 5.90625 -5.015625 C 6.007812 -5.222656 6.0625 -5.441406 6.0625 -5.671875 C 6.0625 -5.867188 6.019531 -6.066406 5.9375 -6.265625 C 5.851562 -6.472656 5.722656 -6.660156 5.546875 -6.828125 C 5.367188 -7.003906 5.144531 -7.144531 4.875 -7.25 C 4.601562 -7.363281 4.285156 -7.421875 3.921875 -7.421875 L 1.265625 -7.421875 Z M 2.234375 -0.46875 L 2.234375 -3.703125 L 3.40625 -3.703125 C 3.75 -3.703125 4.046875 -3.65625 4.296875 -3.5625 C 4.554688 -3.476562 4.769531 -3.359375 4.9375 -3.203125 C 5.101562 -3.046875 5.222656 -2.863281 5.296875 -2.65625 C 5.378906 -2.457031 5.421875 -2.242188 5.421875 -2.015625 C 5.421875 -1.765625 5.375 -1.539062 5.28125 -1.34375 C 5.195312 -1.15625 5.082031 -0.992188 4.9375 -0.859375 C 4.789062 -0.734375 4.613281 -0.632812 4.40625 -0.5625 C 4.207031 -0.5 3.992188 -0.46875 3.765625 -0.46875 Z M 2.234375 -4.171875 L 2.234375 -6.953125 L 3.53125 -6.953125 C 3.800781 -6.953125 4.035156 -6.910156 4.234375 -6.828125 C 4.429688 -6.753906 4.585938 -6.648438 4.703125 -6.515625 C 4.828125 -6.390625 4.914062 -6.242188 4.96875 -6.078125 C 5.03125 -5.921875 5.0625 -5.765625 5.0625 -5.609375 C 5.0625 -5.398438 5.019531 -5.207031 4.9375 -5.03125 C 4.851562 -4.851562 4.738281 -4.703125 4.59375 -4.578125 C 4.457031 -4.453125 4.296875 -4.351562 4.109375 -4.28125 C 3.921875 -4.207031 3.71875 -4.171875 3.5 -4.171875 Z M 2.234375 -4.171875 "/></g></g></g><g fill="#ffffff" fill-opacity="1"><g transform="translate(44.757258, 17.393563)"><g><path d="M 5.546875 -2.421875 L 5.546875 -2.640625 C 5.546875 -3.109375 5.476562 -3.515625 5.34375 -3.859375 C 5.21875 -4.210938 5.035156 -4.5 4.796875 -4.71875 C 4.566406 -4.945312 4.300781 -5.117188 4 -5.234375 C 3.695312 -5.347656 3.378906 -5.40625 3.046875 -5.40625 C 2.679688 -5.40625 2.347656 -5.34375 2.046875 -5.21875 C 1.742188 -5.09375 1.476562 -4.910156 1.25 -4.671875 C 1.019531 -4.441406 0.84375 -4.15625 0.71875 -3.8125 C 0.59375 -3.476562 0.53125 -3.101562 0.53125 -2.6875 C 0.53125 -2.332031 0.582031 -1.984375 0.6875 -1.640625 C 0.800781 -1.304688 0.96875 -1.003906 1.1875 -0.734375 C 1.414062 -0.472656 1.695312 -0.265625 2.03125 -0.109375 C 2.375 0.046875 2.78125 0.125 3.25 0.125 C 3.707031 0.125 4.125 0.046875 4.5 -0.109375 C 4.882812 -0.265625 5.21875 -0.492188 5.5 -0.796875 L 5.15625 -1.140625 C 5.007812 -1.003906 4.867188 -0.882812 4.734375 -0.78125 C 4.609375 -0.675781 4.476562 -0.585938 4.34375 -0.515625 C 4.207031 -0.441406 4.066406 -0.382812 3.921875 -0.34375 C 3.773438 -0.3125 3.613281 -0.296875 3.4375 -0.296875 C 3.238281 -0.296875 3.03125 -0.328125 2.8125 -0.390625 C 2.59375 -0.453125 2.382812 -0.554688 2.1875 -0.703125 C 2 -0.859375 1.84375 -1.070312 1.71875 -1.34375 C 1.59375 -1.625 1.53125 -1.984375 1.53125 -2.421875 Z M 1.53125 -2.84375 C 1.53125 -3.125 1.554688 -3.394531 1.609375 -3.65625 C 1.671875 -3.925781 1.765625 -4.160156 1.890625 -4.359375 C 2.015625 -4.566406 2.171875 -4.734375 2.359375 -4.859375 C 2.546875 -4.984375 2.773438 -5.046875 3.046875 -5.046875 C 3.546875 -5.046875 3.929688 -4.847656 4.203125 -4.453125 C 4.484375 -4.054688 4.625 -3.519531 4.625 -2.84375 Z M 1.53125 -2.84375 "/></g></g></g><g fill="#ffffff" fill-opacity="1"><g transform="translate(50.834421, 17.393563)"><g><path d="M 5.546875 -2.421875 L 5.546875 -2.640625 C 5.546875 -3.109375 5.476562 -3.515625 5.34375 -3.859375 C 5.21875 -4.210938 5.035156 -4.5 4.796875 -4.71875 C 4.566406 -4.945312 4.300781 -5.117188 4 -5.234375 C 3.695312 -5.347656 3.378906 -5.40625 3.046875 -5.40625 C 2.679688 -5.40625 2.347656 -5.34375 2.046875 -5.21875 C 1.742188 -5.09375 1.476562 -4.910156 1.25 -4.671875 C 1.019531 -4.441406 0.84375 -4.15625 0.71875 -3.8125 C 0.59375 -3.476562 0.53125 -3.101562 0.53125 -2.6875 C 0.53125 -2.332031 0.582031 -1.984375 0.6875 -1.640625 C 0.800781 -1.304688 0.96875 -1.003906 1.1875 -0.734375 C 1.414062 -0.472656 1.695312 -0.265625 2.03125 -0.109375 C 2.375 0.046875 2.78125 0.125 3.25 0.125 C 3.707031 0.125 4.125 0.046875 4.5 -0.109375 C 4.882812 -0.265625 5.21875 -0.492188 5.5 -0.796875 L 5.15625 -1.140625 C 5.007812 -1.003906 4.867188 -0.882812 4.734375 -0.78125 C 4.609375 -0.675781 4.476562 -0.585938 4.34375 -0.515625 C 4.207031 -0.441406 4.066406 -0.382812 3.921875 -0.34375 C 3.773438 -0.3125 3.613281 -0.296875 3.4375 -0.296875 C 3.238281 -0.296875 3.03125 -0.328125 2.8125 -0.390625 C 2.59375 -0.453125 2.382812 -0.554688 2.1875 -0.703125 C 2 -0.859375 1.84375 -1.070312 1.71875 -1.34375 C 1.59375 -1.625 1.53125 -1.984375 1.53125 -2.421875 Z M 1.53125 -2.84375 C 1.53125 -3.125 1.554688 -3.394531 1.609375 -3.65625 C 1.671875 -3.925781 1.765625 -4.160156 1.890625 -4.359375 C 2.015625 -4.566406 2.171875 -4.734375 2.359375 -4.859375 C 2.546875 -4.984375 2.773438 -5.046875 3.046875 -5.046875 C 3.546875 -5.046875 3.929688 -4.847656 4.203125 -4.453125 C 4.484375 -4.054688 4.625 -3.519531 4.625 -2.84375 Z M 1.53125 -2.84375 "/></g></g></g><g fill="#ffffff" fill-opacity="1"><g transform="translate(22.313843, 66.128138)"><g><path d="M 0.421875 -3.65625 L 0.859375 -3.65625 L 0.859375 -2.1875 L 0.875 -2.1875 C 0.914062 -2.269531 0.960938 -2.34375 1.015625 -2.40625 C 1.078125 -2.46875 1.144531 -2.515625 1.21875 -2.546875 C 1.289062 -2.585938 1.367188 -2.617188 1.453125 -2.640625 C 1.535156 -2.660156 1.617188 -2.671875 1.703125 -2.671875 C 1.867188 -2.671875 2.023438 -2.632812 2.171875 -2.5625 C 2.316406 -2.5 2.441406 -2.410156 2.546875 -2.296875 C 2.660156 -2.179688 2.742188 -2.039062 2.796875 -1.875 C 2.859375 -1.707031 2.890625 -1.519531 2.890625 -1.3125 C 2.890625 -1.101562 2.859375 -0.910156 2.796875 -0.734375 C 2.742188 -0.566406 2.660156 -0.421875 2.546875 -0.296875 C 2.441406 -0.179688 2.316406 -0.09375 2.171875 -0.03125 C 2.023438 0.03125 1.867188 0.0625 1.703125 0.0625 C 1.285156 0.0625 1.007812 -0.0976562 0.875 -0.421875 L 0.859375 -0.421875 L 0.859375 0 L 0.421875 0 Z M 0.859375 -1.046875 C 0.859375 -0.929688 0.875 -0.820312 0.90625 -0.71875 C 0.945312 -0.613281 1 -0.523438 1.0625 -0.453125 C 1.132812 -0.378906 1.210938 -0.316406 1.296875 -0.265625 C 1.390625 -0.222656 1.488281 -0.203125 1.59375 -0.203125 C 1.695312 -0.203125 1.796875 -0.222656 1.890625 -0.265625 C 1.992188 -0.304688 2.082031 -0.367188 2.15625 -0.453125 C 2.226562 -0.546875 2.285156 -0.660156 2.328125 -0.796875 C 2.367188 -0.929688 2.390625 -1.097656 2.390625 -1.296875 C 2.390625 -1.492188 2.367188 -1.660156 2.328125 -1.796875 C 2.285156 -1.941406 2.226562 -2.054688 2.15625 -2.140625 C 2.082031 -2.234375 1.992188 -2.300781 1.890625 -2.34375 C 1.796875 -2.382812 1.695312 -2.40625 1.59375 -2.40625 C 1.488281 -2.40625 1.390625 -2.382812 1.296875 -2.34375 C 1.210938 -2.300781 1.140625 -2.238281 1.078125 -2.15625 C 1.015625 -2.082031 0.960938 -1.988281 0.921875 -1.875 C 0.878906 -1.769531 0.859375 -1.644531 0.859375 -1.5 Z M 0.859375 -1.046875 "/></g></g></g><g fill="#ffffff" fill-opacity="1"><g transform="translate(25.46687, 66.128138)"><g><path d="M 1.4375 -0.609375 L 0.53125 -2.609375 L 0.046875 -2.609375 L 1.21875 -0.03125 L 0.9375 0.640625 C 0.90625 0.722656 0.863281 0.785156 0.8125 0.828125 C 0.769531 0.878906 0.710938 0.90625 0.640625 0.90625 C 0.578125 0.90625 0.515625 0.882812 0.453125 0.84375 C 0.398438 0.8125 0.359375 0.765625 0.328125 0.703125 L 0.109375 1.125 C 0.171875 1.1875 0.238281 1.226562 0.3125 1.25 C 0.394531 1.28125 0.472656 1.296875 0.546875 1.296875 C 0.640625 1.296875 0.722656 1.269531 0.796875 1.21875 C 0.867188 1.175781 0.929688 1.113281 0.984375 1.03125 C 1.046875 0.957031 1.097656 0.875 1.140625 0.78125 C 1.179688 0.6875 1.222656 0.59375 1.265625 0.5 L 2.53125 -2.609375 L 2.265625 -2.609375 L 1.453125 -0.609375 Z M 1.4375 -0.609375 "/></g></g></g><g fill="#ffffff" fill-opacity="1"><g transform="translate(28.097874, 66.128138)"><g/></g></g><g fill="#ffffff" fill-opacity="1"><g transform="translate(29.92496, 66.128138)"><g><path d="M 0.625 0 L 1.9375 0 C 2.164062 0 2.359375 -0.03125 2.515625 -0.09375 C 2.679688 -0.15625 2.8125 -0.234375 2.90625 -0.328125 C 3.007812 -0.421875 3.082031 -0.53125 3.125 -0.65625 C 3.164062 -0.78125 3.1875 -0.90625 3.1875 -1.03125 C 3.1875 -1.226562 3.144531 -1.382812 3.0625 -1.5 C 2.976562 -1.625 2.875 -1.71875 2.75 -1.78125 C 2.632812 -1.84375 2.515625 -1.882812 2.390625 -1.90625 C 2.265625 -1.925781 2.164062 -1.9375 2.09375 -1.9375 L 2.09375 -1.96875 C 2.207031 -1.96875 2.316406 -1.988281 2.421875 -2.03125 C 2.535156 -2.082031 2.632812 -2.144531 2.71875 -2.21875 C 2.800781 -2.289062 2.863281 -2.375 2.90625 -2.46875 C 2.957031 -2.570312 2.984375 -2.679688 2.984375 -2.796875 C 2.984375 -2.890625 2.960938 -2.984375 2.921875 -3.078125 C 2.878906 -3.179688 2.816406 -3.273438 2.734375 -3.359375 C 2.648438 -3.441406 2.539062 -3.507812 2.40625 -3.5625 C 2.269531 -3.625 2.113281 -3.65625 1.9375 -3.65625 L 0.625 -3.65625 Z M 1.09375 -0.234375 L 1.09375 -1.828125 L 1.671875 -1.828125 C 1.847656 -1.828125 2 -1.800781 2.125 -1.75 C 2.25 -1.707031 2.347656 -1.648438 2.421875 -1.578125 C 2.503906 -1.503906 2.566406 -1.414062 2.609375 -1.3125 C 2.648438 -1.207031 2.671875 -1.097656 2.671875 -0.984375 C 2.671875 -0.867188 2.648438 -0.765625 2.609375 -0.671875 C 2.566406 -0.578125 2.507812 -0.492188 2.4375 -0.421875 C 2.363281 -0.359375 2.273438 -0.3125 2.171875 -0.28125 C 2.078125 -0.25 1.972656 -0.234375 1.859375 -0.234375 Z M 1.09375 -2.0625 L 1.09375 -3.421875 L 1.734375 -3.421875 C 1.867188 -3.421875 1.984375 -3.398438 2.078125 -3.359375 C 2.179688 -3.328125 2.257812 -3.28125 2.3125 -3.21875 C 2.375 -3.15625 2.421875 -3.082031 2.453125 -3 C 2.484375 -2.914062 2.5 -2.835938 2.5 -2.765625 C 2.5 -2.660156 2.476562 -2.5625 2.4375 -2.46875 C 2.394531 -2.382812 2.335938 -2.3125 2.265625 -2.25 C 2.191406 -2.1875 2.109375 -2.140625 2.015625 -2.109375 C 1.929688 -2.078125 1.835938 -2.0625 1.734375 -2.0625 Z M 1.09375 -2.0625 "/></g></g></g><g fill="#ffffff" fill-opacity="1"><g transform="translate(33.375542, 66.128138)"><g><path d="M 2.734375 -1.1875 L 2.734375 -1.296875 C 2.734375 -1.535156 2.695312 -1.738281 2.625 -1.90625 C 2.5625 -2.070312 2.472656 -2.210938 2.359375 -2.328125 C 2.253906 -2.441406 2.125 -2.523438 1.96875 -2.578125 C 1.820312 -2.628906 1.664062 -2.65625 1.5 -2.65625 C 1.320312 -2.65625 1.15625 -2.625 1 -2.5625 C 0.851562 -2.507812 0.722656 -2.421875 0.609375 -2.296875 C 0.503906 -2.179688 0.421875 -2.039062 0.359375 -1.875 C 0.296875 -1.71875 0.265625 -1.535156 0.265625 -1.328125 C 0.265625 -1.148438 0.289062 -0.976562 0.34375 -0.8125 C 0.394531 -0.644531 0.472656 -0.492188 0.578125 -0.359375 C 0.691406 -0.234375 0.832031 -0.128906 1 -0.046875 C 1.164062 0.0234375 1.367188 0.0625 1.609375 0.0625 C 1.828125 0.0625 2.03125 0.0234375 2.21875 -0.046875 C 2.40625 -0.128906 2.566406 -0.242188 2.703125 -0.390625 L 2.546875 -0.5625 C 2.472656 -0.5 2.398438 -0.441406 2.328125 -0.390625 C 2.265625 -0.335938 2.203125 -0.289062 2.140625 -0.25 C 2.078125 -0.21875 2.007812 -0.191406 1.9375 -0.171875 C 1.863281 -0.148438 1.785156 -0.140625 1.703125 -0.140625 C 1.597656 -0.140625 1.488281 -0.15625 1.375 -0.1875 C 1.269531 -0.21875 1.171875 -0.269531 1.078125 -0.34375 C 0.984375 -0.425781 0.90625 -0.535156 0.84375 -0.671875 C 0.78125 -0.804688 0.75 -0.976562 0.75 -1.1875 Z M 0.75 -1.40625 C 0.75 -1.539062 0.765625 -1.671875 0.796875 -1.796875 C 0.828125 -1.929688 0.867188 -2.046875 0.921875 -2.140625 C 0.984375 -2.242188 1.0625 -2.328125 1.15625 -2.390625 C 1.25 -2.453125 1.363281 -2.484375 1.5 -2.484375 C 1.75 -2.484375 1.941406 -2.382812 2.078125 -2.1875 C 2.210938 -2 2.28125 -1.738281 2.28125 -1.40625 Z M 0.75 -1.40625 "/></g></g></g><g fill="#ffffff" fill-opacity="1"><g transform="translate(36.371962, 66.128138)"><g><path d="M 2.734375 -1.1875 L 2.734375 -1.296875 C 2.734375 -1.535156 2.695312 -1.738281 2.625 -1.90625 C 2.5625 -2.070312 2.472656 -2.210938 2.359375 -2.328125 C 2.253906 -2.441406 2.125 -2.523438 1.96875 -2.578125 C 1.820312 -2.628906 1.664062 -2.65625 1.5 -2.65625 C 1.320312 -2.65625 1.15625 -2.625 1 -2.5625 C 0.851562 -2.507812 0.722656 -2.421875 0.609375 -2.296875 C 0.503906 -2.179688 0.421875 -2.039062 0.359375 -1.875 C 0.296875 -1.71875 0.265625 -1.535156 0.265625 -1.328125 C 0.265625 -1.148438 0.289062 -0.976562 0.34375 -0.8125 C 0.394531 -0.644531 0.472656 -0.492188 0.578125 -0.359375 C 0.691406 -0.234375 0.832031 -0.128906 1 -0.046875 C 1.164062 0.0234375 1.367188 0.0625 1.609375 0.0625 C 1.828125 0.0625 2.03125 0.0234375 2.21875 -0.046875 C 2.40625 -0.128906 2.566406 -0.242188 2.703125 -0.390625 L 2.546875 -0.5625 C 2.472656 -0.5 2.398438 -0.441406 2.328125 -0.390625 C 2.265625 -0.335938 2.203125 -0.289062 2.140625 -0.25 C 2.078125 -0.21875 2.007812 -0.191406 1.9375 -0.171875 C 1.863281 -0.148438 1.785156 -0.140625 1.703125 -0.140625 C 1.597656 -0.140625 1.488281 -0.15625 1.375 -0.1875 C 1.269531 -0.21875 1.171875 -0.269531 1.078125 -0.34375 C 0.984375 -0.425781 0.90625 -0.535156 0.84375 -0.671875 C 0.78125 -0.804688 0.75 -0.976562 0.75 -1.1875 Z M 0.75 -1.40625 C 0.75 -1.539062 0.765625 -1.671875 0.796875 -1.796875 C 0.828125 -1.929688 0.867188 -2.046875 0.921875 -2.140625 C 0.984375 -2.242188 1.0625 -2.328125 1.15625 -2.390625 C 1.25 -2.453125 1.363281 -2.484375 1.5 -2.484375 C 1.75 -2.484375 1.941406 -2.382812 2.078125 -2.1875 C 2.210938 -2 2.28125 -1.738281 2.28125 -1.40625 Z M 0.75 -1.40625 "/></g></g></g><g fill="#ffffff" fill-opacity="1"><g transform="translate(39.368382, 66.128138)"><g><path d="M 1.09375 -1.8125 L 3.28125 -1.8125 L 3.28125 0 L 3.765625 0 L 3.765625 -3.65625 L 3.28125 -3.65625 L 3.28125 -2.0625 L 1.09375 -2.0625 L 1.09375 -3.65625 L 0.625 -3.65625 L 0.625 0 L 1.09375 0 Z M 1.09375 -1.8125 "/></g></g></g><g fill="#ffffff" fill-opacity="1"><g transform="translate(43.758608, 66.128138)"><g><path d="M 0.828125 -3.65625 L 0.828125 0 L 1.3125 0 L 1.3125 -3.65625 Z M 0.828125 -3.65625 "/></g></g></g><g fill="#ffffff" fill-opacity="1"><g transform="translate(45.904129, 66.128138)"><g><path d="M 0.15625 -3.65625 L 1.6875 0 L 2 0 L 3.484375 -3.65625 L 3.203125 -3.65625 L 2 -0.640625 L 1.96875 -0.640625 L 0.71875 -3.65625 Z M 0.15625 -3.65625 "/></g></g></g><g fill="#ffffff" fill-opacity="1"><g transform="translate(49.54264, 66.128138)"><g><path d="M 0.625 -3.65625 L 0.625 0 L 2.984375 0 L 2.984375 -0.28125 L 1.09375 -0.28125 L 1.09375 -1.8125 L 2.71875 -1.8125 L 2.71875 -2.0625 L 1.09375 -2.0625 L 1.09375 -3.359375 L 2.984375 -3.359375 L 2.984375 -3.65625 Z M 0.625 -3.65625 "/></g></g></g></svg>